G75*
%MOIN*%
%OFA0B0*%
%FSLAX24Y24*%
%IPPOS*%
%LPD*%
%AMOC8*
5,1,8,0,0,1.08239X$1,22.5*
%
%ADD10C,0.0160*%
%ADD11C,0.0120*%
%ADD12C,0.0080*%
D10*
X000681Y001180D02*
X000681Y009917D01*
X000955Y010514D02*
X003536Y012737D01*
X003673Y013035D02*
X003673Y013086D01*
X003673Y013035D02*
X003671Y012997D01*
X003666Y012960D01*
X003657Y012924D01*
X003645Y012888D01*
X003629Y012854D01*
X003610Y012821D01*
X003588Y012791D01*
X003563Y012762D01*
X003536Y012736D01*
X003673Y013086D02*
X003675Y013130D01*
X003681Y013173D01*
X003690Y013215D01*
X003703Y013257D01*
X003720Y013297D01*
X003740Y013336D01*
X003763Y013373D01*
X003790Y013407D01*
X003819Y013440D01*
X003852Y013469D01*
X003886Y013496D01*
X003923Y013519D01*
X003962Y013539D01*
X004002Y013556D01*
X004044Y013569D01*
X004086Y013578D01*
X004129Y013584D01*
X004173Y013586D01*
X006992Y013586D01*
X007036Y013584D01*
X007079Y013578D01*
X007121Y013569D01*
X007163Y013556D01*
X007203Y013539D01*
X007242Y013519D01*
X007279Y013496D01*
X007313Y013469D01*
X007346Y013440D01*
X007375Y013407D01*
X007402Y013373D01*
X007425Y013336D01*
X007445Y013297D01*
X007462Y013257D01*
X007475Y013215D01*
X007484Y013173D01*
X007490Y013130D01*
X007492Y013086D01*
X007492Y013004D01*
X007636Y012700D02*
X010295Y010515D01*
X010583Y009906D02*
X010583Y001180D01*
X010581Y001120D01*
X010576Y001059D01*
X010567Y001000D01*
X010554Y000941D01*
X010538Y000882D01*
X010518Y000825D01*
X010495Y000770D01*
X010468Y000715D01*
X010439Y000663D01*
X010406Y000612D01*
X010370Y000563D01*
X010332Y000517D01*
X010290Y000473D01*
X010246Y000431D01*
X010200Y000393D01*
X010151Y000357D01*
X010100Y000324D01*
X010048Y000295D01*
X009993Y000268D01*
X009938Y000245D01*
X009881Y000225D01*
X009822Y000209D01*
X009763Y000196D01*
X009704Y000187D01*
X009643Y000182D01*
X009583Y000180D01*
X001681Y000180D01*
X001621Y000182D01*
X001560Y000187D01*
X001501Y000196D01*
X001442Y000209D01*
X001383Y000225D01*
X001326Y000245D01*
X001271Y000268D01*
X001216Y000295D01*
X001164Y000324D01*
X001113Y000357D01*
X001064Y000393D01*
X001018Y000431D01*
X000974Y000473D01*
X000932Y000517D01*
X000894Y000563D01*
X000858Y000612D01*
X000825Y000663D01*
X000796Y000715D01*
X000769Y000770D01*
X000746Y000825D01*
X000726Y000882D01*
X000710Y000941D01*
X000697Y001000D01*
X000688Y001059D01*
X000683Y001120D01*
X000681Y001180D01*
X002630Y002188D02*
X003201Y002188D01*
X002630Y002208D02*
X002630Y002759D01*
X008063Y002188D02*
X008634Y002188D01*
X008634Y002739D01*
X008673Y009649D02*
X008673Y010200D01*
X008102Y010200D01*
X010295Y010514D02*
X010335Y010479D01*
X010372Y010441D01*
X010407Y010400D01*
X010439Y010358D01*
X010469Y010313D01*
X010495Y010266D01*
X010518Y010218D01*
X010537Y010168D01*
X010553Y010117D01*
X010566Y010065D01*
X010575Y010013D01*
X010580Y009959D01*
X010582Y009906D01*
X007636Y012700D02*
X007607Y012726D01*
X007581Y012754D01*
X007558Y012785D01*
X007538Y012818D01*
X007522Y012853D01*
X007509Y012890D01*
X007500Y012927D01*
X007494Y012965D01*
X007492Y013004D01*
X003201Y010219D02*
X002630Y010219D01*
X002630Y009668D01*
X000955Y010513D02*
X000916Y010478D01*
X000880Y010440D01*
X000847Y010400D01*
X000816Y010358D01*
X000789Y010314D01*
X000764Y010269D01*
X000742Y010221D01*
X000724Y010173D01*
X000708Y010123D01*
X000696Y010072D01*
X000688Y010021D01*
X000683Y009969D01*
X000681Y009917D01*
D11*
X003405Y008428D02*
X003407Y008473D01*
X003413Y008517D01*
X003423Y008560D01*
X003436Y008603D01*
X003454Y008644D01*
X003474Y008683D01*
X003499Y008721D01*
X003526Y008756D01*
X003557Y008788D01*
X003590Y008818D01*
X003626Y008845D01*
X003663Y008868D01*
X003703Y008888D01*
X003745Y008905D01*
X003788Y008917D01*
X003831Y008926D01*
X003876Y008931D01*
X003920Y008932D01*
X003965Y008929D01*
X004009Y008922D01*
X004052Y008911D01*
X004094Y008897D01*
X004135Y008879D01*
X004174Y008857D01*
X004211Y008832D01*
X004245Y008804D01*
X004277Y008772D01*
X004306Y008738D01*
X004332Y008702D01*
X004354Y008664D01*
X004374Y008623D01*
X004389Y008582D01*
X004401Y008539D01*
X004409Y008495D01*
X004413Y008450D01*
X004413Y008406D01*
X004409Y008361D01*
X004401Y008317D01*
X004389Y008274D01*
X004374Y008233D01*
X004354Y008192D01*
X004332Y008154D01*
X004306Y008118D01*
X004277Y008084D01*
X004245Y008052D01*
X004211Y008024D01*
X004174Y007999D01*
X004135Y007977D01*
X004094Y007959D01*
X004052Y007945D01*
X004009Y007934D01*
X003965Y007927D01*
X003920Y007924D01*
X003876Y007925D01*
X003831Y007930D01*
X003788Y007939D01*
X003745Y007951D01*
X003703Y007968D01*
X003663Y007988D01*
X003626Y008011D01*
X003590Y008038D01*
X003557Y008068D01*
X003526Y008100D01*
X003499Y008135D01*
X003474Y008173D01*
X003454Y008212D01*
X003436Y008253D01*
X003423Y008296D01*
X003413Y008339D01*
X003407Y008383D01*
X003405Y008428D01*
D12*
X003378Y001499D02*
X002748Y001499D01*
X002748Y001498D02*
X002732Y001493D01*
X002716Y001485D01*
X002702Y001475D01*
X002690Y001463D01*
X002680Y001448D01*
X002673Y001432D01*
X002669Y001415D01*
X002668Y001398D01*
X002670Y001380D01*
X002670Y000830D02*
X002668Y000812D01*
X002669Y000795D01*
X002673Y000778D01*
X002680Y000762D01*
X002690Y000747D01*
X002702Y000735D01*
X002716Y000725D01*
X002732Y000717D01*
X002748Y000712D01*
X002748Y000711D02*
X003378Y000711D01*
X003378Y000712D02*
X003394Y000717D01*
X003410Y000725D01*
X003424Y000735D01*
X003436Y000747D01*
X003446Y000762D01*
X003453Y000778D01*
X003457Y000795D01*
X003458Y000812D01*
X003456Y000830D01*
X003848Y000901D02*
X003848Y001321D01*
X004128Y001321D01*
X004308Y001321D02*
X004518Y001321D01*
X004588Y001251D01*
X004588Y001111D01*
X004518Y001041D01*
X004308Y001041D01*
X004308Y000901D02*
X004308Y001321D01*
X004448Y001041D02*
X004588Y000901D01*
X004768Y000971D02*
X004838Y000901D01*
X004979Y000901D01*
X005049Y000971D01*
X005049Y001251D01*
X004979Y001321D01*
X004838Y001321D01*
X004768Y001251D01*
X004768Y000971D01*
X004909Y001041D02*
X005049Y000901D01*
X003988Y001111D02*
X003848Y001111D01*
X003456Y001380D02*
X003458Y001398D01*
X003457Y001415D01*
X003453Y001432D01*
X003446Y001448D01*
X003436Y001463D01*
X003424Y001475D01*
X003410Y001485D01*
X003394Y001493D01*
X003378Y001498D01*
M02*
