G75*
%MOIN*%
%OFA0B0*%
%FSLAX24Y24*%
%IPPOS*%
%LPD*%
%AMOC8*
5,1,8,0,0,1.08239X$1,22.5*
%
%ADD10C,0.0160*%
D10*
X000681Y000967D02*
X000681Y010186D01*
X000911Y010742D02*
X003501Y013335D01*
X004058Y013566D02*
X007205Y013566D01*
X007762Y013335D02*
X010352Y010745D01*
X010583Y010188D02*
X010583Y000967D01*
X010582Y000967D02*
X010580Y000913D01*
X010575Y000860D01*
X010566Y000807D01*
X010553Y000755D01*
X010537Y000703D01*
X010517Y000653D01*
X010494Y000605D01*
X010467Y000558D01*
X010438Y000513D01*
X010405Y000470D01*
X010370Y000430D01*
X010332Y000392D01*
X010292Y000357D01*
X010249Y000324D01*
X010204Y000295D01*
X010157Y000268D01*
X010109Y000245D01*
X010059Y000225D01*
X010007Y000209D01*
X009955Y000196D01*
X009902Y000187D01*
X009849Y000182D01*
X009795Y000180D01*
X001468Y000180D01*
X001414Y000182D01*
X001361Y000187D01*
X001308Y000196D01*
X001256Y000209D01*
X001204Y000225D01*
X001154Y000245D01*
X001106Y000268D01*
X001059Y000295D01*
X001014Y000324D01*
X000971Y000357D01*
X000931Y000392D01*
X000893Y000430D01*
X000858Y000470D01*
X000825Y000513D01*
X000796Y000558D01*
X000769Y000605D01*
X000746Y000653D01*
X000726Y000703D01*
X000710Y000755D01*
X000697Y000807D01*
X000688Y000860D01*
X000683Y000913D01*
X000681Y000967D01*
X000681Y010186D02*
X000683Y010237D01*
X000688Y010289D01*
X000696Y010339D01*
X000708Y010390D01*
X000723Y010439D01*
X000741Y010487D01*
X000762Y010534D01*
X000786Y010579D01*
X000813Y010623D01*
X000843Y010665D01*
X000876Y010705D01*
X000911Y010742D01*
X003501Y013334D02*
X003539Y013369D01*
X003579Y013402D01*
X003621Y013432D01*
X003664Y013459D01*
X003710Y013484D01*
X003757Y013505D01*
X003805Y013523D01*
X003854Y013538D01*
X003904Y013550D01*
X003955Y013558D01*
X004006Y013563D01*
X004058Y013565D01*
X007205Y013565D02*
X007256Y013563D01*
X007308Y013558D01*
X007359Y013550D01*
X007409Y013538D01*
X007458Y013523D01*
X007506Y013505D01*
X007553Y013484D01*
X007599Y013460D01*
X007642Y013432D01*
X007684Y013402D01*
X007724Y013370D01*
X007761Y013334D01*
X010351Y010744D02*
X010387Y010707D01*
X010419Y010667D01*
X010449Y010625D01*
X010477Y010582D01*
X010501Y010536D01*
X010522Y010489D01*
X010540Y010441D01*
X010555Y010392D01*
X010567Y010342D01*
X010575Y010291D01*
X010580Y010239D01*
X010582Y010188D01*
M02*
