G75*
%MOIN*%
%OFA0B0*%
%FSLAX24Y24*%
%IPPOS*%
%LPD*%
%AMOC8*
5,1,8,0,0,1.08239X$1,22.5*
%
%ADD10C,0.0513*%
%ADD11R,0.0680X0.1680*%
%ADD12R,0.0330X0.0580*%
%ADD13R,0.0595X0.0595*%
%ADD14C,0.0595*%
%ADD15C,0.0316*%
%ADD16R,0.0434X0.0356*%
%ADD17R,0.0474X0.0513*%
%ADD18C,0.0476*%
D10*
X003634Y002188D03*
X004638Y002188D03*
X005622Y002188D03*
X006606Y002188D03*
X007630Y002188D03*
X008673Y003211D03*
X008673Y004215D03*
X008673Y005219D03*
X008673Y006204D03*
X008673Y007208D03*
X008673Y008211D03*
X008653Y009215D03*
X007630Y010219D03*
X006646Y010219D03*
X005642Y010219D03*
X004638Y010219D03*
X003634Y010219D03*
X002630Y009215D03*
X002630Y008211D03*
X002630Y007208D03*
X002630Y006223D03*
X002630Y005200D03*
X002630Y004196D03*
X002630Y003211D03*
D11*
X004618Y012818D03*
X005618Y012818D03*
X006618Y012818D03*
D12*
X003240Y001105D03*
X002886Y001105D03*
D13*
X001272Y002621D03*
X009992Y002621D03*
D14*
X009992Y003408D03*
X009992Y004196D03*
X009992Y004983D03*
X009992Y005771D03*
X009992Y006558D03*
X009992Y007345D03*
X009992Y008133D03*
X009992Y008920D03*
X009992Y009708D03*
X001272Y009708D03*
X001272Y008920D03*
X001272Y008133D03*
X001272Y007345D03*
X001272Y006558D03*
X001272Y005771D03*
X001272Y004983D03*
X001272Y004196D03*
X001272Y003408D03*
D15*
X009559Y001341D03*
D16*
X001980Y006223D03*
X001980Y006735D03*
X001960Y008408D03*
X001960Y008920D03*
D17*
X002079Y001164D03*
X002079Y001834D03*
D18*
X005622Y001105D03*
X006114Y001105D03*
X006606Y001105D03*
X007098Y001105D03*
X007590Y001105D03*
X008083Y001105D03*
X008575Y001105D03*
X009067Y001105D03*
X009559Y001105D03*
M02*
