G75*
%MOIN*%
%OFA0B0*%
%FSLAX24Y24*%
%IPPOS*%
%LPD*%
%AMOC8*
5,1,8,0,0,1.08239X$1,22.5*
%
%ADD10R,0.0680X0.1680*%
%ADD11R,0.0595X0.0595*%
%ADD12C,0.0595*%
%ADD13C,0.0316*%
%ADD14C,0.0476*%
%ADD15C,0.0671*%
D10*
X004618Y012818D03*
X006618Y012818D03*
D11*
X001272Y002621D03*
X009992Y002621D03*
D12*
X009992Y003408D03*
X009992Y004196D03*
X009992Y004983D03*
X009992Y005771D03*
X009992Y006558D03*
X009992Y007345D03*
X009992Y008133D03*
X009992Y008920D03*
X009992Y009708D03*
X001272Y009708D03*
X001272Y008920D03*
X001272Y008133D03*
X001272Y007345D03*
X001272Y006558D03*
X001272Y005771D03*
X001272Y004983D03*
X001272Y004196D03*
X001272Y003408D03*
D13*
X005622Y001341D03*
X006114Y001341D03*
X006606Y001341D03*
X007098Y001341D03*
X007590Y001341D03*
X008083Y001341D03*
X008575Y001341D03*
X009067Y001341D03*
D14*
X009067Y001105D03*
X009559Y001105D03*
X008575Y001105D03*
X008083Y001105D03*
X007590Y001105D03*
X007098Y001105D03*
X006606Y001105D03*
X006114Y001105D03*
X005622Y001105D03*
D15*
X005622Y012798D03*
M02*
