G75*
%MOIN*%
%OFA0B0*%
%FSLAX25Y25*%
%IPPOS*%
%LPD*%
%AMOC8*
5,1,8,0,0,1.08239X$1,22.5*
%
%ADD10C,0.01000*%
D10*
X0006800Y0015250D02*
X0095300Y0015250D01*
X0095440Y0015252D01*
X0095580Y0015258D01*
X0095720Y0015268D01*
X0095860Y0015281D01*
X0095999Y0015299D01*
X0096138Y0015321D01*
X0096275Y0015346D01*
X0096413Y0015375D01*
X0096549Y0015408D01*
X0096684Y0015445D01*
X0096818Y0015486D01*
X0096951Y0015531D01*
X0097083Y0015579D01*
X0097213Y0015631D01*
X0097342Y0015686D01*
X0097469Y0015745D01*
X0097595Y0015808D01*
X0097719Y0015874D01*
X0097840Y0015943D01*
X0097960Y0016016D01*
X0098078Y0016093D01*
X0098193Y0016172D01*
X0098307Y0016255D01*
X0098417Y0016341D01*
X0098526Y0016430D01*
X0098632Y0016522D01*
X0098735Y0016617D01*
X0098836Y0016714D01*
X0098933Y0016815D01*
X0099028Y0016918D01*
X0099120Y0017024D01*
X0099209Y0017133D01*
X0099295Y0017243D01*
X0099378Y0017357D01*
X0099457Y0017472D01*
X0099534Y0017590D01*
X0099607Y0017710D01*
X0099676Y0017831D01*
X0099742Y0017955D01*
X0099805Y0018081D01*
X0099864Y0018208D01*
X0099919Y0018337D01*
X0099971Y0018467D01*
X0100019Y0018599D01*
X0100064Y0018732D01*
X0100105Y0018866D01*
X0100142Y0019001D01*
X0100175Y0019137D01*
X0100204Y0019275D01*
X0100229Y0019412D01*
X0100251Y0019551D01*
X0100269Y0019690D01*
X0100282Y0019830D01*
X0100292Y0019970D01*
X0100298Y0020110D01*
X0100300Y0020250D01*
X0100300Y0109891D01*
X0096515Y0117725D02*
X0057672Y0148544D01*
X0052778Y0150250D02*
X0017747Y0150250D01*
X0012179Y0147944D02*
X0004729Y0140494D01*
X0001800Y0133423D02*
X0001800Y0020250D01*
X0001802Y0020110D01*
X0001808Y0019970D01*
X0001818Y0019830D01*
X0001831Y0019690D01*
X0001849Y0019551D01*
X0001871Y0019412D01*
X0001896Y0019275D01*
X0001925Y0019137D01*
X0001958Y0019001D01*
X0001995Y0018866D01*
X0002036Y0018732D01*
X0002081Y0018599D01*
X0002129Y0018467D01*
X0002181Y0018337D01*
X0002236Y0018208D01*
X0002295Y0018081D01*
X0002358Y0017955D01*
X0002424Y0017831D01*
X0002493Y0017710D01*
X0002566Y0017590D01*
X0002643Y0017472D01*
X0002722Y0017357D01*
X0002805Y0017243D01*
X0002891Y0017133D01*
X0002980Y0017024D01*
X0003072Y0016918D01*
X0003167Y0016815D01*
X0003264Y0016714D01*
X0003365Y0016617D01*
X0003468Y0016522D01*
X0003574Y0016430D01*
X0003683Y0016341D01*
X0003793Y0016255D01*
X0003907Y0016172D01*
X0004022Y0016093D01*
X0004140Y0016016D01*
X0004260Y0015943D01*
X0004381Y0015874D01*
X0004505Y0015808D01*
X0004631Y0015745D01*
X0004758Y0015686D01*
X0004887Y0015631D01*
X0005017Y0015579D01*
X0005149Y0015531D01*
X0005282Y0015486D01*
X0005416Y0015445D01*
X0005551Y0015408D01*
X0005687Y0015375D01*
X0005825Y0015346D01*
X0005962Y0015321D01*
X0006101Y0015299D01*
X0006240Y0015281D01*
X0006380Y0015268D01*
X0006520Y0015258D01*
X0006660Y0015252D01*
X0006800Y0015250D01*
X0100300Y0109891D02*
X0100297Y0110134D01*
X0100288Y0110377D01*
X0100273Y0110620D01*
X0100253Y0110863D01*
X0100226Y0111104D01*
X0100194Y0111345D01*
X0100155Y0111586D01*
X0100111Y0111825D01*
X0100061Y0112063D01*
X0100006Y0112300D01*
X0099944Y0112535D01*
X0099877Y0112769D01*
X0099804Y0113001D01*
X0099726Y0113231D01*
X0099642Y0113460D01*
X0099552Y0113686D01*
X0099457Y0113910D01*
X0099357Y0114131D01*
X0099251Y0114350D01*
X0099140Y0114567D01*
X0099023Y0114780D01*
X0098902Y0114991D01*
X0098775Y0115199D01*
X0098644Y0115403D01*
X0098507Y0115605D01*
X0098366Y0115803D01*
X0098219Y0115997D01*
X0098069Y0116188D01*
X0097913Y0116375D01*
X0097753Y0116558D01*
X0097589Y0116737D01*
X0097420Y0116913D01*
X0097247Y0117084D01*
X0097070Y0117251D01*
X0096889Y0117413D01*
X0096704Y0117571D01*
X0096515Y0117725D01*
X0057672Y0148544D02*
X0057523Y0148660D01*
X0057371Y0148772D01*
X0057217Y0148880D01*
X0057060Y0148984D01*
X0056900Y0149085D01*
X0056738Y0149182D01*
X0056574Y0149275D01*
X0056408Y0149364D01*
X0056239Y0149448D01*
X0056069Y0149529D01*
X0055897Y0149606D01*
X0055723Y0149679D01*
X0055547Y0149747D01*
X0055369Y0149811D01*
X0055191Y0149871D01*
X0055010Y0149927D01*
X0054829Y0149978D01*
X0054646Y0150025D01*
X0054462Y0150068D01*
X0054278Y0150106D01*
X0054092Y0150140D01*
X0053906Y0150169D01*
X0053719Y0150194D01*
X0053531Y0150214D01*
X0053343Y0150230D01*
X0053155Y0150241D01*
X0052967Y0150248D01*
X0052778Y0150250D01*
X0017747Y0150250D02*
X0017560Y0150248D01*
X0017372Y0150241D01*
X0017185Y0150230D01*
X0016999Y0150214D01*
X0016812Y0150194D01*
X0016626Y0150170D01*
X0016441Y0150141D01*
X0016257Y0150108D01*
X0016073Y0150070D01*
X0015891Y0150028D01*
X0015709Y0149982D01*
X0015529Y0149931D01*
X0015349Y0149876D01*
X0015172Y0149817D01*
X0014995Y0149754D01*
X0014821Y0149686D01*
X0014647Y0149614D01*
X0014476Y0149538D01*
X0014306Y0149459D01*
X0014139Y0149375D01*
X0013973Y0149287D01*
X0013810Y0149195D01*
X0013649Y0149099D01*
X0013490Y0149000D01*
X0013334Y0148897D01*
X0013180Y0148790D01*
X0013028Y0148679D01*
X0012880Y0148565D01*
X0012734Y0148448D01*
X0012591Y0148327D01*
X0012450Y0148202D01*
X0012313Y0148075D01*
X0012179Y0147944D01*
X0004729Y0140494D02*
X0004563Y0140324D01*
X0004400Y0140150D01*
X0004243Y0139972D01*
X0004089Y0139790D01*
X0003939Y0139605D01*
X0003795Y0139416D01*
X0003654Y0139224D01*
X0003519Y0139028D01*
X0003387Y0138829D01*
X0003261Y0138628D01*
X0003140Y0138423D01*
X0003023Y0138215D01*
X0002912Y0138005D01*
X0002805Y0137792D01*
X0002704Y0137577D01*
X0002607Y0137360D01*
X0002516Y0137140D01*
X0002431Y0136918D01*
X0002350Y0136694D01*
X0002275Y0136468D01*
X0002205Y0136240D01*
X0002141Y0136011D01*
X0002082Y0135781D01*
X0002029Y0135549D01*
X0001981Y0135316D01*
X0001938Y0135081D01*
X0001902Y0134846D01*
X0001871Y0134610D01*
X0001845Y0134374D01*
X0001825Y0134136D01*
X0001811Y0133899D01*
X0001803Y0133661D01*
X0001800Y0133423D01*
M02*
