G75*
%MOIN*%
%OFA0B0*%
%FSLAX24Y24*%
%IPPOS*%
%LPD*%
%AMOC8*
5,1,8,0,0,1.08239X$1,22.5*
%
%ADD10C,0.0160*%
%ADD11C,0.0080*%
D10*
X000681Y001180D02*
X000681Y009917D01*
X000955Y010514D02*
X003536Y012737D01*
X003673Y013035D02*
X003673Y013086D01*
X003673Y013035D02*
X003671Y012997D01*
X003666Y012960D01*
X003657Y012924D01*
X003645Y012888D01*
X003629Y012854D01*
X003610Y012821D01*
X003588Y012791D01*
X003563Y012762D01*
X003536Y012736D01*
X003673Y013086D02*
X003675Y013130D01*
X003681Y013173D01*
X003690Y013215D01*
X003703Y013257D01*
X003720Y013297D01*
X003740Y013336D01*
X003763Y013373D01*
X003790Y013407D01*
X003819Y013440D01*
X003852Y013469D01*
X003886Y013496D01*
X003923Y013519D01*
X003962Y013539D01*
X004002Y013556D01*
X004044Y013569D01*
X004086Y013578D01*
X004129Y013584D01*
X004173Y013586D01*
X006992Y013586D01*
X007036Y013584D01*
X007079Y013578D01*
X007121Y013569D01*
X007163Y013556D01*
X007203Y013539D01*
X007242Y013519D01*
X007279Y013496D01*
X007313Y013469D01*
X007346Y013440D01*
X007375Y013407D01*
X007402Y013373D01*
X007425Y013336D01*
X007445Y013297D01*
X007462Y013257D01*
X007475Y013215D01*
X007484Y013173D01*
X007490Y013130D01*
X007492Y013086D01*
X007492Y013004D01*
X007636Y012700D02*
X010295Y010515D01*
X010583Y009906D02*
X010583Y001180D01*
X010581Y001120D01*
X010576Y001059D01*
X010567Y001000D01*
X010554Y000941D01*
X010538Y000882D01*
X010518Y000825D01*
X010495Y000770D01*
X010468Y000715D01*
X010439Y000663D01*
X010406Y000612D01*
X010370Y000563D01*
X010332Y000517D01*
X010290Y000473D01*
X010246Y000431D01*
X010200Y000393D01*
X010151Y000357D01*
X010100Y000324D01*
X010048Y000295D01*
X009993Y000268D01*
X009938Y000245D01*
X009881Y000225D01*
X009822Y000209D01*
X009763Y000196D01*
X009704Y000187D01*
X009643Y000182D01*
X009583Y000180D01*
X001681Y000180D01*
X001621Y000182D01*
X001560Y000187D01*
X001501Y000196D01*
X001442Y000209D01*
X001383Y000225D01*
X001326Y000245D01*
X001271Y000268D01*
X001216Y000295D01*
X001164Y000324D01*
X001113Y000357D01*
X001064Y000393D01*
X001018Y000431D01*
X000974Y000473D01*
X000932Y000517D01*
X000894Y000563D01*
X000858Y000612D01*
X000825Y000663D01*
X000796Y000715D01*
X000769Y000770D01*
X000746Y000825D01*
X000726Y000882D01*
X000710Y000941D01*
X000697Y001000D01*
X000688Y001059D01*
X000683Y001120D01*
X000681Y001180D01*
X010582Y009906D02*
X010580Y009959D01*
X010575Y010013D01*
X010566Y010065D01*
X010553Y010117D01*
X010537Y010168D01*
X010518Y010218D01*
X010495Y010266D01*
X010469Y010313D01*
X010439Y010358D01*
X010407Y010400D01*
X010372Y010441D01*
X010335Y010479D01*
X010295Y010514D01*
X007636Y012700D02*
X007607Y012726D01*
X007581Y012754D01*
X007558Y012785D01*
X007538Y012818D01*
X007522Y012853D01*
X007509Y012890D01*
X007500Y012927D01*
X007494Y012965D01*
X007492Y013004D01*
X000955Y010513D02*
X000916Y010478D01*
X000880Y010440D01*
X000847Y010400D01*
X000816Y010358D01*
X000789Y010314D01*
X000764Y010269D01*
X000742Y010221D01*
X000724Y010173D01*
X000708Y010123D01*
X000696Y010072D01*
X000688Y010021D01*
X000683Y009969D01*
X000681Y009917D01*
D11*
X000799Y010200D02*
X001783Y010200D01*
X001783Y002129D01*
X000799Y002129D01*
X000799Y010200D01*
X009500Y010200D02*
X010484Y010200D01*
X010484Y002129D01*
X009500Y002129D01*
X009500Y010200D01*
M02*
