%
M48
M72
T01C0.0118
T02C0.0236
T03C0.0315
%
T01
X2079Y2404
X3693Y1105
X5268Y4235
X3437Y5003
X1960Y7188
X3397Y9688
X3791Y9688
X4106Y9924
X4106Y10337
X4067Y10731
X4441Y10751
X4815Y10751
X5209Y10771
X5622Y10830
X5897Y11125
X5976Y11519
X5169Y11519
X4795Y11519
X4401Y11519
X4008Y11519
X3634Y11400
X3358Y11125
X3220Y10751
X3063Y10397
X3102Y9963
X5622Y8467
X6134Y8467
X6606Y8467
X7098Y8467
X7590Y7700
X8083Y6637
X9303Y6204
X9067Y4806
T02
X9067Y1105
X9559Y1105
X8575Y1105
X8083Y1105
X7590Y1105
X7098Y1105
X6606Y1105
X6114Y1105
X5622Y1105
T03
X9992Y2621
X9992Y3408
X9992Y4196
X9992Y4983
X9992Y5771
X9992Y6558
X9992Y7345
X9992Y8133
X9992Y8920
X9992Y9708
X1272Y9708
X1272Y8920
X1272Y8133
X1272Y7345
X1272Y6558
X1272Y5771
X1272Y4983
X1272Y4196
X1272Y3408
X1272Y2621
M30
