%
M48
M72
T01C0.0118
T02C0.0157
T03C0.0236
T04C0.0276
T05C0.0394
%
T01
X2905Y6525
X3405Y7000
X1630Y7475
X2930Y10525
X3830Y12300
X3830Y12750
X3005Y12750
X3005Y12325
X5430Y11075
X7430Y11075
X7980Y10525
X7980Y9525
X7980Y8525
X7980Y7525
X7980Y6525
X8880Y5525
X7967Y4525
T02
X8880Y2400
T03
X1005Y2375
X1542Y2375
X2080Y2375
X2617Y2375
X3155Y2375
X3692Y2375
X4229Y2375
X4767Y2375
X5304Y2375
X5842Y2375
T04
X9436Y3729
X9436Y4516
X9436Y5304
X9436Y6091
X9436Y6878
X9436Y7666
X9436Y8453
X9436Y9241
X9436Y10028
X9436Y10815
X774Y10815
X774Y10028
X774Y9241
X774Y8453
X774Y7666
X774Y6878
X774Y6091
X774Y5304
X774Y4516
X774Y3729
T05
X3430Y14100
M30
