G75*
%MOIN*%
%OFA0B0*%
%FSLAX25Y25*%
%IPPOS*%
%LPD*%
%AMOC8*
5,1,8,0,0,1.08239X$1,22.5*
%
%ADD10C,0.01000*%
%ADD11C,0.00800*%
%ADD12C,0.00600*%
%ADD13C,0.01200*%
%ADD14C,0.01100*%
%ADD15R,0.02362X0.01181*%
%ADD16R,0.02000X0.02000*%
D10*
X0006800Y0015250D02*
X0095300Y0015250D01*
X0094800Y0020000D02*
X0088800Y0020000D01*
X0088740Y0020002D01*
X0088679Y0020007D01*
X0088620Y0020016D01*
X0088561Y0020029D01*
X0088502Y0020045D01*
X0088445Y0020065D01*
X0088390Y0020088D01*
X0088335Y0020115D01*
X0088283Y0020144D01*
X0088232Y0020177D01*
X0088183Y0020213D01*
X0088137Y0020251D01*
X0088093Y0020293D01*
X0088051Y0020337D01*
X0088013Y0020383D01*
X0087977Y0020432D01*
X0087944Y0020483D01*
X0087915Y0020535D01*
X0087888Y0020590D01*
X0087865Y0020645D01*
X0087845Y0020702D01*
X0087829Y0020761D01*
X0087816Y0020820D01*
X0087807Y0020879D01*
X0087802Y0020940D01*
X0087800Y0021000D01*
X0087800Y0027000D02*
X0087802Y0027060D01*
X0087807Y0027121D01*
X0087816Y0027180D01*
X0087829Y0027239D01*
X0087845Y0027298D01*
X0087865Y0027355D01*
X0087888Y0027410D01*
X0087915Y0027465D01*
X0087944Y0027517D01*
X0087977Y0027568D01*
X0088013Y0027617D01*
X0088051Y0027663D01*
X0088093Y0027707D01*
X0088137Y0027749D01*
X0088183Y0027787D01*
X0088232Y0027823D01*
X0088283Y0027856D01*
X0088335Y0027885D01*
X0088390Y0027912D01*
X0088445Y0027935D01*
X0088502Y0027955D01*
X0088561Y0027971D01*
X0088620Y0027984D01*
X0088679Y0027993D01*
X0088740Y0027998D01*
X0088800Y0028000D01*
X0094800Y0028000D01*
X0094860Y0027998D01*
X0094921Y0027993D01*
X0094980Y0027984D01*
X0095039Y0027971D01*
X0095098Y0027955D01*
X0095155Y0027935D01*
X0095210Y0027912D01*
X0095265Y0027885D01*
X0095317Y0027856D01*
X0095368Y0027823D01*
X0095417Y0027787D01*
X0095463Y0027749D01*
X0095507Y0027707D01*
X0095549Y0027663D01*
X0095587Y0027617D01*
X0095623Y0027568D01*
X0095656Y0027517D01*
X0095685Y0027465D01*
X0095712Y0027410D01*
X0095735Y0027355D01*
X0095755Y0027298D01*
X0095771Y0027239D01*
X0095784Y0027180D01*
X0095793Y0027121D01*
X0095798Y0027060D01*
X0095800Y0027000D01*
X0095800Y0021000D02*
X0095798Y0020940D01*
X0095793Y0020879D01*
X0095784Y0020820D01*
X0095771Y0020761D01*
X0095755Y0020702D01*
X0095735Y0020645D01*
X0095712Y0020590D01*
X0095685Y0020535D01*
X0095656Y0020483D01*
X0095623Y0020432D01*
X0095587Y0020383D01*
X0095549Y0020337D01*
X0095507Y0020293D01*
X0095463Y0020251D01*
X0095417Y0020213D01*
X0095368Y0020177D01*
X0095317Y0020144D01*
X0095265Y0020115D01*
X0095210Y0020088D01*
X0095155Y0020065D01*
X0095098Y0020045D01*
X0095039Y0020029D01*
X0094980Y0020016D01*
X0094921Y0020007D01*
X0094860Y0020002D01*
X0094800Y0020000D01*
X0095300Y0015250D02*
X0095440Y0015252D01*
X0095580Y0015258D01*
X0095720Y0015268D01*
X0095860Y0015281D01*
X0095999Y0015299D01*
X0096138Y0015321D01*
X0096275Y0015346D01*
X0096413Y0015375D01*
X0096549Y0015408D01*
X0096684Y0015445D01*
X0096818Y0015486D01*
X0096951Y0015531D01*
X0097083Y0015579D01*
X0097213Y0015631D01*
X0097342Y0015686D01*
X0097469Y0015745D01*
X0097595Y0015808D01*
X0097719Y0015874D01*
X0097840Y0015943D01*
X0097960Y0016016D01*
X0098078Y0016093D01*
X0098193Y0016172D01*
X0098307Y0016255D01*
X0098417Y0016341D01*
X0098526Y0016430D01*
X0098632Y0016522D01*
X0098735Y0016617D01*
X0098836Y0016714D01*
X0098933Y0016815D01*
X0099028Y0016918D01*
X0099120Y0017024D01*
X0099209Y0017133D01*
X0099295Y0017243D01*
X0099378Y0017357D01*
X0099457Y0017472D01*
X0099534Y0017590D01*
X0099607Y0017710D01*
X0099676Y0017831D01*
X0099742Y0017955D01*
X0099805Y0018081D01*
X0099864Y0018208D01*
X0099919Y0018337D01*
X0099971Y0018467D01*
X0100019Y0018599D01*
X0100064Y0018732D01*
X0100105Y0018866D01*
X0100142Y0019001D01*
X0100175Y0019137D01*
X0100204Y0019275D01*
X0100229Y0019412D01*
X0100251Y0019551D01*
X0100269Y0019690D01*
X0100282Y0019830D01*
X0100292Y0019970D01*
X0100298Y0020110D01*
X0100300Y0020250D01*
X0100300Y0109891D01*
X0096515Y0117725D02*
X0057672Y0148544D01*
X0052778Y0150250D02*
X0017747Y0150250D01*
X0012179Y0147944D02*
X0004729Y0140494D01*
X0001800Y0133423D02*
X0001800Y0020250D01*
X0001802Y0020110D01*
X0001808Y0019970D01*
X0001818Y0019830D01*
X0001831Y0019690D01*
X0001849Y0019551D01*
X0001871Y0019412D01*
X0001896Y0019275D01*
X0001925Y0019137D01*
X0001958Y0019001D01*
X0001995Y0018866D01*
X0002036Y0018732D01*
X0002081Y0018599D01*
X0002129Y0018467D01*
X0002181Y0018337D01*
X0002236Y0018208D01*
X0002295Y0018081D01*
X0002358Y0017955D01*
X0002424Y0017831D01*
X0002493Y0017710D01*
X0002566Y0017590D01*
X0002643Y0017472D01*
X0002722Y0017357D01*
X0002805Y0017243D01*
X0002891Y0017133D01*
X0002980Y0017024D01*
X0003072Y0016918D01*
X0003167Y0016815D01*
X0003264Y0016714D01*
X0003365Y0016617D01*
X0003468Y0016522D01*
X0003574Y0016430D01*
X0003683Y0016341D01*
X0003793Y0016255D01*
X0003907Y0016172D01*
X0004022Y0016093D01*
X0004140Y0016016D01*
X0004260Y0015943D01*
X0004381Y0015874D01*
X0004505Y0015808D01*
X0004631Y0015745D01*
X0004758Y0015686D01*
X0004887Y0015631D01*
X0005017Y0015579D01*
X0005149Y0015531D01*
X0005282Y0015486D01*
X0005416Y0015445D01*
X0005551Y0015408D01*
X0005687Y0015375D01*
X0005825Y0015346D01*
X0005962Y0015321D01*
X0006101Y0015299D01*
X0006240Y0015281D01*
X0006380Y0015268D01*
X0006520Y0015258D01*
X0006660Y0015252D01*
X0006800Y0015250D01*
X0100300Y0109891D02*
X0100297Y0110134D01*
X0100288Y0110377D01*
X0100273Y0110620D01*
X0100253Y0110863D01*
X0100226Y0111104D01*
X0100194Y0111345D01*
X0100155Y0111586D01*
X0100111Y0111825D01*
X0100061Y0112063D01*
X0100006Y0112300D01*
X0099944Y0112535D01*
X0099877Y0112769D01*
X0099804Y0113001D01*
X0099726Y0113231D01*
X0099642Y0113460D01*
X0099552Y0113686D01*
X0099457Y0113910D01*
X0099357Y0114131D01*
X0099251Y0114350D01*
X0099140Y0114567D01*
X0099023Y0114780D01*
X0098902Y0114991D01*
X0098775Y0115199D01*
X0098644Y0115403D01*
X0098507Y0115605D01*
X0098366Y0115803D01*
X0098219Y0115997D01*
X0098069Y0116188D01*
X0097913Y0116375D01*
X0097753Y0116558D01*
X0097589Y0116737D01*
X0097420Y0116913D01*
X0097247Y0117084D01*
X0097070Y0117251D01*
X0096889Y0117413D01*
X0096704Y0117571D01*
X0096515Y0117725D01*
X0057672Y0148544D02*
X0057523Y0148660D01*
X0057371Y0148772D01*
X0057217Y0148880D01*
X0057060Y0148984D01*
X0056900Y0149085D01*
X0056738Y0149182D01*
X0056574Y0149275D01*
X0056408Y0149364D01*
X0056239Y0149448D01*
X0056069Y0149529D01*
X0055897Y0149606D01*
X0055723Y0149679D01*
X0055547Y0149747D01*
X0055369Y0149811D01*
X0055191Y0149871D01*
X0055010Y0149927D01*
X0054829Y0149978D01*
X0054646Y0150025D01*
X0054462Y0150068D01*
X0054278Y0150106D01*
X0054092Y0150140D01*
X0053906Y0150169D01*
X0053719Y0150194D01*
X0053531Y0150214D01*
X0053343Y0150230D01*
X0053155Y0150241D01*
X0052967Y0150248D01*
X0052778Y0150250D01*
X0017747Y0150250D02*
X0017560Y0150248D01*
X0017372Y0150241D01*
X0017185Y0150230D01*
X0016999Y0150214D01*
X0016812Y0150194D01*
X0016626Y0150170D01*
X0016441Y0150141D01*
X0016257Y0150108D01*
X0016073Y0150070D01*
X0015891Y0150028D01*
X0015709Y0149982D01*
X0015529Y0149931D01*
X0015349Y0149876D01*
X0015172Y0149817D01*
X0014995Y0149754D01*
X0014821Y0149686D01*
X0014647Y0149614D01*
X0014476Y0149538D01*
X0014306Y0149459D01*
X0014139Y0149375D01*
X0013973Y0149287D01*
X0013810Y0149195D01*
X0013649Y0149099D01*
X0013490Y0149000D01*
X0013334Y0148897D01*
X0013180Y0148790D01*
X0013028Y0148679D01*
X0012880Y0148565D01*
X0012734Y0148448D01*
X0012591Y0148327D01*
X0012450Y0148202D01*
X0012313Y0148075D01*
X0012179Y0147944D01*
X0004729Y0140494D02*
X0004563Y0140324D01*
X0004400Y0140150D01*
X0004243Y0139972D01*
X0004089Y0139790D01*
X0003939Y0139605D01*
X0003795Y0139416D01*
X0003654Y0139224D01*
X0003519Y0139028D01*
X0003387Y0138829D01*
X0003261Y0138628D01*
X0003140Y0138423D01*
X0003023Y0138215D01*
X0002912Y0138005D01*
X0002805Y0137792D01*
X0002704Y0137577D01*
X0002607Y0137360D01*
X0002516Y0137140D01*
X0002431Y0136918D01*
X0002350Y0136694D01*
X0002275Y0136468D01*
X0002205Y0136240D01*
X0002141Y0136011D01*
X0002082Y0135781D01*
X0002029Y0135549D01*
X0001981Y0135316D01*
X0001938Y0135081D01*
X0001902Y0134846D01*
X0001871Y0134610D01*
X0001845Y0134374D01*
X0001825Y0134136D01*
X0001811Y0133899D01*
X0001803Y0133661D01*
X0001800Y0133423D01*
D11*
X0072638Y0026104D02*
X0075441Y0026104D01*
X0077242Y0026104D02*
X0079344Y0026104D01*
X0080045Y0025403D01*
X0080045Y0024002D01*
X0079344Y0023301D01*
X0077242Y0023301D01*
X0077242Y0021900D02*
X0077242Y0026104D01*
X0078643Y0023301D02*
X0080045Y0021900D01*
X0081846Y0022601D02*
X0082547Y0021900D01*
X0083948Y0021900D01*
X0084648Y0022601D01*
X0084648Y0025403D01*
X0083948Y0026104D01*
X0082547Y0026104D01*
X0081846Y0025403D01*
X0081846Y0022601D01*
X0083247Y0023301D02*
X0084648Y0021900D01*
X0074039Y0024002D02*
X0072638Y0024002D01*
X0072638Y0021900D02*
X0072638Y0026104D01*
D12*
X0018003Y0041316D02*
X0014600Y0041316D01*
X0014600Y0042450D02*
X0014600Y0040181D01*
X0016869Y0042450D02*
X0018003Y0041316D01*
X0017436Y0043865D02*
X0018003Y0044432D01*
X0018003Y0045566D01*
X0017436Y0046133D01*
X0015167Y0046133D01*
X0014600Y0045566D01*
X0014600Y0044432D01*
X0015167Y0043865D01*
X0015418Y0051785D02*
X0015418Y0053715D01*
X0017182Y0053715D02*
X0017182Y0051785D01*
X0017436Y0069931D02*
X0018003Y0070499D01*
X0018003Y0071633D01*
X0017436Y0072200D01*
X0017436Y0073615D02*
X0016301Y0073615D01*
X0015734Y0074182D01*
X0015734Y0075883D01*
X0014600Y0075883D02*
X0018003Y0075883D01*
X0018003Y0074182D01*
X0017436Y0073615D01*
X0015734Y0074749D02*
X0014600Y0073615D01*
X0014600Y0072200D02*
X0016869Y0069931D01*
X0017436Y0069931D01*
X0014600Y0069931D02*
X0014600Y0072200D01*
X0015418Y0081785D02*
X0015418Y0083715D01*
X0017182Y0083715D02*
X0017182Y0081785D01*
X0017182Y0096535D02*
X0017182Y0098465D01*
X0015418Y0098465D02*
X0015418Y0096535D01*
X0014600Y0103681D02*
X0014600Y0105950D01*
X0014600Y0104816D02*
X0018003Y0104816D01*
X0016869Y0105950D01*
X0017436Y0107365D02*
X0016301Y0107365D01*
X0015734Y0107932D01*
X0015734Y0109633D01*
X0014600Y0109633D02*
X0018003Y0109633D01*
X0018003Y0107932D01*
X0017436Y0107365D01*
X0015734Y0108499D02*
X0014600Y0107365D01*
X0011734Y0031703D02*
X0010600Y0030569D01*
X0011734Y0031703D02*
X0011734Y0028300D01*
X0010600Y0028300D02*
X0012869Y0028300D01*
X0009185Y0031703D02*
X0008051Y0031703D01*
X0008618Y0031703D02*
X0008618Y0028867D01*
X0008051Y0028300D01*
X0007484Y0028300D01*
X0006917Y0028867D01*
D13*
X0024300Y0035250D02*
X0029300Y0035250D01*
X0024300Y0035250D02*
X0024300Y0040250D01*
X0031210Y0100250D02*
X0031212Y0100399D01*
X0031218Y0100549D01*
X0031228Y0100698D01*
X0031242Y0100847D01*
X0031260Y0100995D01*
X0031282Y0101143D01*
X0031308Y0101290D01*
X0031337Y0101437D01*
X0031371Y0101582D01*
X0031409Y0101727D01*
X0031450Y0101870D01*
X0031495Y0102013D01*
X0031544Y0102154D01*
X0031597Y0102294D01*
X0031654Y0102432D01*
X0031714Y0102569D01*
X0031778Y0102704D01*
X0031845Y0102838D01*
X0031916Y0102969D01*
X0031990Y0103099D01*
X0032068Y0103226D01*
X0032149Y0103352D01*
X0032234Y0103475D01*
X0032322Y0103596D01*
X0032413Y0103714D01*
X0032507Y0103830D01*
X0032604Y0103944D01*
X0032705Y0104055D01*
X0032808Y0104163D01*
X0032914Y0104268D01*
X0033023Y0104371D01*
X0033134Y0104470D01*
X0033248Y0104567D01*
X0033365Y0104660D01*
X0033484Y0104750D01*
X0033606Y0104837D01*
X0033729Y0104921D01*
X0033855Y0105002D01*
X0033983Y0105079D01*
X0034114Y0105152D01*
X0034246Y0105222D01*
X0034379Y0105289D01*
X0034515Y0105352D01*
X0034652Y0105411D01*
X0034791Y0105466D01*
X0034931Y0105518D01*
X0035073Y0105566D01*
X0035215Y0105611D01*
X0035359Y0105651D01*
X0035504Y0105688D01*
X0035650Y0105720D01*
X0035797Y0105749D01*
X0035944Y0105774D01*
X0036092Y0105795D01*
X0036240Y0105812D01*
X0036389Y0105825D01*
X0036539Y0105834D01*
X0036688Y0105839D01*
X0036837Y0105840D01*
X0036987Y0105837D01*
X0037136Y0105830D01*
X0037285Y0105819D01*
X0037434Y0105804D01*
X0037582Y0105785D01*
X0037730Y0105762D01*
X0037877Y0105735D01*
X0038023Y0105705D01*
X0038168Y0105670D01*
X0038313Y0105631D01*
X0038456Y0105589D01*
X0038598Y0105543D01*
X0038739Y0105493D01*
X0038879Y0105439D01*
X0039017Y0105382D01*
X0039153Y0105321D01*
X0039288Y0105256D01*
X0039421Y0105188D01*
X0039552Y0105116D01*
X0039681Y0105040D01*
X0039808Y0104962D01*
X0039933Y0104880D01*
X0040055Y0104794D01*
X0040176Y0104706D01*
X0040294Y0104614D01*
X0040409Y0104519D01*
X0040522Y0104421D01*
X0040632Y0104320D01*
X0040739Y0104216D01*
X0040844Y0104109D01*
X0040946Y0104000D01*
X0041045Y0103888D01*
X0041140Y0103773D01*
X0041233Y0103655D01*
X0041322Y0103536D01*
X0041409Y0103414D01*
X0041492Y0103289D01*
X0041571Y0103163D01*
X0041647Y0103034D01*
X0041720Y0102904D01*
X0041789Y0102771D01*
X0041855Y0102637D01*
X0041917Y0102501D01*
X0041975Y0102363D01*
X0042030Y0102224D01*
X0042081Y0102084D01*
X0042128Y0101942D01*
X0042171Y0101799D01*
X0042211Y0101655D01*
X0042246Y0101509D01*
X0042278Y0101363D01*
X0042306Y0101217D01*
X0042330Y0101069D01*
X0042350Y0100921D01*
X0042366Y0100772D01*
X0042378Y0100623D01*
X0042386Y0100474D01*
X0042390Y0100325D01*
X0042390Y0100175D01*
X0042386Y0100026D01*
X0042378Y0099877D01*
X0042366Y0099728D01*
X0042350Y0099579D01*
X0042330Y0099431D01*
X0042306Y0099283D01*
X0042278Y0099137D01*
X0042246Y0098991D01*
X0042211Y0098845D01*
X0042171Y0098701D01*
X0042128Y0098558D01*
X0042081Y0098416D01*
X0042030Y0098276D01*
X0041975Y0098137D01*
X0041917Y0097999D01*
X0041855Y0097863D01*
X0041789Y0097729D01*
X0041720Y0097596D01*
X0041647Y0097466D01*
X0041571Y0097337D01*
X0041492Y0097211D01*
X0041409Y0097086D01*
X0041322Y0096964D01*
X0041233Y0096845D01*
X0041140Y0096727D01*
X0041045Y0096612D01*
X0040946Y0096500D01*
X0040844Y0096391D01*
X0040739Y0096284D01*
X0040632Y0096180D01*
X0040522Y0096079D01*
X0040409Y0095981D01*
X0040294Y0095886D01*
X0040176Y0095794D01*
X0040055Y0095706D01*
X0039933Y0095620D01*
X0039808Y0095538D01*
X0039681Y0095460D01*
X0039552Y0095384D01*
X0039421Y0095312D01*
X0039288Y0095244D01*
X0039153Y0095179D01*
X0039017Y0095118D01*
X0038879Y0095061D01*
X0038739Y0095007D01*
X0038598Y0094957D01*
X0038456Y0094911D01*
X0038313Y0094869D01*
X0038168Y0094830D01*
X0038023Y0094795D01*
X0037877Y0094765D01*
X0037730Y0094738D01*
X0037582Y0094715D01*
X0037434Y0094696D01*
X0037285Y0094681D01*
X0037136Y0094670D01*
X0036987Y0094663D01*
X0036837Y0094660D01*
X0036688Y0094661D01*
X0036539Y0094666D01*
X0036389Y0094675D01*
X0036240Y0094688D01*
X0036092Y0094705D01*
X0035944Y0094726D01*
X0035797Y0094751D01*
X0035650Y0094780D01*
X0035504Y0094812D01*
X0035359Y0094849D01*
X0035215Y0094889D01*
X0035073Y0094934D01*
X0034931Y0094982D01*
X0034791Y0095034D01*
X0034652Y0095089D01*
X0034515Y0095148D01*
X0034379Y0095211D01*
X0034246Y0095278D01*
X0034114Y0095348D01*
X0033983Y0095421D01*
X0033855Y0095498D01*
X0033729Y0095579D01*
X0033606Y0095663D01*
X0033484Y0095750D01*
X0033365Y0095840D01*
X0033248Y0095933D01*
X0033134Y0096030D01*
X0033023Y0096129D01*
X0032914Y0096232D01*
X0032808Y0096337D01*
X0032705Y0096445D01*
X0032604Y0096556D01*
X0032507Y0096670D01*
X0032413Y0096786D01*
X0032322Y0096904D01*
X0032234Y0097025D01*
X0032149Y0097148D01*
X0032068Y0097274D01*
X0031990Y0097401D01*
X0031916Y0097531D01*
X0031845Y0097662D01*
X0031778Y0097796D01*
X0031714Y0097931D01*
X0031654Y0098068D01*
X0031597Y0098206D01*
X0031544Y0098346D01*
X0031495Y0098487D01*
X0031450Y0098630D01*
X0031409Y0098773D01*
X0031371Y0098918D01*
X0031337Y0099063D01*
X0031308Y0099210D01*
X0031282Y0099357D01*
X0031260Y0099505D01*
X0031242Y0099653D01*
X0031228Y0099802D01*
X0031218Y0099951D01*
X0031212Y0100101D01*
X0031210Y0100250D01*
X0024300Y0110250D02*
X0024300Y0115250D01*
X0029300Y0115250D01*
X0079300Y0115250D02*
X0084300Y0115250D01*
X0084300Y0110250D01*
X0084300Y0040250D02*
X0084300Y0035250D01*
X0079300Y0035250D01*
D14*
X0038255Y0044559D02*
X0037271Y0043575D01*
X0038255Y0044559D02*
X0038255Y0046528D01*
X0037271Y0047512D01*
X0033334Y0047512D01*
X0032350Y0046528D01*
X0032350Y0044559D01*
X0033334Y0043575D01*
X0032350Y0049841D02*
X0032350Y0051809D01*
X0032350Y0050825D02*
X0038255Y0050825D01*
X0038255Y0051809D02*
X0038255Y0049841D01*
X0037271Y0054318D02*
X0035303Y0054318D01*
X0034318Y0055302D01*
X0034318Y0058255D01*
X0034318Y0056286D02*
X0032350Y0054318D01*
X0032350Y0058255D02*
X0038255Y0058255D01*
X0038255Y0055302D01*
X0037271Y0054318D01*
X0035303Y0060763D02*
X0034318Y0060763D01*
X0034318Y0064700D01*
X0033334Y0064700D02*
X0035303Y0064700D01*
X0036287Y0063716D01*
X0036287Y0061747D01*
X0035303Y0060763D01*
X0032350Y0061747D02*
X0032350Y0063716D01*
X0033334Y0064700D01*
D15*
X0016319Y0054359D03*
X0016319Y0051159D03*
X0016281Y0081141D03*
X0016281Y0084341D03*
X0016281Y0095891D03*
X0016281Y0099091D03*
D16*
X0015424Y0023750D03*
X0010050Y0023750D03*
X0020798Y0023750D03*
X0026172Y0023750D03*
X0031546Y0023750D03*
X0036920Y0023750D03*
X0042294Y0023750D03*
X0047668Y0023750D03*
X0053042Y0023750D03*
X0058416Y0023750D03*
M02*
