G75*
%MOIN*%
%OFA0B0*%
%FSLAX25Y25*%
%IPPOS*%
%LPD*%
%AMOC8*
5,1,8,0,0,1.08239X$1,22.5*
%
%ADD10C,0.05600*%
%ADD11R,0.05600X0.05600*%
%ADD12C,0.05000*%
%ADD13R,0.02500X0.05000*%
%ADD14R,0.06000X0.16000*%
%ADD15R,0.03543X0.02756*%
%ADD16R,0.03762X0.03762*%
%ADD17C,0.03762*%
%ADD18C,0.02581*%
%ADD19C,0.01600*%
%ADD20C,0.02400*%
%ADD21C,0.01200*%
%ADD22C,0.01000*%
%ADD23C,0.02975*%
%ADD24C,0.05906*%
D10*
X0007743Y0037287D03*
X0007743Y0045161D03*
X0007743Y0053035D03*
X0007743Y0060909D03*
X0007743Y0068783D03*
X0007743Y0076657D03*
X0007743Y0084531D03*
X0007743Y0092406D03*
X0007743Y0100280D03*
X0094357Y0100280D03*
X0094357Y0092406D03*
X0094357Y0084531D03*
X0094357Y0076657D03*
X0094357Y0068783D03*
X0094357Y0060909D03*
X0094357Y0053035D03*
X0094357Y0045161D03*
X0094357Y0037287D03*
X0094357Y0108154D03*
D11*
X0007743Y0108154D03*
D12*
X0024300Y0105250D03*
X0024300Y0095250D03*
X0024300Y0085250D03*
X0024300Y0075250D03*
X0024300Y0065250D03*
X0024300Y0055250D03*
X0024300Y0045250D03*
X0034300Y0035250D03*
X0044300Y0035250D03*
X0054300Y0035250D03*
X0064300Y0035250D03*
X0074300Y0035250D03*
X0084300Y0045250D03*
X0084300Y0055250D03*
X0084300Y0065250D03*
X0084300Y0075250D03*
X0084300Y0085250D03*
X0084300Y0095250D03*
X0084300Y0105250D03*
X0074300Y0115250D03*
X0064300Y0115250D03*
X0054300Y0115250D03*
X0044300Y0115250D03*
X0034300Y0115250D03*
D13*
X0090028Y0024000D03*
X0093572Y0024000D03*
D14*
X0044300Y0141250D03*
X0034300Y0141250D03*
X0024300Y0141250D03*
D15*
X0016300Y0100059D03*
X0016300Y0094941D03*
X0016300Y0085309D03*
X0016300Y0080191D03*
X0016300Y0055309D03*
X0016300Y0050191D03*
D16*
X0010050Y0023750D03*
D17*
X0015424Y0023750D03*
X0020798Y0023750D03*
X0026172Y0023750D03*
X0031546Y0023750D03*
X0036920Y0023750D03*
X0042294Y0023750D03*
X0047668Y0023750D03*
X0053042Y0023750D03*
X0058416Y0023750D03*
D18*
X0079666Y0045250D03*
X0088800Y0055250D03*
X0079800Y0065250D03*
X0079800Y0075250D03*
X0079800Y0085250D03*
X0079800Y0095250D03*
X0079800Y0105250D03*
X0074300Y0110750D03*
X0054300Y0110750D03*
X0038300Y0123000D03*
X0038300Y0127500D03*
X0030050Y0127500D03*
X0030050Y0123250D03*
X0029300Y0105250D03*
X0016300Y0074750D03*
X0029050Y0065250D03*
X0034050Y0070000D03*
D19*
X0006371Y0018092D02*
X0005578Y0018421D01*
X0004971Y0019028D01*
X0004642Y0019821D01*
X0004600Y0020250D01*
X0004600Y0033925D01*
X0004746Y0033779D01*
X0005332Y0033353D01*
X0005977Y0033024D01*
X0006666Y0032801D01*
X0007381Y0032687D01*
X0007743Y0032687D01*
X0008105Y0032687D01*
X0008820Y0032801D01*
X0009509Y0033024D01*
X0010154Y0033353D01*
X0010740Y0033779D01*
X0011252Y0034291D01*
X0011677Y0034876D01*
X0012006Y0035522D01*
X0012230Y0036210D01*
X0012343Y0036925D01*
X0012343Y0037287D01*
X0007743Y0037287D01*
X0007743Y0032687D01*
X0007743Y0037287D01*
X0007743Y0037287D01*
X0007743Y0037287D01*
X0012343Y0037287D01*
X0012343Y0037649D01*
X0012230Y0038365D01*
X0012006Y0039053D01*
X0011677Y0039698D01*
X0011252Y0040284D01*
X0010740Y0040796D01*
X0010154Y0041222D01*
X0009729Y0041438D01*
X0010122Y0041601D01*
X0011303Y0042782D01*
X0011943Y0044326D01*
X0011943Y0045997D01*
X0011303Y0047541D01*
X0010122Y0048722D01*
X0009213Y0049098D01*
X0010122Y0049475D01*
X0011303Y0050656D01*
X0011943Y0052200D01*
X0011943Y0053871D01*
X0011303Y0055415D01*
X0010122Y0056596D01*
X0009213Y0056972D01*
X0010122Y0057349D01*
X0011303Y0058530D01*
X0011943Y0060074D01*
X0011943Y0061745D01*
X0011303Y0063289D01*
X0010122Y0064470D01*
X0009213Y0064846D01*
X0010122Y0065223D01*
X0011303Y0066404D01*
X0011943Y0067948D01*
X0011943Y0069619D01*
X0011303Y0071163D01*
X0010122Y0072344D01*
X0009213Y0072720D01*
X0010122Y0073097D01*
X0011303Y0074278D01*
X0011943Y0075822D01*
X0011943Y0077493D01*
X0011303Y0079037D01*
X0010122Y0080218D01*
X0009213Y0080594D01*
X0010122Y0080971D01*
X0011303Y0082152D01*
X0011943Y0083696D01*
X0011943Y0085367D01*
X0011303Y0086911D01*
X0010122Y0088092D01*
X0009213Y0088468D01*
X0010090Y0088832D01*
X0013128Y0085794D01*
X0013128Y0083351D01*
X0013730Y0082750D01*
X0013128Y0082149D01*
X0013128Y0078233D01*
X0013948Y0077413D01*
X0015698Y0077413D01*
X0014776Y0077031D01*
X0014019Y0076274D01*
X0013609Y0075285D01*
X0013609Y0074215D01*
X0013700Y0073996D01*
X0013700Y0057839D01*
X0013128Y0057267D01*
X0013128Y0053351D01*
X0013453Y0053027D01*
X0013423Y0053009D01*
X0013088Y0052674D01*
X0012851Y0052264D01*
X0012728Y0051806D01*
X0012728Y0050191D01*
X0016300Y0050191D01*
X0019872Y0050191D01*
X0019872Y0051806D01*
X0019749Y0052264D01*
X0019526Y0052650D01*
X0021385Y0052650D01*
X0022091Y0051944D01*
X0023524Y0051350D01*
X0025076Y0051350D01*
X0026509Y0051944D01*
X0027606Y0053041D01*
X0028200Y0054474D01*
X0028200Y0056026D01*
X0027606Y0057459D01*
X0026509Y0058556D01*
X0025076Y0059150D01*
X0023524Y0059150D01*
X0022091Y0058556D01*
X0021385Y0057850D01*
X0018900Y0057850D01*
X0018900Y0073996D01*
X0018991Y0074215D01*
X0018991Y0075122D01*
X0019607Y0074506D01*
X0019607Y0074506D01*
X0020145Y0073968D01*
X0020572Y0073541D01*
X0020720Y0073393D01*
X0020848Y0073393D01*
X0020994Y0073041D01*
X0022091Y0071944D01*
X0023524Y0071350D01*
X0025076Y0071350D01*
X0026509Y0071944D01*
X0027606Y0073041D01*
X0028200Y0074474D01*
X0028200Y0076026D01*
X0027606Y0077459D01*
X0026509Y0078556D01*
X0025076Y0079150D01*
X0023524Y0079150D01*
X0022091Y0078556D01*
X0021511Y0077976D01*
X0019472Y0080015D01*
X0019472Y0082149D01*
X0018870Y0082750D01*
X0019472Y0083351D01*
X0019472Y0087267D01*
X0018652Y0088087D01*
X0016209Y0088087D01*
X0011943Y0092353D01*
X0011943Y0093241D01*
X0011303Y0094785D01*
X0010122Y0095966D01*
X0009213Y0096343D01*
X0010122Y0096719D01*
X0011303Y0097900D01*
X0011502Y0098380D01*
X0013128Y0098380D01*
X0013128Y0098101D01*
X0013730Y0097500D01*
X0013128Y0096899D01*
X0013128Y0092983D01*
X0013948Y0092163D01*
X0014700Y0092163D01*
X0014864Y0091999D01*
X0015249Y0091614D01*
X0015806Y0091057D01*
X0020528Y0086335D01*
X0020400Y0086026D01*
X0020400Y0084474D01*
X0020994Y0083041D01*
X0022091Y0081944D01*
X0023524Y0081350D01*
X0025076Y0081350D01*
X0026509Y0081944D01*
X0027606Y0083041D01*
X0028200Y0084474D01*
X0028200Y0086026D01*
X0027606Y0087459D01*
X0026509Y0088556D01*
X0025076Y0089150D01*
X0023524Y0089150D01*
X0023215Y0089022D01*
X0019363Y0092874D01*
X0019472Y0092983D01*
X0019472Y0096899D01*
X0018870Y0097500D01*
X0019472Y0098101D01*
X0019472Y0102017D01*
X0018652Y0102837D01*
X0013948Y0102837D01*
X0013291Y0102180D01*
X0011502Y0102180D01*
X0011303Y0102659D01*
X0010122Y0103840D01*
X0009848Y0103954D01*
X0011123Y0103954D01*
X0011943Y0104774D01*
X0011943Y0111533D01*
X0011123Y0112354D01*
X0004600Y0112354D01*
X0004600Y0133423D01*
X0004662Y0134363D01*
X0005148Y0136178D01*
X0006088Y0137806D01*
X0006709Y0138514D01*
X0014159Y0145964D01*
X0014658Y0146401D01*
X0015805Y0147064D01*
X0017084Y0147407D01*
X0017747Y0147450D01*
X0019500Y0147450D01*
X0019500Y0141950D01*
X0023600Y0141950D01*
X0023600Y0140550D01*
X0025000Y0140550D01*
X0025000Y0141950D01*
X0029100Y0141950D01*
X0029100Y0147450D01*
X0029900Y0147450D01*
X0029900Y0132670D01*
X0030720Y0131850D01*
X0032300Y0131850D01*
X0032300Y0118643D01*
X0032091Y0118556D01*
X0030994Y0117459D01*
X0030400Y0116026D01*
X0030400Y0114474D01*
X0030994Y0113041D01*
X0032091Y0111944D01*
X0033524Y0111350D01*
X0035076Y0111350D01*
X0036509Y0111944D01*
X0037606Y0113041D01*
X0038200Y0114474D01*
X0038200Y0116026D01*
X0037606Y0117459D01*
X0036509Y0118556D01*
X0036300Y0118643D01*
X0036300Y0131850D01*
X0037880Y0131850D01*
X0038700Y0132670D01*
X0038700Y0147450D01*
X0039500Y0147450D01*
X0039500Y0141950D01*
X0043600Y0141950D01*
X0043600Y0140550D01*
X0045000Y0140550D01*
X0045000Y0141950D01*
X0049100Y0141950D01*
X0049100Y0147450D01*
X0052778Y0147450D01*
X0053625Y0147379D01*
X0055224Y0146821D01*
X0055932Y0146351D01*
X0094339Y0115878D01*
X0094339Y0115878D01*
X0094775Y0115532D01*
X0095568Y0114800D01*
X0096783Y0113023D01*
X0097391Y0111060D01*
X0096736Y0111714D01*
X0095193Y0112354D01*
X0093522Y0112354D01*
X0091978Y0111714D01*
X0090796Y0110533D01*
X0090157Y0108989D01*
X0090157Y0107318D01*
X0090796Y0105774D01*
X0091978Y0104593D01*
X0092887Y0104217D01*
X0091978Y0103840D01*
X0090796Y0102659D01*
X0090157Y0101115D01*
X0090157Y0099444D01*
X0090796Y0097900D01*
X0091978Y0096719D01*
X0092887Y0096343D01*
X0091978Y0095966D01*
X0090796Y0094785D01*
X0090157Y0093241D01*
X0090157Y0091570D01*
X0090796Y0090026D01*
X0091978Y0088845D01*
X0092887Y0088468D01*
X0091978Y0088092D01*
X0090796Y0086911D01*
X0090157Y0085367D01*
X0090157Y0083696D01*
X0090796Y0082152D01*
X0091978Y0080971D01*
X0092887Y0080594D01*
X0091978Y0080218D01*
X0090796Y0079037D01*
X0090157Y0077493D01*
X0090157Y0075822D01*
X0090796Y0074278D01*
X0091978Y0073097D01*
X0092887Y0072720D01*
X0091978Y0072344D01*
X0090796Y0071163D01*
X0090157Y0069619D01*
X0090157Y0067948D01*
X0090796Y0066404D01*
X0091978Y0065223D01*
X0092887Y0064846D01*
X0091978Y0064470D01*
X0090796Y0063289D01*
X0090157Y0061745D01*
X0090157Y0060074D01*
X0090796Y0058530D01*
X0091978Y0057349D01*
X0092887Y0056972D01*
X0091978Y0056596D01*
X0091396Y0056014D01*
X0091081Y0056774D01*
X0090324Y0057531D01*
X0089335Y0057941D01*
X0088265Y0057941D01*
X0087459Y0057607D01*
X0086509Y0058556D01*
X0085076Y0059150D01*
X0083524Y0059150D01*
X0082091Y0058556D01*
X0080994Y0057459D01*
X0080400Y0056026D01*
X0080400Y0054474D01*
X0080994Y0053041D01*
X0081885Y0052150D01*
X0071371Y0052150D01*
X0070766Y0052210D01*
X0069649Y0052672D01*
X0069179Y0053058D01*
X0069163Y0053074D01*
X0068623Y0053614D01*
X0068623Y0053614D01*
X0028072Y0094165D01*
X0028200Y0094474D01*
X0028200Y0096026D01*
X0027606Y0097459D01*
X0026509Y0098556D01*
X0025076Y0099150D01*
X0023524Y0099150D01*
X0022091Y0098556D01*
X0020994Y0097459D01*
X0020400Y0096026D01*
X0020400Y0094474D01*
X0020994Y0093041D01*
X0022091Y0091944D01*
X0023524Y0091350D01*
X0025076Y0091350D01*
X0025385Y0091478D01*
X0065936Y0050927D01*
X0066123Y0050740D01*
X0067049Y0049814D01*
X0067463Y0049400D01*
X0069999Y0048350D01*
X0081885Y0048350D01*
X0081102Y0047567D01*
X0080201Y0047941D01*
X0079131Y0047941D01*
X0078142Y0047531D01*
X0077385Y0046774D01*
X0076976Y0045785D01*
X0076976Y0044715D01*
X0077385Y0043726D01*
X0078142Y0042969D01*
X0079131Y0042559D01*
X0080201Y0042559D01*
X0081102Y0042933D01*
X0082091Y0041944D01*
X0083524Y0041350D01*
X0085076Y0041350D01*
X0086509Y0041944D01*
X0087606Y0043041D01*
X0088200Y0044474D01*
X0088200Y0046026D01*
X0087606Y0047459D01*
X0086715Y0048350D01*
X0087638Y0048350D01*
X0088035Y0048311D01*
X0088769Y0048007D01*
X0089078Y0047753D01*
X0089148Y0047683D01*
X0089635Y0047197D01*
X0090356Y0046476D01*
X0090157Y0045997D01*
X0090157Y0044326D01*
X0090796Y0042782D01*
X0091978Y0041601D01*
X0092887Y0041224D01*
X0091978Y0040848D01*
X0090796Y0039666D01*
X0090157Y0038123D01*
X0090157Y0036452D01*
X0090796Y0034908D01*
X0091978Y0033727D01*
X0093522Y0033087D01*
X0095193Y0033087D01*
X0096736Y0033727D01*
X0097500Y0034491D01*
X0097500Y0020250D01*
X0097458Y0019821D01*
X0097129Y0019028D01*
X0096522Y0018421D01*
X0095729Y0018092D01*
X0095300Y0018050D01*
X0006800Y0018050D01*
X0006371Y0018092D01*
X0005051Y0018947D02*
X0097049Y0018947D01*
X0095927Y0020060D02*
X0096262Y0020395D01*
X0096499Y0020805D01*
X0096622Y0021263D01*
X0096622Y0024000D01*
X0096622Y0026737D01*
X0096499Y0027195D01*
X0096262Y0027605D01*
X0095927Y0027940D01*
X0095516Y0028177D01*
X0095059Y0028300D01*
X0093572Y0028300D01*
X0093572Y0024000D01*
X0096622Y0024000D01*
X0093572Y0024000D01*
X0093572Y0024000D01*
X0093572Y0019700D01*
X0095059Y0019700D01*
X0095516Y0019823D01*
X0095927Y0020060D01*
X0096349Y0020546D02*
X0097500Y0020546D01*
X0097500Y0022144D02*
X0096622Y0022144D01*
X0096622Y0023743D02*
X0097500Y0023743D01*
X0097500Y0025341D02*
X0096622Y0025341D01*
X0096567Y0026940D02*
X0097500Y0026940D01*
X0097500Y0028538D02*
X0004600Y0028538D01*
X0004600Y0026940D02*
X0006932Y0026940D01*
X0007064Y0027071D02*
X0006729Y0026736D01*
X0006492Y0026326D01*
X0006369Y0025868D01*
X0006369Y0023750D01*
X0010050Y0023750D01*
X0010050Y0023750D01*
X0010050Y0027431D01*
X0012168Y0027431D01*
X0012626Y0027308D01*
X0013036Y0027071D01*
X0013371Y0026736D01*
X0013517Y0026484D01*
X0013565Y0026532D01*
X0014771Y0027031D01*
X0016077Y0027031D01*
X0017283Y0026532D01*
X0018111Y0025703D01*
X0018939Y0026532D01*
X0020145Y0027031D01*
X0021451Y0027031D01*
X0022657Y0026532D01*
X0023485Y0025703D01*
X0024313Y0026532D01*
X0025519Y0027031D01*
X0026825Y0027031D01*
X0028031Y0026532D01*
X0028859Y0025703D01*
X0029687Y0026532D01*
X0030893Y0027031D01*
X0032199Y0027031D01*
X0033405Y0026532D01*
X0034233Y0025703D01*
X0035061Y0026532D01*
X0036267Y0027031D01*
X0037573Y0027031D01*
X0038779Y0026532D01*
X0039607Y0025703D01*
X0040435Y0026532D01*
X0041641Y0027031D01*
X0042947Y0027031D01*
X0044153Y0026532D01*
X0044981Y0025703D01*
X0045810Y0026532D01*
X0047015Y0027031D01*
X0048321Y0027031D01*
X0049527Y0026532D01*
X0050355Y0025703D01*
X0051184Y0026532D01*
X0052389Y0027031D01*
X0053695Y0027031D01*
X0054901Y0026532D01*
X0055729Y0025703D01*
X0056558Y0026532D01*
X0057763Y0027031D01*
X0059069Y0027031D01*
X0060275Y0026532D01*
X0061198Y0025609D01*
X0061697Y0024403D01*
X0061697Y0023097D01*
X0061198Y0021891D01*
X0060275Y0020968D01*
X0059069Y0020469D01*
X0057763Y0020469D01*
X0056558Y0020968D01*
X0055729Y0021797D01*
X0054901Y0020968D01*
X0053695Y0020469D01*
X0052389Y0020469D01*
X0051184Y0020968D01*
X0050355Y0021797D01*
X0049527Y0020968D01*
X0048321Y0020469D01*
X0047015Y0020469D01*
X0045810Y0020968D01*
X0044981Y0021797D01*
X0044153Y0020968D01*
X0042947Y0020469D01*
X0041641Y0020469D01*
X0040435Y0020968D01*
X0039607Y0021797D01*
X0038779Y0020968D01*
X0037573Y0020469D01*
X0036267Y0020469D01*
X0035061Y0020968D01*
X0034233Y0021797D01*
X0033405Y0020968D01*
X0032199Y0020469D01*
X0030893Y0020469D01*
X0029687Y0020968D01*
X0028859Y0021797D01*
X0028031Y0020968D01*
X0026825Y0020469D01*
X0025519Y0020469D01*
X0024313Y0020968D01*
X0023485Y0021797D01*
X0022657Y0020968D01*
X0021451Y0020469D01*
X0020145Y0020469D01*
X0018939Y0020968D01*
X0018111Y0021797D01*
X0017283Y0020968D01*
X0016077Y0020469D01*
X0014771Y0020469D01*
X0013565Y0020968D01*
X0013517Y0021016D01*
X0013371Y0020764D01*
X0013036Y0020429D01*
X0012626Y0020192D01*
X0012168Y0020069D01*
X0010050Y0020069D01*
X0010050Y0023750D01*
X0010050Y0027431D01*
X0007932Y0027431D01*
X0007474Y0027308D01*
X0007064Y0027071D01*
X0006369Y0025341D02*
X0004600Y0025341D01*
X0004600Y0023743D02*
X0006369Y0023743D01*
X0006369Y0023750D02*
X0006369Y0021632D01*
X0006492Y0021174D01*
X0006729Y0020764D01*
X0007064Y0020429D01*
X0007474Y0020192D01*
X0007932Y0020069D01*
X0010050Y0020069D01*
X0010050Y0023750D01*
X0010050Y0023750D01*
X0010050Y0023750D01*
X0006369Y0023750D01*
X0006369Y0022144D02*
X0004600Y0022144D01*
X0004600Y0020546D02*
X0006947Y0020546D01*
X0010050Y0020546D02*
X0010050Y0020546D01*
X0010050Y0022144D02*
X0010050Y0022144D01*
X0010050Y0023743D02*
X0010050Y0023743D01*
X0010050Y0025341D02*
X0010050Y0025341D01*
X0010050Y0026940D02*
X0010050Y0026940D01*
X0013168Y0026940D02*
X0014550Y0026940D01*
X0016298Y0026940D02*
X0019924Y0026940D01*
X0021672Y0026940D02*
X0025298Y0026940D01*
X0027046Y0026940D02*
X0030672Y0026940D01*
X0032420Y0026940D02*
X0036047Y0026940D01*
X0037794Y0026940D02*
X0041421Y0026940D01*
X0043168Y0026940D02*
X0046795Y0026940D01*
X0048542Y0026940D02*
X0052169Y0026940D01*
X0053916Y0026940D02*
X0057543Y0026940D01*
X0059290Y0026940D02*
X0087378Y0026940D01*
X0087378Y0027080D02*
X0087378Y0026536D01*
X0087164Y0026448D01*
X0086352Y0025636D01*
X0085913Y0024574D01*
X0085913Y0023426D01*
X0086352Y0022364D01*
X0087164Y0021552D01*
X0087378Y0021464D01*
X0087378Y0020920D01*
X0088198Y0020100D01*
X0091176Y0020100D01*
X0091216Y0020060D01*
X0091627Y0019823D01*
X0092085Y0019700D01*
X0093572Y0019700D01*
X0093572Y0024000D01*
X0093572Y0024000D01*
X0093572Y0024000D01*
X0093572Y0028300D01*
X0092085Y0028300D01*
X0091627Y0028177D01*
X0091216Y0027940D01*
X0091176Y0027900D01*
X0088198Y0027900D01*
X0087378Y0027080D01*
X0086230Y0025341D02*
X0061309Y0025341D01*
X0061697Y0023743D02*
X0085913Y0023743D01*
X0086573Y0022144D02*
X0061302Y0022144D01*
X0059254Y0020546D02*
X0087753Y0020546D01*
X0093572Y0020546D02*
X0093572Y0020546D01*
X0093572Y0022144D02*
X0093572Y0022144D01*
X0093572Y0023743D02*
X0093572Y0023743D01*
X0093572Y0025341D02*
X0093572Y0025341D01*
X0093572Y0026940D02*
X0093572Y0026940D01*
X0097500Y0030137D02*
X0004600Y0030137D01*
X0004600Y0031735D02*
X0032594Y0031735D01*
X0032091Y0031944D02*
X0030994Y0033041D01*
X0030400Y0034474D01*
X0030400Y0036026D01*
X0030994Y0037459D01*
X0032091Y0038556D01*
X0033524Y0039150D01*
X0035076Y0039150D01*
X0036509Y0038556D01*
X0037606Y0037459D01*
X0038200Y0036026D01*
X0038200Y0034474D01*
X0037606Y0033041D01*
X0036509Y0031944D01*
X0035076Y0031350D01*
X0033524Y0031350D01*
X0032091Y0031944D01*
X0030872Y0033334D02*
X0010116Y0033334D01*
X0011706Y0034932D02*
X0030400Y0034932D01*
X0030609Y0036531D02*
X0012280Y0036531D01*
X0012267Y0038129D02*
X0031664Y0038129D01*
X0027580Y0042449D02*
X0027978Y0042996D01*
X0028285Y0043599D01*
X0028494Y0044243D01*
X0028582Y0044800D01*
X0024750Y0044800D01*
X0024750Y0045700D01*
X0028582Y0045700D01*
X0028494Y0046257D01*
X0028285Y0046901D01*
X0027978Y0047504D01*
X0027580Y0048051D01*
X0027101Y0048530D01*
X0026554Y0048928D01*
X0025951Y0049235D01*
X0025307Y0049444D01*
X0024750Y0049532D01*
X0024750Y0045700D01*
X0023850Y0045700D01*
X0023850Y0049532D01*
X0023293Y0049444D01*
X0022649Y0049235D01*
X0022046Y0048928D01*
X0021499Y0048530D01*
X0021020Y0048051D01*
X0020622Y0047504D01*
X0020315Y0046901D01*
X0020106Y0046257D01*
X0020018Y0045700D01*
X0023850Y0045700D01*
X0023850Y0044800D01*
X0024750Y0044800D01*
X0024750Y0040968D01*
X0025307Y0041056D01*
X0025951Y0041265D01*
X0026554Y0041572D01*
X0027101Y0041970D01*
X0027580Y0042449D01*
X0027926Y0042925D02*
X0042400Y0042925D01*
X0042400Y0044523D02*
X0028538Y0044523D01*
X0028516Y0046122D02*
X0042400Y0046122D01*
X0042400Y0047720D02*
X0027820Y0047720D01*
X0025693Y0049319D02*
X0042400Y0049319D01*
X0042400Y0050917D02*
X0019872Y0050917D01*
X0019872Y0050191D02*
X0016300Y0050191D01*
X0016300Y0050191D01*
X0016300Y0050191D01*
X0012728Y0050191D01*
X0012728Y0048576D01*
X0012851Y0048118D01*
X0013088Y0047708D01*
X0013423Y0047373D01*
X0013834Y0047136D01*
X0014291Y0047013D01*
X0016300Y0047013D01*
X0018309Y0047013D01*
X0018766Y0047136D01*
X0019177Y0047373D01*
X0019512Y0047708D01*
X0019749Y0048118D01*
X0019872Y0048576D01*
X0019872Y0050191D01*
X0019872Y0049319D02*
X0022907Y0049319D01*
X0023850Y0049319D02*
X0024750Y0049319D01*
X0024750Y0047720D02*
X0023850Y0047720D01*
X0023850Y0046122D02*
X0024750Y0046122D01*
X0024750Y0044523D02*
X0023850Y0044523D01*
X0023850Y0044800D02*
X0023850Y0040968D01*
X0023293Y0041056D01*
X0022649Y0041265D01*
X0022046Y0041572D01*
X0021499Y0041970D01*
X0021020Y0042449D01*
X0020622Y0042996D01*
X0020315Y0043599D01*
X0020106Y0044243D01*
X0020018Y0044800D01*
X0023850Y0044800D01*
X0023850Y0042925D02*
X0024750Y0042925D01*
X0024750Y0041326D02*
X0023850Y0041326D01*
X0022529Y0041326D02*
X0009949Y0041326D01*
X0011362Y0042925D02*
X0020674Y0042925D01*
X0020062Y0044523D02*
X0011943Y0044523D01*
X0011891Y0046122D02*
X0020084Y0046122D01*
X0019519Y0047720D02*
X0020780Y0047720D01*
X0021519Y0052516D02*
X0019603Y0052516D01*
X0016300Y0050191D02*
X0016300Y0047013D01*
X0016300Y0050191D01*
X0016300Y0050191D01*
X0016300Y0049319D02*
X0016300Y0049319D01*
X0016300Y0047720D02*
X0016300Y0047720D01*
X0013081Y0047720D02*
X0011124Y0047720D01*
X0009745Y0049319D02*
X0012728Y0049319D01*
X0012728Y0050917D02*
X0011412Y0050917D01*
X0011943Y0052516D02*
X0012997Y0052516D01*
X0013128Y0054114D02*
X0011842Y0054114D01*
X0011005Y0055713D02*
X0013128Y0055713D01*
X0013173Y0057311D02*
X0010031Y0057311D01*
X0011461Y0058910D02*
X0013700Y0058910D01*
X0013700Y0060508D02*
X0011943Y0060508D01*
X0011793Y0062107D02*
X0013700Y0062107D01*
X0013700Y0063705D02*
X0010887Y0063705D01*
X0010203Y0065304D02*
X0013700Y0065304D01*
X0013700Y0066902D02*
X0011510Y0066902D01*
X0011943Y0068501D02*
X0013700Y0068501D01*
X0013700Y0070099D02*
X0011744Y0070099D01*
X0010768Y0071698D02*
X0013700Y0071698D01*
X0013700Y0073296D02*
X0010322Y0073296D01*
X0011559Y0074895D02*
X0013609Y0074895D01*
X0014238Y0076493D02*
X0011943Y0076493D01*
X0011695Y0078092D02*
X0013269Y0078092D01*
X0013128Y0079690D02*
X0010650Y0079690D01*
X0010440Y0081289D02*
X0013128Y0081289D01*
X0013592Y0082887D02*
X0011608Y0082887D01*
X0011943Y0084486D02*
X0013128Y0084486D01*
X0012838Y0086084D02*
X0011646Y0086084D01*
X0011239Y0087683D02*
X0010531Y0087683D01*
X0013416Y0090880D02*
X0015983Y0090880D01*
X0015806Y0091057D02*
X0015806Y0091057D01*
X0015249Y0091614D02*
X0015249Y0091614D01*
X0013633Y0092479D02*
X0011943Y0092479D01*
X0011597Y0094077D02*
X0013128Y0094077D01*
X0013128Y0095676D02*
X0010413Y0095676D01*
X0010677Y0097274D02*
X0013504Y0097274D01*
X0019096Y0097274D02*
X0020917Y0097274D01*
X0020400Y0095676D02*
X0019472Y0095676D01*
X0019472Y0094077D02*
X0020565Y0094077D01*
X0019758Y0092479D02*
X0021556Y0092479D01*
X0021357Y0090880D02*
X0025983Y0090880D01*
X0027581Y0089282D02*
X0022955Y0089282D01*
X0020424Y0086084D02*
X0019472Y0086084D01*
X0019472Y0084486D02*
X0020400Y0084486D01*
X0021147Y0082887D02*
X0019008Y0082887D01*
X0019472Y0081289D02*
X0035574Y0081289D01*
X0033976Y0082887D02*
X0027453Y0082887D01*
X0028200Y0084486D02*
X0032377Y0084486D01*
X0030778Y0086084D02*
X0028176Y0086084D01*
X0027382Y0087683D02*
X0029180Y0087683D01*
X0031357Y0090880D02*
X0090443Y0090880D01*
X0090157Y0092479D02*
X0087044Y0092479D01*
X0086509Y0091944D02*
X0087606Y0093041D01*
X0088200Y0094474D01*
X0088200Y0096026D01*
X0087606Y0097459D01*
X0086509Y0098556D01*
X0085076Y0099150D01*
X0083524Y0099150D01*
X0082091Y0098556D01*
X0081141Y0097607D01*
X0080335Y0097941D01*
X0079265Y0097941D01*
X0078276Y0097531D01*
X0077519Y0096774D01*
X0077109Y0095785D01*
X0077109Y0094715D01*
X0077519Y0093726D01*
X0078276Y0092969D01*
X0079265Y0092559D01*
X0080335Y0092559D01*
X0081141Y0092893D01*
X0082091Y0091944D01*
X0083524Y0091350D01*
X0085076Y0091350D01*
X0086509Y0091944D01*
X0088035Y0094077D02*
X0090503Y0094077D01*
X0091687Y0095676D02*
X0088200Y0095676D01*
X0087683Y0097274D02*
X0091423Y0097274D01*
X0090394Y0098873D02*
X0085745Y0098873D01*
X0085076Y0101350D02*
X0086509Y0101944D01*
X0087606Y0103041D01*
X0088200Y0104474D01*
X0088200Y0106026D01*
X0087606Y0107459D01*
X0086509Y0108556D01*
X0085076Y0109150D01*
X0083524Y0109150D01*
X0082091Y0108556D01*
X0081141Y0107607D01*
X0080335Y0107941D01*
X0079265Y0107941D01*
X0078276Y0107531D01*
X0077519Y0106774D01*
X0077109Y0105785D01*
X0077109Y0104715D01*
X0077519Y0103726D01*
X0078276Y0102969D01*
X0079265Y0102559D01*
X0080335Y0102559D01*
X0081141Y0102893D01*
X0082091Y0101944D01*
X0083524Y0101350D01*
X0085076Y0101350D01*
X0086635Y0102070D02*
X0090553Y0102070D01*
X0090157Y0100471D02*
X0019472Y0100471D01*
X0019472Y0098873D02*
X0022855Y0098873D01*
X0023524Y0101350D02*
X0025076Y0101350D01*
X0026509Y0101944D01*
X0027606Y0103041D01*
X0027635Y0103110D01*
X0027776Y0102969D01*
X0028765Y0102559D01*
X0029835Y0102559D01*
X0030824Y0102969D01*
X0031581Y0103726D01*
X0031991Y0104715D01*
X0031991Y0105785D01*
X0031581Y0106774D01*
X0030824Y0107531D01*
X0029835Y0107941D01*
X0028765Y0107941D01*
X0027776Y0107531D01*
X0027635Y0107390D01*
X0027606Y0107459D01*
X0026509Y0108556D01*
X0025076Y0109150D01*
X0023524Y0109150D01*
X0022091Y0108556D01*
X0020994Y0107459D01*
X0020400Y0106026D01*
X0020400Y0104474D01*
X0020994Y0103041D01*
X0022091Y0101944D01*
X0023524Y0101350D01*
X0021965Y0102070D02*
X0019419Y0102070D01*
X0020734Y0103668D02*
X0010294Y0103668D01*
X0011943Y0105267D02*
X0020400Y0105267D01*
X0020748Y0106865D02*
X0011943Y0106865D01*
X0011943Y0108464D02*
X0021998Y0108464D01*
X0026602Y0108464D02*
X0052789Y0108464D01*
X0052776Y0108469D02*
X0053765Y0108059D01*
X0054835Y0108059D01*
X0055824Y0108469D01*
X0056581Y0109226D01*
X0056991Y0110215D01*
X0056991Y0111285D01*
X0056657Y0112091D01*
X0057606Y0113041D01*
X0058200Y0114474D01*
X0058200Y0116026D01*
X0057606Y0117459D01*
X0056509Y0118556D01*
X0055076Y0119150D01*
X0053524Y0119150D01*
X0052091Y0118556D01*
X0050994Y0117459D01*
X0050400Y0116026D01*
X0050400Y0114474D01*
X0050994Y0113041D01*
X0051943Y0112091D01*
X0051609Y0111285D01*
X0051609Y0110215D01*
X0052019Y0109226D01*
X0052776Y0108469D01*
X0051673Y0110062D02*
X0011943Y0110062D01*
X0011816Y0111661D02*
X0032774Y0111661D01*
X0030903Y0113259D02*
X0004600Y0113259D01*
X0004600Y0114858D02*
X0030400Y0114858D01*
X0030578Y0116456D02*
X0004600Y0116456D01*
X0004600Y0118055D02*
X0031589Y0118055D01*
X0032300Y0119653D02*
X0004600Y0119653D01*
X0004600Y0121252D02*
X0032300Y0121252D01*
X0032300Y0122850D02*
X0004600Y0122850D01*
X0004600Y0124449D02*
X0032300Y0124449D01*
X0032300Y0126047D02*
X0004600Y0126047D01*
X0004600Y0127646D02*
X0032300Y0127646D01*
X0032300Y0129244D02*
X0004600Y0129244D01*
X0004600Y0130843D02*
X0032300Y0130843D01*
X0030129Y0132441D02*
X0028912Y0132441D01*
X0028977Y0132555D02*
X0029100Y0133013D01*
X0029100Y0140550D01*
X0025000Y0140550D01*
X0025000Y0131450D01*
X0027537Y0131450D01*
X0027995Y0131573D01*
X0028405Y0131810D01*
X0028740Y0132145D01*
X0028977Y0132555D01*
X0029100Y0134040D02*
X0029900Y0134040D01*
X0029900Y0135638D02*
X0029100Y0135638D01*
X0029100Y0137237D02*
X0029900Y0137237D01*
X0029900Y0138835D02*
X0029100Y0138835D01*
X0029100Y0140434D02*
X0029900Y0140434D01*
X0029900Y0142032D02*
X0029100Y0142032D01*
X0029100Y0143631D02*
X0029900Y0143631D01*
X0029900Y0145229D02*
X0029100Y0145229D01*
X0029100Y0146828D02*
X0029900Y0146828D01*
X0025000Y0140434D02*
X0023600Y0140434D01*
X0023600Y0140550D02*
X0023600Y0131450D01*
X0021063Y0131450D01*
X0020605Y0131573D01*
X0020195Y0131810D01*
X0019860Y0132145D01*
X0019623Y0132555D01*
X0019500Y0133013D01*
X0019500Y0140550D01*
X0023600Y0140550D01*
X0023600Y0138835D02*
X0025000Y0138835D01*
X0025000Y0137237D02*
X0023600Y0137237D01*
X0023600Y0135638D02*
X0025000Y0135638D01*
X0025000Y0134040D02*
X0023600Y0134040D01*
X0023600Y0132441D02*
X0025000Y0132441D01*
X0019688Y0132441D02*
X0004600Y0132441D01*
X0004640Y0134040D02*
X0019500Y0134040D01*
X0019500Y0135638D02*
X0005003Y0135638D01*
X0005759Y0137237D02*
X0019500Y0137237D01*
X0019500Y0138835D02*
X0007030Y0138835D01*
X0008629Y0140434D02*
X0019500Y0140434D01*
X0019500Y0142032D02*
X0010227Y0142032D01*
X0011826Y0143631D02*
X0019500Y0143631D01*
X0019500Y0145229D02*
X0013424Y0145229D01*
X0015396Y0146828D02*
X0019500Y0146828D01*
X0036300Y0130843D02*
X0075478Y0130843D01*
X0077492Y0129244D02*
X0036300Y0129244D01*
X0036300Y0127646D02*
X0079507Y0127646D01*
X0081522Y0126047D02*
X0036300Y0126047D01*
X0036300Y0124449D02*
X0083536Y0124449D01*
X0085551Y0122850D02*
X0036300Y0122850D01*
X0036300Y0121252D02*
X0087566Y0121252D01*
X0089581Y0119653D02*
X0036300Y0119653D01*
X0037011Y0118055D02*
X0041024Y0118055D01*
X0041020Y0118051D02*
X0040622Y0117504D01*
X0040315Y0116901D01*
X0040106Y0116257D01*
X0040018Y0115700D01*
X0043850Y0115700D01*
X0043850Y0119532D01*
X0043293Y0119444D01*
X0042649Y0119235D01*
X0042046Y0118928D01*
X0041499Y0118530D01*
X0041020Y0118051D01*
X0040171Y0116456D02*
X0038022Y0116456D01*
X0038200Y0114858D02*
X0043850Y0114858D01*
X0043850Y0114800D02*
X0040018Y0114800D01*
X0040106Y0114243D01*
X0040315Y0113599D01*
X0040622Y0112996D01*
X0041020Y0112449D01*
X0041499Y0111970D01*
X0042046Y0111572D01*
X0042649Y0111265D01*
X0043293Y0111056D01*
X0043850Y0110968D01*
X0043850Y0114800D01*
X0044750Y0114800D01*
X0044750Y0115700D01*
X0048582Y0115700D01*
X0048494Y0116257D01*
X0048285Y0116901D01*
X0047978Y0117504D01*
X0047580Y0118051D01*
X0047101Y0118530D01*
X0046554Y0118928D01*
X0045951Y0119235D01*
X0045307Y0119444D01*
X0044750Y0119532D01*
X0044750Y0115700D01*
X0043850Y0115700D01*
X0043850Y0114800D01*
X0044750Y0114800D02*
X0044750Y0110968D01*
X0045307Y0111056D01*
X0045951Y0111265D01*
X0046554Y0111572D01*
X0047101Y0111970D01*
X0047580Y0112449D01*
X0047978Y0112996D01*
X0048285Y0113599D01*
X0048494Y0114243D01*
X0048582Y0114800D01*
X0044750Y0114800D01*
X0044750Y0114858D02*
X0050400Y0114858D01*
X0050578Y0116456D02*
X0048429Y0116456D01*
X0047576Y0118055D02*
X0051589Y0118055D01*
X0050903Y0113259D02*
X0048112Y0113259D01*
X0046675Y0111661D02*
X0051765Y0111661D01*
X0056835Y0111661D02*
X0062774Y0111661D01*
X0062091Y0111944D02*
X0063524Y0111350D01*
X0065076Y0111350D01*
X0066509Y0111944D01*
X0067606Y0113041D01*
X0068200Y0114474D01*
X0068200Y0116026D01*
X0067606Y0117459D01*
X0066509Y0118556D01*
X0065076Y0119150D01*
X0063524Y0119150D01*
X0062091Y0118556D01*
X0060994Y0117459D01*
X0060400Y0116026D01*
X0060400Y0114474D01*
X0060994Y0113041D01*
X0062091Y0111944D01*
X0060903Y0113259D02*
X0057697Y0113259D01*
X0058200Y0114858D02*
X0060400Y0114858D01*
X0060578Y0116456D02*
X0058022Y0116456D01*
X0057011Y0118055D02*
X0061589Y0118055D01*
X0065826Y0111661D02*
X0071765Y0111661D01*
X0071609Y0111285D02*
X0071609Y0110215D01*
X0072019Y0109226D01*
X0072776Y0108469D01*
X0073765Y0108059D01*
X0074835Y0108059D01*
X0075824Y0108469D01*
X0076581Y0109226D01*
X0076991Y0110215D01*
X0076991Y0111285D01*
X0076657Y0112091D01*
X0077606Y0113041D01*
X0078200Y0114474D01*
X0078200Y0116026D01*
X0077606Y0117459D01*
X0076509Y0118556D01*
X0075076Y0119150D01*
X0073524Y0119150D01*
X0072091Y0118556D01*
X0070994Y0117459D01*
X0070400Y0116026D01*
X0070400Y0114474D01*
X0070994Y0113041D01*
X0071943Y0112091D01*
X0071609Y0111285D01*
X0071673Y0110062D02*
X0056927Y0110062D01*
X0055811Y0108464D02*
X0072789Y0108464D01*
X0075811Y0108464D02*
X0081998Y0108464D01*
X0086602Y0108464D02*
X0090157Y0108464D01*
X0090345Y0106865D02*
X0087852Y0106865D01*
X0088200Y0105267D02*
X0091304Y0105267D01*
X0091806Y0103668D02*
X0087866Y0103668D01*
X0090602Y0110062D02*
X0076927Y0110062D01*
X0076835Y0111661D02*
X0091925Y0111661D01*
X0095505Y0114858D02*
X0078200Y0114858D01*
X0078022Y0116456D02*
X0093610Y0116456D01*
X0091595Y0118055D02*
X0077011Y0118055D01*
X0077697Y0113259D02*
X0096622Y0113259D01*
X0096790Y0111661D02*
X0097205Y0111661D01*
X0082855Y0098873D02*
X0025745Y0098873D01*
X0027683Y0097274D02*
X0078019Y0097274D01*
X0077109Y0095676D02*
X0028200Y0095676D01*
X0028160Y0094077D02*
X0077374Y0094077D01*
X0081556Y0092479D02*
X0029758Y0092479D01*
X0032955Y0089282D02*
X0091541Y0089282D01*
X0091569Y0087683D02*
X0087382Y0087683D01*
X0087606Y0087459D02*
X0086509Y0088556D01*
X0085076Y0089150D01*
X0083524Y0089150D01*
X0082091Y0088556D01*
X0081141Y0087607D01*
X0080335Y0087941D01*
X0079265Y0087941D01*
X0078276Y0087531D01*
X0077519Y0086774D01*
X0077109Y0085785D01*
X0077109Y0084715D01*
X0077519Y0083726D01*
X0078276Y0082969D01*
X0079265Y0082559D01*
X0080335Y0082559D01*
X0081141Y0082893D01*
X0082091Y0081944D01*
X0083524Y0081350D01*
X0085076Y0081350D01*
X0086509Y0081944D01*
X0087606Y0083041D01*
X0088200Y0084474D01*
X0088200Y0086026D01*
X0087606Y0087459D01*
X0088176Y0086084D02*
X0090454Y0086084D01*
X0090157Y0084486D02*
X0088200Y0084486D01*
X0087453Y0082887D02*
X0090492Y0082887D01*
X0091660Y0081289D02*
X0040948Y0081289D01*
X0042547Y0079690D02*
X0091450Y0079690D01*
X0090405Y0078092D02*
X0086973Y0078092D01*
X0086509Y0078556D02*
X0085076Y0079150D01*
X0083524Y0079150D01*
X0082091Y0078556D01*
X0081141Y0077607D01*
X0080335Y0077941D01*
X0079265Y0077941D01*
X0078276Y0077531D01*
X0077519Y0076774D01*
X0077109Y0075785D01*
X0077109Y0074715D01*
X0077519Y0073726D01*
X0078276Y0072969D01*
X0079265Y0072559D01*
X0080335Y0072559D01*
X0081141Y0072893D01*
X0082091Y0071944D01*
X0083524Y0071350D01*
X0085076Y0071350D01*
X0086509Y0071944D01*
X0087606Y0073041D01*
X0088200Y0074474D01*
X0088200Y0076026D01*
X0087606Y0077459D01*
X0086509Y0078556D01*
X0088006Y0076493D02*
X0090157Y0076493D01*
X0090541Y0074895D02*
X0088200Y0074895D01*
X0087712Y0073296D02*
X0091778Y0073296D01*
X0091332Y0071698D02*
X0085916Y0071698D01*
X0085076Y0069150D02*
X0083524Y0069150D01*
X0082091Y0068556D01*
X0081141Y0067607D01*
X0080335Y0067941D01*
X0079265Y0067941D01*
X0078276Y0067531D01*
X0077519Y0066774D01*
X0077109Y0065785D01*
X0077109Y0064715D01*
X0077519Y0063726D01*
X0078276Y0062969D01*
X0079265Y0062559D01*
X0080335Y0062559D01*
X0081141Y0062893D01*
X0082091Y0061944D01*
X0083524Y0061350D01*
X0085076Y0061350D01*
X0086509Y0061944D01*
X0087606Y0063041D01*
X0088200Y0064474D01*
X0088200Y0066026D01*
X0087606Y0067459D01*
X0086509Y0068556D01*
X0085076Y0069150D01*
X0086565Y0068501D02*
X0090157Y0068501D01*
X0090356Y0070099D02*
X0052138Y0070099D01*
X0050539Y0071698D02*
X0082684Y0071698D01*
X0082035Y0068501D02*
X0053736Y0068501D01*
X0055335Y0066902D02*
X0077647Y0066902D01*
X0077109Y0065304D02*
X0056933Y0065304D01*
X0058532Y0063705D02*
X0077540Y0063705D01*
X0081928Y0062107D02*
X0060130Y0062107D01*
X0061729Y0060508D02*
X0090157Y0060508D01*
X0090307Y0062107D02*
X0086672Y0062107D01*
X0087881Y0063705D02*
X0091213Y0063705D01*
X0091897Y0065304D02*
X0088200Y0065304D01*
X0087837Y0066902D02*
X0090590Y0066902D01*
X0090639Y0058910D02*
X0085656Y0058910D01*
X0082944Y0058910D02*
X0063327Y0058910D01*
X0064926Y0057311D02*
X0080932Y0057311D01*
X0080400Y0055713D02*
X0066524Y0055713D01*
X0068123Y0054114D02*
X0080549Y0054114D01*
X0081519Y0052516D02*
X0070027Y0052516D01*
X0067660Y0049319D02*
X0046200Y0049319D01*
X0046200Y0050917D02*
X0065946Y0050917D01*
X0067463Y0049400D02*
X0067463Y0049400D01*
X0064347Y0052516D02*
X0046200Y0052516D01*
X0046200Y0054114D02*
X0062749Y0054114D01*
X0061150Y0055713D02*
X0046200Y0055713D01*
X0046200Y0057311D02*
X0059552Y0057311D01*
X0057953Y0058910D02*
X0046200Y0058910D01*
X0046200Y0059051D02*
X0045150Y0061587D01*
X0045150Y0061587D01*
X0044736Y0062001D01*
X0044736Y0062001D01*
X0036741Y0069996D01*
X0036741Y0070535D01*
X0036331Y0071524D01*
X0035574Y0072281D01*
X0034585Y0072691D01*
X0033515Y0072691D01*
X0032526Y0072281D01*
X0031769Y0071524D01*
X0031359Y0070535D01*
X0031359Y0069465D01*
X0031769Y0068476D01*
X0032526Y0067719D01*
X0033515Y0067309D01*
X0034054Y0067309D01*
X0040936Y0060427D01*
X0041439Y0059924D01*
X0041492Y0059871D01*
X0041878Y0059401D01*
X0042340Y0058284D01*
X0042400Y0057679D01*
X0042400Y0038684D01*
X0042091Y0038556D01*
X0040994Y0037459D01*
X0040400Y0036026D01*
X0040400Y0034474D01*
X0040994Y0033041D01*
X0042091Y0031944D01*
X0043524Y0031350D01*
X0045076Y0031350D01*
X0046509Y0031944D01*
X0047606Y0033041D01*
X0048200Y0034474D01*
X0048200Y0036026D01*
X0047606Y0037459D01*
X0046509Y0038556D01*
X0046200Y0038684D01*
X0046200Y0059051D01*
X0045597Y0060508D02*
X0056355Y0060508D01*
X0054756Y0062107D02*
X0044630Y0062107D01*
X0043032Y0063705D02*
X0053158Y0063705D01*
X0051559Y0065304D02*
X0041433Y0065304D01*
X0039835Y0066902D02*
X0049961Y0066902D01*
X0048362Y0068501D02*
X0038236Y0068501D01*
X0036741Y0070099D02*
X0046764Y0070099D01*
X0045165Y0071698D02*
X0036157Y0071698D01*
X0034461Y0066902D02*
X0031203Y0066902D01*
X0031331Y0066774D02*
X0030574Y0067531D01*
X0029585Y0067941D01*
X0028515Y0067941D01*
X0027532Y0067533D01*
X0026509Y0068556D01*
X0025076Y0069150D01*
X0023524Y0069150D01*
X0022091Y0068556D01*
X0020994Y0067459D01*
X0020400Y0066026D01*
X0020400Y0064474D01*
X0020994Y0063041D01*
X0022091Y0061944D01*
X0023524Y0061350D01*
X0025076Y0061350D01*
X0026509Y0061944D01*
X0027532Y0062967D01*
X0028515Y0062559D01*
X0029585Y0062559D01*
X0030574Y0062969D01*
X0031331Y0063726D01*
X0031741Y0064715D01*
X0031741Y0065785D01*
X0031331Y0066774D01*
X0031741Y0065304D02*
X0036059Y0065304D01*
X0037658Y0063705D02*
X0031310Y0063705D01*
X0031759Y0068501D02*
X0026565Y0068501D01*
X0025916Y0071698D02*
X0031943Y0071698D01*
X0031359Y0070099D02*
X0018900Y0070099D01*
X0018900Y0068501D02*
X0022035Y0068501D01*
X0020763Y0066902D02*
X0018900Y0066902D01*
X0018900Y0065304D02*
X0020400Y0065304D01*
X0020718Y0063705D02*
X0018900Y0063705D01*
X0018900Y0062107D02*
X0021928Y0062107D01*
X0022944Y0058910D02*
X0018900Y0058910D01*
X0018900Y0060508D02*
X0040855Y0060508D01*
X0040936Y0060427D02*
X0040936Y0060427D01*
X0042081Y0058910D02*
X0025656Y0058910D01*
X0027668Y0057311D02*
X0042400Y0057311D01*
X0042400Y0055713D02*
X0028200Y0055713D01*
X0028051Y0054114D02*
X0042400Y0054114D01*
X0042400Y0052516D02*
X0027081Y0052516D01*
X0026672Y0062107D02*
X0039256Y0062107D01*
X0043567Y0073296D02*
X0027712Y0073296D01*
X0028200Y0074895D02*
X0041968Y0074895D01*
X0040370Y0076493D02*
X0028006Y0076493D01*
X0026973Y0078092D02*
X0038771Y0078092D01*
X0037173Y0079690D02*
X0019797Y0079690D01*
X0021395Y0078092D02*
X0021627Y0078092D01*
X0019218Y0074895D02*
X0018991Y0074895D01*
X0018900Y0073296D02*
X0020888Y0073296D01*
X0022684Y0071698D02*
X0018900Y0071698D01*
X0019056Y0087683D02*
X0019180Y0087683D01*
X0017581Y0089282D02*
X0015015Y0089282D01*
X0026635Y0102070D02*
X0081965Y0102070D01*
X0077577Y0103668D02*
X0031523Y0103668D01*
X0031991Y0105267D02*
X0077109Y0105267D01*
X0077610Y0106865D02*
X0031490Y0106865D01*
X0035826Y0111661D02*
X0041925Y0111661D01*
X0040488Y0113259D02*
X0037697Y0113259D01*
X0043850Y0113259D02*
X0044750Y0113259D01*
X0044750Y0111661D02*
X0043850Y0111661D01*
X0043850Y0116456D02*
X0044750Y0116456D01*
X0044750Y0118055D02*
X0043850Y0118055D01*
X0043600Y0131450D02*
X0041063Y0131450D01*
X0040605Y0131573D01*
X0040195Y0131810D01*
X0039860Y0132145D01*
X0039623Y0132555D01*
X0039500Y0133013D01*
X0039500Y0140550D01*
X0043600Y0140550D01*
X0043600Y0131450D01*
X0043600Y0132441D02*
X0045000Y0132441D01*
X0045000Y0131450D02*
X0047537Y0131450D01*
X0047995Y0131573D01*
X0048405Y0131810D01*
X0048740Y0132145D01*
X0048977Y0132555D01*
X0049100Y0133013D01*
X0049100Y0140550D01*
X0045000Y0140550D01*
X0045000Y0131450D01*
X0045000Y0134040D02*
X0043600Y0134040D01*
X0043600Y0135638D02*
X0045000Y0135638D01*
X0045000Y0137237D02*
X0043600Y0137237D01*
X0043600Y0138835D02*
X0045000Y0138835D01*
X0045000Y0140434D02*
X0043600Y0140434D01*
X0039500Y0140434D02*
X0038700Y0140434D01*
X0038700Y0142032D02*
X0039500Y0142032D01*
X0039500Y0143631D02*
X0038700Y0143631D01*
X0038700Y0145229D02*
X0039500Y0145229D01*
X0039500Y0146828D02*
X0038700Y0146828D01*
X0038700Y0138835D02*
X0039500Y0138835D01*
X0039500Y0137237D02*
X0038700Y0137237D01*
X0038700Y0135638D02*
X0039500Y0135638D01*
X0039500Y0134040D02*
X0038700Y0134040D01*
X0038471Y0132441D02*
X0039688Y0132441D01*
X0048912Y0132441D02*
X0073463Y0132441D01*
X0071448Y0134040D02*
X0049100Y0134040D01*
X0049100Y0135638D02*
X0069434Y0135638D01*
X0067419Y0137237D02*
X0049100Y0137237D01*
X0049100Y0138835D02*
X0065404Y0138835D01*
X0063389Y0140434D02*
X0049100Y0140434D01*
X0049100Y0142032D02*
X0061375Y0142032D01*
X0059360Y0143631D02*
X0049100Y0143631D01*
X0049100Y0145229D02*
X0057345Y0145229D01*
X0055206Y0146828D02*
X0049100Y0146828D01*
X0067011Y0118055D02*
X0071589Y0118055D01*
X0070578Y0116456D02*
X0068022Y0116456D01*
X0068200Y0114858D02*
X0070400Y0114858D01*
X0070903Y0113259D02*
X0067697Y0113259D01*
X0078643Y0087683D02*
X0034554Y0087683D01*
X0036152Y0086084D02*
X0077233Y0086084D01*
X0077204Y0084486D02*
X0037751Y0084486D01*
X0039350Y0082887D02*
X0078473Y0082887D01*
X0081127Y0082887D02*
X0081147Y0082887D01*
X0081218Y0087683D02*
X0080957Y0087683D01*
X0081627Y0078092D02*
X0044145Y0078092D01*
X0045744Y0076493D02*
X0077403Y0076493D01*
X0077109Y0074895D02*
X0047342Y0074895D01*
X0048941Y0073296D02*
X0077949Y0073296D01*
X0090544Y0057311D02*
X0092069Y0057311D01*
X0089111Y0047720D02*
X0087345Y0047720D01*
X0088160Y0046122D02*
X0090209Y0046122D01*
X0089635Y0047197D02*
X0089635Y0047197D01*
X0090157Y0044523D02*
X0088200Y0044523D01*
X0087490Y0042925D02*
X0090738Y0042925D01*
X0092641Y0041326D02*
X0046200Y0041326D01*
X0046200Y0039728D02*
X0090858Y0039728D01*
X0090160Y0038129D02*
X0076936Y0038129D01*
X0076509Y0038556D02*
X0077606Y0037459D01*
X0078200Y0036026D01*
X0078200Y0034474D01*
X0077606Y0033041D01*
X0076509Y0031944D01*
X0075076Y0031350D01*
X0073524Y0031350D01*
X0072091Y0031944D01*
X0070994Y0033041D01*
X0070400Y0034474D01*
X0070400Y0036026D01*
X0070994Y0037459D01*
X0072091Y0038556D01*
X0073524Y0039150D01*
X0075076Y0039150D01*
X0076509Y0038556D01*
X0077991Y0036531D02*
X0090157Y0036531D01*
X0090787Y0034932D02*
X0078200Y0034932D01*
X0077728Y0033334D02*
X0092927Y0033334D01*
X0095787Y0033334D02*
X0097500Y0033334D01*
X0097500Y0031735D02*
X0076005Y0031735D01*
X0072594Y0031735D02*
X0066005Y0031735D01*
X0066509Y0031944D02*
X0067606Y0033041D01*
X0068200Y0034474D01*
X0068200Y0036026D01*
X0067606Y0037459D01*
X0066509Y0038556D01*
X0065076Y0039150D01*
X0063524Y0039150D01*
X0062091Y0038556D01*
X0060994Y0037459D01*
X0060400Y0036026D01*
X0060400Y0034474D01*
X0060994Y0033041D01*
X0062091Y0031944D01*
X0063524Y0031350D01*
X0065076Y0031350D01*
X0066509Y0031944D01*
X0067728Y0033334D02*
X0070872Y0033334D01*
X0070400Y0034932D02*
X0068200Y0034932D01*
X0067991Y0036531D02*
X0070609Y0036531D01*
X0071664Y0038129D02*
X0066936Y0038129D01*
X0061664Y0038129D02*
X0056936Y0038129D01*
X0056509Y0038556D02*
X0057606Y0037459D01*
X0058200Y0036026D01*
X0058200Y0034474D01*
X0057606Y0033041D01*
X0056509Y0031944D01*
X0055076Y0031350D01*
X0053524Y0031350D01*
X0052091Y0031944D01*
X0050994Y0033041D01*
X0050400Y0034474D01*
X0050400Y0036026D01*
X0050994Y0037459D01*
X0052091Y0038556D01*
X0053524Y0039150D01*
X0055076Y0039150D01*
X0056509Y0038556D01*
X0057991Y0036531D02*
X0060609Y0036531D01*
X0060400Y0034932D02*
X0058200Y0034932D01*
X0057728Y0033334D02*
X0060872Y0033334D01*
X0062594Y0031735D02*
X0056005Y0031735D01*
X0052594Y0031735D02*
X0046005Y0031735D01*
X0047728Y0033334D02*
X0050872Y0033334D01*
X0050400Y0034932D02*
X0048200Y0034932D01*
X0047991Y0036531D02*
X0050609Y0036531D01*
X0051664Y0038129D02*
X0046936Y0038129D01*
X0046200Y0042925D02*
X0078249Y0042925D01*
X0077055Y0044523D02*
X0046200Y0044523D01*
X0046200Y0046122D02*
X0077115Y0046122D01*
X0078599Y0047720D02*
X0046200Y0047720D01*
X0042400Y0041326D02*
X0026071Y0041326D01*
X0036005Y0031735D02*
X0042594Y0031735D01*
X0040872Y0033334D02*
X0037728Y0033334D01*
X0038200Y0034932D02*
X0040400Y0034932D01*
X0040609Y0036531D02*
X0037991Y0036531D01*
X0036936Y0038129D02*
X0041664Y0038129D01*
X0042400Y0039728D02*
X0011656Y0039728D01*
X0007743Y0036531D02*
X0007743Y0036531D01*
X0007743Y0034932D02*
X0007743Y0034932D01*
X0007743Y0033334D02*
X0007743Y0033334D01*
X0005370Y0033334D02*
X0004600Y0033334D01*
X0013153Y0020546D02*
X0014586Y0020546D01*
X0016262Y0020546D02*
X0019960Y0020546D01*
X0021636Y0020546D02*
X0025334Y0020546D01*
X0027010Y0020546D02*
X0030708Y0020546D01*
X0032384Y0020546D02*
X0036082Y0020546D01*
X0037758Y0020546D02*
X0041456Y0020546D01*
X0043132Y0020546D02*
X0046830Y0020546D01*
X0048506Y0020546D02*
X0052204Y0020546D01*
X0053880Y0020546D02*
X0057578Y0020546D01*
X0080733Y0047720D02*
X0081255Y0047720D01*
X0081110Y0042925D02*
X0081083Y0042925D01*
D20*
X0024300Y0055250D02*
X0016859Y0055250D01*
X0016300Y0055309D02*
X0016300Y0074750D01*
D21*
X0016300Y0055309D02*
X0016326Y0055280D01*
X0016354Y0055253D01*
X0016386Y0055230D01*
X0016419Y0055209D01*
X0016454Y0055192D01*
X0016491Y0055179D01*
X0016529Y0055169D01*
X0016567Y0055163D01*
X0016606Y0055161D01*
X0016645Y0055163D01*
X0016684Y0055168D01*
X0016722Y0055177D01*
X0016759Y0055190D01*
X0016794Y0055207D01*
X0016828Y0055227D01*
X0016859Y0055250D01*
X0034300Y0115250D02*
X0034300Y0141250D01*
D22*
X0054300Y0115250D02*
X0054300Y0110750D01*
X0074300Y0110750D02*
X0074300Y0115250D01*
X0079800Y0105250D02*
X0084300Y0105250D01*
X0084300Y0095250D02*
X0079800Y0095250D01*
X0079800Y0085250D02*
X0084300Y0085250D01*
X0084300Y0075250D02*
X0079800Y0075250D01*
X0079800Y0065250D02*
X0084300Y0065250D01*
X0084300Y0055250D02*
X0088800Y0055250D01*
X0087638Y0050250D02*
X0071371Y0050250D01*
X0067836Y0051714D02*
X0024300Y0095250D01*
X0016593Y0092957D02*
X0024300Y0085250D01*
X0016609Y0080191D02*
X0021507Y0075293D01*
X0022214Y0075000D02*
X0024050Y0075000D01*
X0024300Y0075250D01*
X0022214Y0075000D02*
X0022154Y0075002D01*
X0022093Y0075007D01*
X0022034Y0075016D01*
X0021975Y0075029D01*
X0021916Y0075045D01*
X0021859Y0075065D01*
X0021804Y0075088D01*
X0021749Y0075115D01*
X0021697Y0075144D01*
X0021646Y0075177D01*
X0021597Y0075213D01*
X0021551Y0075251D01*
X0021507Y0075293D01*
X0016609Y0080191D02*
X0016300Y0080191D01*
X0016300Y0085309D02*
X0009204Y0092406D01*
X0007743Y0092406D01*
X0007743Y0100280D02*
X0016080Y0100280D01*
X0016300Y0100059D01*
X0016300Y0094941D02*
X0016300Y0093664D01*
X0016302Y0093604D01*
X0016307Y0093543D01*
X0016316Y0093484D01*
X0016329Y0093425D01*
X0016345Y0093366D01*
X0016365Y0093309D01*
X0016388Y0093254D01*
X0016415Y0093199D01*
X0016444Y0093147D01*
X0016477Y0093096D01*
X0016513Y0093047D01*
X0016551Y0093001D01*
X0016593Y0092957D01*
X0024300Y0105250D02*
X0029300Y0105250D01*
X0034050Y0070000D02*
X0042836Y0061214D01*
X0044300Y0057679D02*
X0044300Y0035250D01*
X0044300Y0057679D02*
X0044298Y0057819D01*
X0044292Y0057959D01*
X0044282Y0058099D01*
X0044269Y0058239D01*
X0044251Y0058378D01*
X0044229Y0058517D01*
X0044204Y0058654D01*
X0044175Y0058792D01*
X0044142Y0058928D01*
X0044105Y0059063D01*
X0044064Y0059197D01*
X0044019Y0059330D01*
X0043971Y0059462D01*
X0043919Y0059592D01*
X0043864Y0059721D01*
X0043805Y0059848D01*
X0043742Y0059974D01*
X0043676Y0060098D01*
X0043607Y0060219D01*
X0043534Y0060339D01*
X0043457Y0060457D01*
X0043378Y0060572D01*
X0043295Y0060686D01*
X0043209Y0060796D01*
X0043120Y0060905D01*
X0043028Y0061011D01*
X0042933Y0061114D01*
X0042836Y0061215D01*
X0029050Y0065250D02*
X0024300Y0065250D01*
X0067835Y0051714D02*
X0067936Y0051617D01*
X0068039Y0051522D01*
X0068145Y0051430D01*
X0068254Y0051341D01*
X0068364Y0051255D01*
X0068478Y0051172D01*
X0068593Y0051093D01*
X0068711Y0051016D01*
X0068831Y0050943D01*
X0068952Y0050874D01*
X0069076Y0050808D01*
X0069202Y0050745D01*
X0069329Y0050686D01*
X0069458Y0050631D01*
X0069588Y0050579D01*
X0069720Y0050531D01*
X0069853Y0050486D01*
X0069987Y0050445D01*
X0070122Y0050408D01*
X0070258Y0050375D01*
X0070396Y0050346D01*
X0070533Y0050321D01*
X0070672Y0050299D01*
X0070811Y0050281D01*
X0070951Y0050268D01*
X0071091Y0050258D01*
X0071231Y0050252D01*
X0071371Y0050250D01*
X0079666Y0045250D02*
X0084300Y0045250D01*
X0087638Y0050250D02*
X0087762Y0050248D01*
X0087885Y0050242D01*
X0088009Y0050233D01*
X0088131Y0050219D01*
X0088254Y0050202D01*
X0088376Y0050180D01*
X0088497Y0050155D01*
X0088617Y0050126D01*
X0088736Y0050094D01*
X0088855Y0050057D01*
X0088972Y0050017D01*
X0089087Y0049974D01*
X0089202Y0049926D01*
X0089314Y0049875D01*
X0089425Y0049821D01*
X0089535Y0049763D01*
X0089642Y0049702D01*
X0089748Y0049637D01*
X0089851Y0049569D01*
X0089952Y0049498D01*
X0090051Y0049424D01*
X0090148Y0049347D01*
X0090242Y0049266D01*
X0090333Y0049183D01*
X0090422Y0049097D01*
X0094357Y0045161D01*
X0090028Y0024000D02*
X0088800Y0024000D01*
D23*
X0088800Y0024000D03*
D24*
X0034300Y0141000D03*
M02*
