G75*
%MOIN*%
%OFA0B0*%
%FSLAX24Y24*%
%IPPOS*%
%LPD*%
%AMOC8*
5,1,8,0,0,1.08239X$1,22.5*
%
%ADD10C,0.0433*%
%ADD11R,0.0600X0.1600*%
%ADD12R,0.0250X0.0500*%
%ADD13R,0.0515X0.0515*%
%ADD14C,0.0515*%
%ADD15C,0.0236*%
%ADD16R,0.0354X0.0276*%
%ADD17R,0.0394X0.0433*%
%ADD18C,0.0160*%
%ADD19C,0.0240*%
%ADD20C,0.0278*%
%ADD21C,0.0100*%
%ADD22C,0.0396*%
D10*
X003634Y002188D03*
X004638Y002188D03*
X005622Y002188D03*
X006606Y002188D03*
X007630Y002188D03*
X008673Y003211D03*
X008673Y004215D03*
X008673Y005219D03*
X008673Y006204D03*
X008673Y007208D03*
X008673Y008211D03*
X008653Y009215D03*
X007630Y010219D03*
X006646Y010219D03*
X005642Y010219D03*
X004638Y010219D03*
X003634Y010219D03*
X002630Y009215D03*
X002630Y008211D03*
X002630Y007208D03*
X002630Y006223D03*
X002630Y005200D03*
X002630Y004196D03*
X002630Y003211D03*
D11*
X004579Y012621D03*
X005579Y012621D03*
X006579Y012621D03*
D12*
X003240Y001105D03*
X002886Y001105D03*
D13*
X001291Y002621D03*
X009992Y002621D03*
D14*
X009992Y003408D03*
X009992Y004196D03*
X009992Y004983D03*
X009992Y005771D03*
X009992Y006558D03*
X009992Y007345D03*
X009992Y008133D03*
X009992Y008920D03*
X009992Y009708D03*
X001291Y009708D03*
X001291Y008920D03*
X001291Y008133D03*
X001291Y007345D03*
X001291Y006558D03*
X001291Y005771D03*
X001291Y004983D03*
X001291Y004196D03*
X001291Y003408D03*
D15*
X009559Y001341D03*
D16*
X001980Y006223D03*
X001980Y006735D03*
X001960Y008408D03*
X001960Y008920D03*
D17*
X002079Y001834D03*
X002079Y001164D03*
D18*
X001332Y000912D02*
X001274Y001012D01*
X001245Y001123D01*
X001241Y001180D01*
X001241Y002183D01*
X001291Y002183D01*
X001291Y002621D01*
X001291Y002621D01*
X001291Y002183D01*
X001572Y002183D01*
X001618Y002196D01*
X001659Y002219D01*
X001693Y002253D01*
X001716Y002294D01*
X001729Y002340D01*
X001729Y002621D01*
X001729Y002902D01*
X001716Y002948D01*
X001693Y002989D01*
X001659Y003022D01*
X001618Y003046D01*
X001572Y003058D01*
X001532Y003058D01*
X001645Y003172D01*
X001656Y003198D01*
X001752Y003198D01*
X001875Y003321D01*
X002075Y003521D01*
X002098Y003544D01*
X002098Y003544D01*
X002190Y003766D01*
X002190Y004643D01*
X002194Y004679D01*
X002221Y004745D01*
X002221Y004745D01*
X002244Y004773D01*
X002296Y004825D01*
X002305Y004834D01*
X002384Y004913D01*
X002416Y004880D01*
X002555Y004823D01*
X002705Y004823D01*
X002843Y004880D01*
X002949Y004986D01*
X003006Y005125D01*
X003006Y005275D01*
X002949Y005413D01*
X002843Y005519D01*
X002705Y005576D01*
X002555Y005576D01*
X002416Y005519D01*
X002311Y005413D01*
X002309Y005410D01*
X002287Y005410D01*
X002008Y005131D01*
X001999Y005122D01*
X001885Y005008D01*
X001862Y004985D01*
X001770Y004763D01*
X001770Y003886D01*
X001767Y003851D01*
X001739Y003784D01*
X001716Y003756D01*
X001625Y003665D01*
X001528Y003762D01*
X001432Y003802D01*
X001528Y003842D01*
X001645Y003959D01*
X001709Y004113D01*
X001709Y004279D01*
X001645Y004432D01*
X001528Y004550D01*
X001432Y004589D01*
X001528Y004629D01*
X001645Y004747D01*
X001709Y004900D01*
X001709Y005066D01*
X001645Y005220D01*
X001528Y005337D01*
X001432Y005377D01*
X001528Y005417D01*
X001645Y005534D01*
X001709Y005688D01*
X001709Y005854D01*
X001645Y006007D01*
X001528Y006124D01*
X001432Y006164D01*
X001528Y006204D01*
X001643Y006319D01*
X001643Y006019D01*
X001737Y005926D01*
X002224Y005926D01*
X002310Y006012D01*
X002311Y006010D01*
X002416Y005904D01*
X002555Y005847D01*
X002705Y005847D01*
X002843Y005904D01*
X002949Y006010D01*
X003006Y006148D01*
X003006Y006298D01*
X002949Y006437D01*
X002843Y006543D01*
X002705Y006600D01*
X002555Y006600D01*
X002416Y006543D01*
X002311Y006437D01*
X002310Y006435D01*
X002265Y006479D01*
X002317Y006531D01*
X002317Y006939D01*
X002224Y007033D01*
X002220Y007033D01*
X002257Y007123D01*
X002311Y006994D01*
X002416Y006888D01*
X002555Y006831D01*
X002705Y006831D01*
X002843Y006888D01*
X002949Y006994D01*
X003006Y007133D01*
X003006Y007282D01*
X002949Y007421D01*
X002843Y007527D01*
X002705Y007584D01*
X002555Y007584D01*
X002546Y007580D01*
X002300Y007816D01*
X002300Y007821D01*
X002238Y007876D01*
X002233Y007881D01*
X002209Y007907D01*
X002176Y007975D01*
X002170Y008011D01*
X002170Y008111D01*
X002204Y008111D01*
X002253Y008160D01*
X002253Y008137D01*
X002311Y007998D01*
X002416Y007892D01*
X002555Y007835D01*
X002705Y007835D01*
X002843Y007892D01*
X002935Y007985D01*
X003309Y007900D01*
X003676Y007723D01*
X003994Y007469D01*
X004247Y007151D01*
X004424Y006784D01*
X004515Y006387D01*
X004526Y006184D01*
X004526Y004062D01*
X004634Y003801D01*
X004834Y003602D01*
X005095Y003494D01*
X008423Y003494D01*
X008354Y003425D01*
X008297Y003286D01*
X008297Y003137D01*
X008354Y002998D01*
X008460Y002892D01*
X008598Y002835D01*
X008745Y002835D01*
X009056Y002514D01*
X009056Y002512D01*
X009116Y002452D01*
X009118Y002450D01*
X009186Y002373D01*
X009289Y002194D01*
X009342Y001995D01*
X009349Y001892D01*
X009349Y001525D01*
X009323Y001499D01*
X009281Y001397D01*
X009270Y001409D01*
X009138Y001463D01*
X008996Y001463D01*
X008864Y001409D01*
X008821Y001366D01*
X008778Y001409D01*
X008646Y001463D01*
X008503Y001463D01*
X008372Y001409D01*
X008329Y001366D01*
X008285Y001409D01*
X008154Y001463D01*
X008011Y001463D01*
X007880Y001409D01*
X007836Y001366D01*
X007793Y001409D01*
X007662Y001463D01*
X007519Y001463D01*
X007388Y001409D01*
X007344Y001366D01*
X007301Y001409D01*
X007170Y001463D01*
X007027Y001463D01*
X006895Y001409D01*
X006852Y001366D01*
X006809Y001409D01*
X006677Y001463D01*
X006535Y001463D01*
X006403Y001409D01*
X006360Y001366D01*
X006317Y001409D01*
X006185Y001463D01*
X006043Y001463D01*
X005911Y001409D01*
X005868Y001366D01*
X005825Y001409D01*
X005693Y001463D01*
X005551Y001463D01*
X005419Y001409D01*
X005318Y001308D01*
X005264Y001176D01*
X005264Y001034D01*
X005318Y000902D01*
X005419Y000802D01*
X005551Y000747D01*
X005693Y000747D01*
X005825Y000802D01*
X005868Y000845D01*
X005911Y000802D01*
X006043Y000747D01*
X006185Y000747D01*
X006317Y000802D01*
X006360Y000845D01*
X006403Y000802D01*
X006535Y000747D01*
X006677Y000747D01*
X006809Y000802D01*
X006852Y000845D01*
X006895Y000802D01*
X007027Y000747D01*
X007170Y000747D01*
X007301Y000802D01*
X007344Y000845D01*
X007388Y000802D01*
X007519Y000747D01*
X007662Y000747D01*
X007793Y000802D01*
X007836Y000845D01*
X007880Y000802D01*
X008011Y000747D01*
X008154Y000747D01*
X008285Y000802D01*
X008329Y000845D01*
X008372Y000802D01*
X008503Y000747D01*
X008646Y000747D01*
X008778Y000802D01*
X008821Y000845D01*
X008864Y000802D01*
X008996Y000747D01*
X009138Y000747D01*
X009270Y000802D01*
X009313Y000845D01*
X009356Y000802D01*
X009488Y000747D01*
X009630Y000747D01*
X009762Y000802D01*
X009862Y000902D01*
X009917Y001034D01*
X009917Y001176D01*
X009862Y001308D01*
X009837Y001334D01*
X009837Y001397D01*
X009795Y001499D01*
X009769Y001525D01*
X009769Y002051D01*
X009728Y002203D01*
X010023Y002203D01*
X010023Y001180D01*
X010019Y001123D01*
X009989Y001012D01*
X009932Y000912D01*
X009850Y000831D01*
X009751Y000773D01*
X009640Y000744D01*
X009583Y000740D01*
X003476Y000740D01*
X003525Y000789D01*
X003525Y000851D01*
X003633Y000806D01*
X003752Y000806D01*
X003862Y000852D01*
X003946Y000936D01*
X003992Y001046D01*
X003992Y001165D01*
X003946Y001275D01*
X003862Y001359D01*
X003752Y001404D01*
X003633Y001404D01*
X003525Y001359D01*
X003525Y001421D01*
X003431Y001515D01*
X003094Y001515D01*
X003080Y001523D01*
X003034Y001535D01*
X002886Y001535D01*
X002886Y001105D01*
X002886Y001105D01*
X002581Y001105D01*
X002581Y000831D01*
X002593Y000786D01*
X002617Y000745D01*
X002621Y000740D01*
X001681Y000740D01*
X001624Y000744D01*
X001513Y000773D01*
X001413Y000831D01*
X001332Y000912D01*
X001309Y000952D02*
X001702Y000952D01*
X001702Y000924D02*
X001714Y000878D01*
X001738Y000837D01*
X001771Y000804D01*
X001812Y000780D01*
X001858Y000768D01*
X002060Y000768D01*
X002060Y001146D01*
X001702Y001146D01*
X001702Y000924D01*
X001788Y000794D02*
X001478Y000794D01*
X001702Y001111D02*
X001248Y001111D01*
X001241Y001269D02*
X001702Y001269D01*
X001702Y001183D02*
X001702Y001404D01*
X001714Y001450D01*
X001738Y001491D01*
X001759Y001513D01*
X001722Y001551D01*
X001722Y002116D01*
X001815Y002210D01*
X001839Y002210D01*
X001839Y002221D01*
X001825Y002235D01*
X001780Y002345D01*
X001780Y002464D01*
X001825Y002574D01*
X001909Y002658D01*
X002019Y002703D01*
X002138Y002703D01*
X002248Y002658D01*
X002332Y002574D01*
X002378Y002464D01*
X002378Y002345D01*
X002332Y002235D01*
X002319Y002221D01*
X002319Y002210D01*
X002342Y002210D01*
X002435Y002116D01*
X002435Y001551D01*
X002398Y001513D01*
X002419Y001491D01*
X002443Y001450D01*
X002455Y001404D01*
X002455Y001183D01*
X002097Y001183D01*
X002097Y001146D01*
X002455Y001146D01*
X002455Y000924D01*
X002443Y000878D01*
X002419Y000837D01*
X002386Y000804D01*
X002345Y000780D01*
X002299Y000768D01*
X002097Y000768D01*
X002097Y001146D01*
X002060Y001146D01*
X002060Y001183D01*
X001702Y001183D01*
X001708Y001428D02*
X001241Y001428D01*
X001241Y001586D02*
X001722Y001586D01*
X001722Y001745D02*
X001241Y001745D01*
X001241Y001903D02*
X001722Y001903D01*
X001722Y002062D02*
X001241Y002062D01*
X001291Y002220D02*
X001291Y002220D01*
X001291Y002379D02*
X001291Y002379D01*
X001291Y002537D02*
X001291Y002537D01*
X001291Y002621D02*
X001291Y002621D01*
X001729Y002621D01*
X001291Y002621D01*
X001669Y003013D02*
X002286Y003013D01*
X002278Y003024D02*
X002322Y002959D01*
X002377Y002903D01*
X002442Y002860D01*
X002514Y002830D01*
X002591Y002815D01*
X002602Y002815D01*
X002602Y003183D01*
X002658Y003183D01*
X002658Y002815D01*
X002669Y002815D01*
X002745Y002830D01*
X002818Y002860D01*
X002883Y002903D01*
X002938Y002959D01*
X002981Y003024D01*
X003011Y003096D01*
X003026Y003172D01*
X003026Y003183D01*
X002658Y003183D01*
X002658Y003240D01*
X002602Y003240D01*
X002602Y003608D01*
X002591Y003608D01*
X002514Y003593D01*
X002442Y003563D01*
X002377Y003520D01*
X002322Y003464D01*
X002278Y003399D01*
X002248Y003327D01*
X002233Y003251D01*
X002233Y003240D01*
X002601Y003240D01*
X002601Y003183D01*
X002233Y003183D01*
X002233Y003172D01*
X002248Y003096D01*
X002278Y003024D01*
X002456Y002854D02*
X001729Y002854D01*
X001729Y002696D02*
X002000Y002696D01*
X002157Y002696D02*
X008880Y002696D01*
X009033Y002537D02*
X007770Y002537D01*
X007705Y002564D02*
X007843Y002507D01*
X007949Y002401D01*
X008006Y002263D01*
X008006Y002113D01*
X007949Y001975D01*
X007843Y001869D01*
X007705Y001811D01*
X007555Y001811D01*
X007416Y001869D01*
X007311Y001975D01*
X007253Y002113D01*
X007253Y002263D01*
X007311Y002401D01*
X007416Y002507D01*
X007555Y002564D01*
X007705Y002564D01*
X007489Y002537D02*
X006747Y002537D01*
X006681Y002564D02*
X006531Y002564D01*
X006393Y002507D01*
X006287Y002401D01*
X006230Y002263D01*
X006230Y002113D01*
X006287Y001975D01*
X006393Y001869D01*
X006531Y001811D01*
X006681Y001811D01*
X006819Y001869D01*
X006925Y001975D01*
X006983Y002113D01*
X006983Y002263D01*
X006925Y002401D01*
X006819Y002507D01*
X006681Y002564D01*
X006935Y002379D02*
X007301Y002379D01*
X007253Y002220D02*
X006983Y002220D01*
X006961Y002062D02*
X007274Y002062D01*
X007382Y001903D02*
X006854Y001903D01*
X006941Y001428D02*
X006763Y001428D01*
X006449Y001428D02*
X006271Y001428D01*
X005957Y001428D02*
X005779Y001428D01*
X005465Y001428D02*
X003519Y001428D01*
X003559Y001811D02*
X003420Y001869D01*
X003314Y001975D01*
X003257Y002113D01*
X003257Y002263D01*
X003314Y002401D01*
X003420Y002507D01*
X003559Y002564D01*
X003709Y002564D01*
X003847Y002507D01*
X003953Y002401D01*
X004010Y002263D01*
X004010Y002113D01*
X003953Y001975D01*
X003847Y001869D01*
X003709Y001811D01*
X003559Y001811D01*
X003386Y001903D02*
X002435Y001903D01*
X002435Y001745D02*
X009349Y001745D01*
X009348Y001903D02*
X007878Y001903D01*
X007985Y002062D02*
X009324Y002062D01*
X009274Y002220D02*
X008006Y002220D01*
X007958Y002379D02*
X009180Y002379D01*
X009766Y002062D02*
X010023Y002062D01*
X010023Y001903D02*
X009769Y001903D01*
X009769Y001745D02*
X010023Y001745D01*
X010023Y001586D02*
X009769Y001586D01*
X009824Y001428D02*
X010023Y001428D01*
X010023Y001269D02*
X009879Y001269D01*
X009917Y001111D02*
X010016Y001111D01*
X009955Y000952D02*
X009883Y000952D01*
X009786Y000794D02*
X009743Y000794D01*
X009375Y000794D02*
X009251Y000794D01*
X008883Y000794D02*
X008758Y000794D01*
X008391Y000794D02*
X008266Y000794D01*
X007899Y000794D02*
X007774Y000794D01*
X007407Y000794D02*
X007282Y000794D01*
X006915Y000794D02*
X006790Y000794D01*
X006422Y000794D02*
X006298Y000794D01*
X005930Y000794D02*
X005806Y000794D01*
X005438Y000794D02*
X003525Y000794D01*
X003953Y000952D02*
X005298Y000952D01*
X005264Y001111D02*
X003992Y001111D01*
X003949Y001269D02*
X005302Y001269D01*
X005547Y001811D02*
X005409Y001869D01*
X005303Y001975D01*
X005245Y002113D01*
X005245Y002263D01*
X005303Y002401D01*
X005409Y002507D01*
X005547Y002564D01*
X005697Y002564D01*
X005835Y002507D01*
X005941Y002401D01*
X005998Y002263D01*
X005998Y002113D01*
X005941Y001975D01*
X005835Y001869D01*
X005697Y001811D01*
X005547Y001811D01*
X005374Y001903D02*
X004885Y001903D01*
X004851Y001869D02*
X004957Y001975D01*
X005014Y002113D01*
X005014Y002263D01*
X004957Y002401D01*
X004851Y002507D01*
X004713Y002564D01*
X004563Y002564D01*
X004424Y002507D01*
X004318Y002401D01*
X004261Y002263D01*
X004261Y002113D01*
X004318Y001975D01*
X004424Y001869D01*
X004563Y001811D01*
X004713Y001811D01*
X004851Y001869D01*
X004993Y002062D02*
X005267Y002062D01*
X005245Y002220D02*
X005014Y002220D01*
X004966Y002379D02*
X005293Y002379D01*
X005481Y002537D02*
X004778Y002537D01*
X004497Y002537D02*
X003774Y002537D01*
X003493Y002537D02*
X002347Y002537D01*
X002378Y002379D02*
X003305Y002379D01*
X003257Y002220D02*
X002319Y002220D01*
X002435Y002062D02*
X003278Y002062D01*
X002886Y001535D02*
X002737Y001535D01*
X002691Y001523D01*
X002650Y001499D01*
X002617Y001466D01*
X002593Y001425D01*
X002581Y001379D01*
X002581Y001105D01*
X002886Y001105D01*
X002886Y001105D01*
X002886Y001535D01*
X002886Y001428D02*
X002886Y001428D01*
X002886Y001269D02*
X002886Y001269D01*
X002886Y001111D02*
X002886Y001111D01*
X002595Y001428D02*
X002449Y001428D01*
X002435Y001586D02*
X009349Y001586D01*
X009294Y001428D02*
X009224Y001428D01*
X008910Y001428D02*
X008732Y001428D01*
X008417Y001428D02*
X008240Y001428D01*
X007925Y001428D02*
X007748Y001428D01*
X007433Y001428D02*
X007255Y001428D01*
X006358Y001903D02*
X005870Y001903D01*
X005977Y002062D02*
X006251Y002062D01*
X006230Y002220D02*
X005998Y002220D01*
X005950Y002379D02*
X006278Y002379D01*
X006466Y002537D02*
X005762Y002537D01*
X004834Y003602D02*
X004834Y003602D01*
X004789Y003647D02*
X002141Y003647D01*
X002075Y003521D02*
X002075Y003521D01*
X002042Y003488D02*
X002346Y003488D01*
X002250Y003330D02*
X001884Y003330D01*
X001644Y003171D02*
X002233Y003171D01*
X002602Y003171D02*
X002658Y003171D01*
X002658Y003240D02*
X003026Y003240D01*
X003026Y003251D01*
X003011Y003327D01*
X002981Y003399D01*
X002938Y003464D01*
X002883Y003520D01*
X002818Y003563D01*
X002745Y003593D01*
X002669Y003608D01*
X002658Y003608D01*
X002658Y003240D01*
X002658Y003330D02*
X002602Y003330D01*
X002602Y003488D02*
X002658Y003488D01*
X002914Y003488D02*
X008417Y003488D01*
X008314Y003330D02*
X003010Y003330D01*
X003026Y003171D02*
X008297Y003171D01*
X008348Y003013D02*
X002974Y003013D01*
X002803Y002854D02*
X008552Y002854D01*
X008442Y003914D02*
X005236Y003914D01*
X005179Y003919D01*
X005075Y003962D01*
X004995Y004043D01*
X004952Y004147D01*
X004946Y004204D01*
X004946Y006436D01*
X004834Y006928D01*
X004615Y007382D01*
X004301Y007776D01*
X003906Y008091D01*
X003452Y008309D01*
X002961Y008421D01*
X002950Y008421D01*
X002949Y008425D01*
X002843Y008531D01*
X002705Y008588D01*
X002555Y008588D01*
X002416Y008531D01*
X002311Y008425D01*
X002298Y008394D01*
X002298Y008612D01*
X002246Y008664D01*
X002298Y008716D01*
X002298Y009033D01*
X002311Y009002D01*
X002416Y008896D01*
X002555Y008839D01*
X002705Y008839D01*
X002843Y008896D01*
X002949Y009002D01*
X002950Y009005D01*
X005014Y009005D01*
X005078Y008993D01*
X005210Y008932D01*
X005317Y008834D01*
X005388Y008707D01*
X005396Y008665D01*
X005368Y008637D01*
X005323Y008527D01*
X005323Y008408D01*
X005368Y008298D01*
X005452Y008214D01*
X005562Y008168D01*
X005681Y008168D01*
X005791Y008214D01*
X005875Y008298D01*
X005878Y008304D01*
X005880Y008298D01*
X005964Y008214D01*
X006074Y008168D01*
X006193Y008168D01*
X006303Y008214D01*
X006370Y008281D01*
X006437Y008214D01*
X006547Y008168D01*
X006666Y008168D01*
X006776Y008214D01*
X006852Y008291D01*
X006929Y008214D01*
X007039Y008168D01*
X007158Y008168D01*
X007268Y008214D01*
X007352Y008298D01*
X007397Y008408D01*
X007397Y008527D01*
X007352Y008637D01*
X007351Y008637D01*
X007410Y008769D01*
X007568Y008919D01*
X007771Y008998D01*
X007879Y009005D01*
X007883Y009005D01*
X007967Y009003D01*
X007970Y009005D01*
X008333Y009005D01*
X008334Y009002D01*
X008440Y008896D01*
X008578Y008839D01*
X008728Y008839D01*
X008867Y008896D01*
X008973Y009002D01*
X009030Y009141D01*
X009030Y009290D01*
X008973Y009429D01*
X008867Y009535D01*
X008728Y009592D01*
X008578Y009592D01*
X008440Y009535D01*
X008334Y009429D01*
X008333Y009425D01*
X007888Y009425D01*
X007697Y009430D01*
X007697Y009430D01*
X007333Y009291D01*
X007051Y009023D01*
X006908Y008700D01*
X006852Y008644D01*
X006816Y008680D01*
X006816Y008884D01*
X006823Y008960D01*
X006867Y009106D01*
X006948Y009237D01*
X006999Y009291D01*
X007003Y009295D01*
X007064Y009353D01*
X007064Y009356D01*
X007552Y009844D01*
X007555Y009843D01*
X007705Y009843D01*
X007843Y009900D01*
X007949Y010006D01*
X008006Y010144D01*
X008006Y010294D01*
X007949Y010433D01*
X007843Y010539D01*
X007705Y010596D01*
X007555Y010596D01*
X007416Y010539D01*
X007311Y010433D01*
X007253Y010294D01*
X007253Y010144D01*
X007255Y010141D01*
X006710Y009597D01*
X006616Y009508D01*
X006476Y009282D01*
X006400Y009028D01*
X006399Y008979D01*
X006396Y008976D01*
X006396Y008892D01*
X006394Y008809D01*
X006396Y008806D01*
X006396Y008680D01*
X006370Y008654D01*
X006344Y008680D01*
X006344Y009532D01*
X006276Y009786D01*
X006276Y009786D01*
X006144Y010014D01*
X006052Y010106D01*
X006052Y010106D01*
X006017Y010141D01*
X006018Y010144D01*
X006018Y010294D01*
X005961Y010433D01*
X005855Y010539D01*
X005716Y010596D01*
X005567Y010596D01*
X005428Y010539D01*
X005322Y010433D01*
X005265Y010294D01*
X005265Y010144D01*
X005322Y010006D01*
X005428Y009900D01*
X005567Y009843D01*
X005716Y009843D01*
X005720Y009844D01*
X005755Y009809D01*
X005804Y009753D01*
X005880Y009622D01*
X005919Y009476D01*
X005924Y009401D01*
X005924Y008680D01*
X005880Y008637D01*
X005878Y008631D01*
X005875Y008637D01*
X005826Y008686D01*
X005792Y008856D01*
X005655Y009101D01*
X005449Y009291D01*
X005195Y009408D01*
X005195Y009408D01*
X005128Y009415D01*
X005118Y009425D01*
X005044Y009425D01*
X004969Y009434D01*
X004958Y009425D01*
X002950Y009425D01*
X002949Y009429D01*
X002843Y009535D01*
X002705Y009592D01*
X002555Y009592D01*
X002416Y009535D01*
X002311Y009429D01*
X002253Y009290D01*
X002253Y009169D01*
X002204Y009218D01*
X001717Y009218D01*
X001648Y009149D01*
X001645Y009157D01*
X001528Y009274D01*
X001432Y009314D01*
X001528Y009354D01*
X001645Y009471D01*
X001709Y009625D01*
X001709Y009791D01*
X001645Y009944D01*
X001528Y010061D01*
X001374Y010125D01*
X001361Y010125D01*
X003817Y012240D01*
X003817Y012240D01*
X003868Y012283D01*
X003986Y012385D01*
X004006Y012402D01*
X004006Y012402D01*
X004006Y012402D01*
X004099Y012546D01*
X004099Y011797D01*
X004111Y011751D01*
X004135Y011710D01*
X004168Y011677D01*
X004209Y011653D01*
X004255Y011641D01*
X004509Y011641D01*
X004509Y012551D01*
X004649Y012551D01*
X004649Y012691D01*
X005059Y012691D01*
X005059Y013026D01*
X005119Y013026D01*
X005119Y011755D01*
X005212Y011661D01*
X005322Y011661D01*
X005323Y011660D01*
X005323Y011345D01*
X004250Y011345D01*
X004248Y011346D01*
X004203Y011345D01*
X004157Y011345D01*
X004155Y011344D01*
X004037Y011342D01*
X003736Y011215D01*
X003736Y011215D01*
X003505Y010983D01*
X003377Y010682D01*
X003375Y010560D01*
X003373Y010555D01*
X003374Y010513D01*
X003374Y010492D01*
X003314Y010433D01*
X003257Y010294D01*
X003257Y010144D01*
X003314Y010006D01*
X003420Y009900D01*
X003559Y009843D01*
X003709Y009843D01*
X003847Y009900D01*
X003953Y010006D01*
X004010Y010144D01*
X004010Y010294D01*
X003953Y010433D01*
X003856Y010529D01*
X003862Y010579D01*
X003916Y010706D01*
X004013Y010804D01*
X004140Y010857D01*
X004208Y010865D01*
X005611Y010865D01*
X005699Y010902D01*
X005766Y010969D01*
X005803Y011057D01*
X005803Y011661D01*
X005945Y011661D01*
X006039Y011755D01*
X006039Y013026D01*
X006099Y013026D01*
X006099Y012691D01*
X006509Y012691D01*
X006509Y012551D01*
X006649Y012551D01*
X006649Y011641D01*
X006902Y011641D01*
X006948Y011653D01*
X006989Y011677D01*
X007023Y011710D01*
X007046Y011751D01*
X007059Y011797D01*
X007059Y012525D01*
X007171Y012357D01*
X007171Y012357D01*
X007194Y012338D01*
X007194Y012338D01*
X009853Y010153D01*
X009853Y010153D01*
X009879Y010131D01*
X009894Y010119D01*
X009755Y010061D01*
X009638Y009944D01*
X009574Y009791D01*
X009574Y009625D01*
X009638Y009471D01*
X009755Y009354D01*
X009852Y009314D01*
X009755Y009274D01*
X009638Y009157D01*
X009574Y009003D01*
X009574Y008837D01*
X009638Y008684D01*
X009755Y008566D01*
X009852Y008526D01*
X009755Y008487D01*
X009638Y008369D01*
X009574Y008216D01*
X009574Y008050D01*
X009638Y007896D01*
X009755Y007779D01*
X009852Y007739D01*
X009755Y007699D01*
X009638Y007582D01*
X009574Y007428D01*
X009574Y007262D01*
X009638Y007109D01*
X009755Y006991D01*
X009852Y006952D01*
X009755Y006912D01*
X009638Y006794D01*
X009574Y006641D01*
X009574Y006475D01*
X009638Y006321D01*
X009755Y006204D01*
X009852Y006164D01*
X009755Y006124D01*
X009638Y006007D01*
X009574Y005854D01*
X009574Y005688D01*
X009638Y005534D01*
X009755Y005417D01*
X009852Y005377D01*
X009755Y005337D01*
X009638Y005220D01*
X009574Y005066D01*
X009574Y004900D01*
X009638Y004747D01*
X009755Y004629D01*
X009852Y004589D01*
X009755Y004550D01*
X009638Y004432D01*
X009574Y004279D01*
X009574Y004113D01*
X009638Y003959D01*
X009755Y003842D01*
X009852Y003802D01*
X009826Y003792D01*
X009747Y003837D01*
X009747Y003837D01*
X009453Y003914D01*
X009302Y003914D01*
X008904Y003914D01*
X008992Y004002D01*
X009050Y004141D01*
X009050Y004290D01*
X008992Y004429D01*
X008886Y004535D01*
X008748Y004592D01*
X008598Y004592D01*
X008460Y004535D01*
X008370Y004445D01*
X005480Y004445D01*
X005437Y004489D01*
X005327Y004534D01*
X005208Y004534D01*
X005098Y004489D01*
X005014Y004405D01*
X004969Y004295D01*
X004969Y004176D01*
X005014Y004066D01*
X005098Y003982D01*
X005208Y003936D01*
X005327Y003936D01*
X005437Y003982D01*
X005480Y004025D01*
X008344Y004025D01*
X008354Y004002D01*
X008442Y003914D01*
X008392Y003964D02*
X005394Y003964D01*
X005141Y003964D02*
X005074Y003964D01*
X004991Y004122D02*
X004962Y004122D01*
X004946Y004281D02*
X004969Y004281D01*
X004946Y004439D02*
X005049Y004439D01*
X004946Y004598D02*
X008852Y004598D01*
X008813Y004637D02*
X008897Y004552D01*
X009007Y004507D01*
X009126Y004507D01*
X009236Y004552D01*
X009320Y004637D01*
X009366Y004746D01*
X009366Y004865D01*
X009320Y004975D01*
X009278Y005018D01*
X009282Y005104D01*
X009282Y005104D01*
X009179Y005303D01*
X008998Y005420D01*
X008992Y005433D01*
X008886Y005539D01*
X008748Y005596D01*
X008598Y005596D01*
X008460Y005539D01*
X008354Y005433D01*
X008297Y005294D01*
X008297Y005144D01*
X008354Y005006D01*
X008460Y004900D01*
X008598Y004843D01*
X008748Y004843D01*
X008768Y004851D01*
X008768Y004746D01*
X008813Y004637D01*
X008768Y004756D02*
X004946Y004756D01*
X004946Y004915D02*
X008445Y004915D01*
X008326Y005073D02*
X004946Y005073D01*
X004946Y005232D02*
X008297Y005232D01*
X008336Y005390D02*
X004946Y005390D01*
X004946Y005549D02*
X008484Y005549D01*
X008598Y005827D02*
X008460Y005884D01*
X008354Y005990D01*
X008297Y006129D01*
X008297Y006279D01*
X008354Y006417D01*
X008460Y006523D01*
X008598Y006580D01*
X008748Y006580D01*
X008886Y006523D01*
X008992Y006417D01*
X008994Y006414D01*
X009090Y006414D01*
X009134Y006457D01*
X009244Y006503D01*
X009362Y006503D01*
X009472Y006457D01*
X009557Y006373D01*
X009602Y006263D01*
X009602Y006144D01*
X009557Y006034D01*
X009472Y005950D01*
X009362Y005905D01*
X009244Y005905D01*
X009134Y005950D01*
X009090Y005994D01*
X008994Y005994D01*
X008992Y005990D01*
X008886Y005884D01*
X008748Y005827D01*
X008598Y005827D01*
X008505Y005866D02*
X004946Y005866D01*
X004946Y006024D02*
X008340Y006024D01*
X008297Y006183D02*
X004946Y006183D01*
X004946Y006341D02*
X008014Y006341D01*
X008023Y006338D02*
X008142Y006338D01*
X008252Y006383D01*
X008336Y006467D01*
X008382Y006577D01*
X008382Y006696D01*
X008336Y006806D01*
X008293Y006849D01*
X008296Y006878D01*
X008321Y006933D01*
X008364Y006974D01*
X008371Y006977D01*
X008460Y006888D01*
X008598Y006831D01*
X008748Y006831D01*
X008886Y006888D01*
X008992Y006994D01*
X009050Y007133D01*
X009050Y007282D01*
X008992Y007421D01*
X008886Y007527D01*
X008748Y007584D01*
X008598Y007584D01*
X008460Y007527D01*
X008354Y007421D01*
X008354Y007420D01*
X008348Y007421D01*
X008135Y007339D01*
X008135Y007339D01*
X007969Y007182D01*
X007876Y006973D01*
X007875Y006943D01*
X007873Y006940D01*
X007873Y006856D01*
X007872Y006849D01*
X007829Y006806D01*
X007783Y006696D01*
X007783Y006577D01*
X007829Y006467D01*
X007913Y006383D01*
X008023Y006338D01*
X008151Y006341D02*
X008323Y006341D01*
X008349Y006500D02*
X008437Y006500D01*
X008382Y006658D02*
X009582Y006658D01*
X009574Y006500D02*
X009370Y006500D01*
X009236Y006500D02*
X008909Y006500D01*
X008973Y006975D02*
X009795Y006975D01*
X009660Y006817D02*
X008325Y006817D01*
X008368Y006975D02*
X008373Y006975D01*
X008085Y007292D02*
X004658Y007292D01*
X004615Y007382D02*
X004615Y007382D01*
X004560Y007451D02*
X007416Y007451D01*
X007421Y007446D02*
X007531Y007401D01*
X007650Y007401D01*
X007760Y007446D01*
X007844Y007530D01*
X007889Y007640D01*
X007889Y007759D01*
X007848Y007859D01*
X007851Y007867D01*
X007935Y007951D01*
X008043Y007996D01*
X008102Y008001D01*
X008353Y008001D01*
X008354Y007998D01*
X008460Y007892D01*
X008598Y007835D01*
X008748Y007835D01*
X008886Y007892D01*
X008992Y007998D01*
X009050Y008137D01*
X009050Y008286D01*
X008992Y008425D01*
X008886Y008531D01*
X008748Y008588D01*
X008598Y008588D01*
X008460Y008531D01*
X008354Y008425D01*
X008353Y008421D01*
X007959Y008421D01*
X007693Y008312D01*
X007490Y008109D01*
X007427Y007956D01*
X007421Y007953D01*
X007337Y007869D01*
X007291Y007759D01*
X007291Y007640D01*
X007337Y007530D01*
X007421Y007446D01*
X007304Y007609D02*
X004434Y007609D01*
X004307Y007768D02*
X007295Y007768D01*
X007394Y007926D02*
X004113Y007926D01*
X004301Y007776D02*
X004301Y007776D01*
X004008Y007451D02*
X002919Y007451D01*
X003002Y007292D02*
X004135Y007292D01*
X004256Y007134D02*
X003006Y007134D01*
X002930Y006975D02*
X004332Y006975D01*
X004408Y006817D02*
X002317Y006817D01*
X002330Y006975D02*
X002281Y006975D01*
X002317Y006658D02*
X004453Y006658D01*
X004489Y006500D02*
X002886Y006500D01*
X002988Y006341D02*
X004517Y006341D01*
X004526Y006183D02*
X003006Y006183D01*
X002955Y006024D02*
X004526Y006024D01*
X004526Y005866D02*
X002750Y005866D01*
X002509Y005866D02*
X001704Y005866D01*
X001709Y005707D02*
X004526Y005707D01*
X004526Y005549D02*
X002771Y005549D01*
X002958Y005390D02*
X004526Y005390D01*
X004526Y005232D02*
X003631Y005232D01*
X003606Y005256D02*
X003496Y005302D01*
X003377Y005302D01*
X003267Y005256D01*
X003183Y005172D01*
X003138Y005062D01*
X003138Y004943D01*
X003183Y004833D01*
X003197Y004820D01*
X003197Y004688D01*
X003192Y004639D01*
X003154Y004548D01*
X003085Y004478D01*
X002994Y004441D01*
X002945Y004436D01*
X002922Y004436D01*
X002843Y004515D01*
X002705Y004572D01*
X002555Y004572D01*
X002416Y004515D01*
X002311Y004409D01*
X002253Y004271D01*
X002253Y004121D01*
X002311Y003982D01*
X002416Y003877D01*
X002555Y003819D01*
X002705Y003819D01*
X002843Y003877D01*
X002922Y003956D01*
X003090Y003956D01*
X003359Y004067D01*
X003359Y004067D01*
X003565Y004273D01*
X003677Y004542D01*
X003677Y004820D01*
X003690Y004833D01*
X003736Y004943D01*
X003736Y005062D01*
X003690Y005172D01*
X003606Y005256D01*
X003731Y005073D02*
X004526Y005073D01*
X004526Y004915D02*
X003724Y004915D01*
X003677Y004756D02*
X004526Y004756D01*
X004526Y004598D02*
X003677Y004598D01*
X003634Y004439D02*
X004526Y004439D01*
X004526Y004281D02*
X003569Y004281D01*
X003565Y004273D02*
X003565Y004273D01*
X003414Y004122D02*
X004526Y004122D01*
X004567Y003964D02*
X003110Y003964D01*
X002945Y004196D02*
X002630Y004196D01*
X002919Y004439D02*
X002980Y004439D01*
X003175Y004598D02*
X002190Y004598D01*
X002190Y004439D02*
X002341Y004439D01*
X002257Y004281D02*
X002190Y004281D01*
X002190Y004122D02*
X002253Y004122D01*
X002190Y003964D02*
X002329Y003964D01*
X002190Y003805D02*
X004633Y003805D01*
X004634Y003801D02*
X004634Y003801D01*
X003437Y004688D02*
X003437Y005003D01*
X003243Y005232D02*
X003006Y005232D01*
X002985Y005073D02*
X003142Y005073D01*
X003150Y004915D02*
X002877Y004915D01*
X003437Y004688D02*
X003435Y004645D01*
X003430Y004603D01*
X003420Y004561D01*
X003407Y004520D01*
X003391Y004480D01*
X003371Y004442D01*
X003348Y004406D01*
X003322Y004372D01*
X003293Y004340D01*
X003261Y004311D01*
X003227Y004285D01*
X003191Y004262D01*
X003153Y004242D01*
X003113Y004226D01*
X003072Y004213D01*
X003030Y004203D01*
X002988Y004198D01*
X002945Y004196D01*
X003197Y004756D02*
X002230Y004756D01*
X001950Y005073D02*
X001706Y005073D01*
X001709Y004915D02*
X001833Y004915D01*
X001770Y004756D02*
X001649Y004756D01*
X001770Y004598D02*
X001452Y004598D01*
X001638Y004439D02*
X001770Y004439D01*
X001770Y004281D02*
X001708Y004281D01*
X001709Y004122D02*
X001770Y004122D01*
X001770Y003964D02*
X001647Y003964D01*
X001748Y003805D02*
X001439Y003805D01*
X002602Y003013D02*
X002658Y003013D01*
X002658Y002854D02*
X002602Y002854D01*
X002079Y002404D02*
X002079Y001834D01*
X001839Y002220D02*
X001660Y002220D01*
X001729Y002379D02*
X001780Y002379D01*
X001810Y002537D02*
X001729Y002537D01*
X002455Y001269D02*
X002581Y001269D01*
X002581Y001111D02*
X002455Y001111D01*
X002455Y000952D02*
X002581Y000952D01*
X002591Y000794D02*
X002369Y000794D01*
X002097Y000794D02*
X002060Y000794D01*
X002060Y000952D02*
X002097Y000952D01*
X002097Y001111D02*
X002060Y001111D01*
X003882Y001903D02*
X004390Y001903D01*
X004282Y002062D02*
X003989Y002062D01*
X004010Y002220D02*
X004261Y002220D01*
X004309Y002379D02*
X003962Y002379D01*
X002109Y005232D02*
X001633Y005232D01*
X001464Y005390D02*
X002267Y005390D01*
X002488Y005549D02*
X001651Y005549D01*
X001628Y006024D02*
X001643Y006024D01*
X001643Y006183D02*
X001476Y006183D01*
X002286Y006500D02*
X002374Y006500D01*
X002515Y007609D02*
X003818Y007609D01*
X003582Y007768D02*
X002351Y007768D01*
X002383Y007926D02*
X002200Y007926D01*
X002170Y008085D02*
X002275Y008085D01*
X002298Y008402D02*
X002301Y008402D01*
X002298Y008560D02*
X002488Y008560D01*
X002298Y008719D02*
X005381Y008719D01*
X005337Y008560D02*
X002772Y008560D01*
X003047Y008402D02*
X005325Y008402D01*
X005423Y008243D02*
X003589Y008243D01*
X003452Y008309D02*
X003452Y008309D01*
X003192Y007926D02*
X002877Y007926D01*
X002797Y008877D02*
X005269Y008877D01*
X005554Y009194D02*
X005924Y009194D01*
X005924Y009036D02*
X005691Y009036D01*
X005780Y008877D02*
X005924Y008877D01*
X005924Y008719D02*
X005820Y008719D01*
X006344Y008719D02*
X006396Y008719D01*
X006396Y008877D02*
X006344Y008877D01*
X006344Y009036D02*
X006402Y009036D01*
X006400Y009028D02*
X006400Y009028D01*
X006450Y009194D02*
X006344Y009194D01*
X006344Y009353D02*
X006520Y009353D01*
X006476Y009282D02*
X006476Y009282D01*
X006344Y009511D02*
X006619Y009511D01*
X006616Y009508D02*
X006616Y009508D01*
X006783Y009670D02*
X006307Y009670D01*
X006251Y009828D02*
X006942Y009828D01*
X006859Y009900D02*
X006965Y010006D01*
X007022Y010144D01*
X007022Y010294D01*
X006965Y010433D01*
X006859Y010539D01*
X006720Y010596D01*
X006571Y010596D01*
X006432Y010539D01*
X006326Y010433D01*
X006269Y010294D01*
X006269Y010144D01*
X006326Y010006D01*
X006432Y009900D01*
X006571Y009843D01*
X006720Y009843D01*
X006859Y009900D01*
X006945Y009987D02*
X007100Y009987D01*
X007022Y010145D02*
X007253Y010145D01*
X007257Y010304D02*
X007018Y010304D01*
X006935Y010462D02*
X007340Y010462D01*
X007919Y010462D02*
X009477Y010462D01*
X009284Y010621D02*
X003879Y010621D01*
X003923Y010462D02*
X004323Y010462D01*
X004330Y010472D02*
X004286Y010407D01*
X004256Y010335D01*
X004241Y010258D01*
X004241Y010248D01*
X004609Y010248D01*
X004609Y010191D01*
X004241Y010191D01*
X004241Y010180D01*
X004256Y010104D01*
X004286Y010032D01*
X004330Y009967D01*
X004385Y009911D01*
X004450Y009868D01*
X004522Y009838D01*
X004599Y009823D01*
X004609Y009823D01*
X004609Y010191D01*
X004666Y010191D01*
X004666Y010248D01*
X004609Y010248D01*
X004609Y010616D01*
X004599Y010616D01*
X004522Y010601D01*
X004450Y010571D01*
X004385Y010527D01*
X004330Y010472D01*
X004205Y011105D02*
X004159Y011102D01*
X004113Y011096D01*
X004068Y011087D01*
X004023Y011074D01*
X003980Y011057D01*
X003939Y011038D01*
X003898Y011015D01*
X003860Y010989D01*
X003824Y010960D01*
X003790Y010929D01*
X003759Y010895D01*
X003730Y010859D01*
X003704Y010821D01*
X003681Y010780D01*
X003662Y010739D01*
X003645Y010696D01*
X003632Y010651D01*
X003623Y010606D01*
X003617Y010560D01*
X003614Y010514D01*
X003376Y010621D02*
X001937Y010621D01*
X002121Y010779D02*
X003418Y010779D01*
X003377Y010682D02*
X003377Y010682D01*
X003344Y010462D02*
X001753Y010462D01*
X001569Y010304D02*
X003261Y010304D01*
X003257Y010145D02*
X001385Y010145D01*
X001602Y009987D02*
X003334Y009987D01*
X002866Y009511D02*
X005909Y009511D01*
X005852Y009670D02*
X001709Y009670D01*
X001693Y009828D02*
X004572Y009828D01*
X004609Y009828D02*
X004666Y009828D01*
X004666Y009823D02*
X004677Y009823D01*
X004753Y009838D01*
X004825Y009868D01*
X004890Y009911D01*
X004946Y009967D01*
X004989Y010032D01*
X005019Y010104D01*
X005034Y010180D01*
X005034Y010191D01*
X004666Y010191D01*
X004666Y009823D01*
X004704Y009828D02*
X005736Y009828D01*
X006018Y010145D02*
X006269Y010145D01*
X006273Y010304D02*
X006014Y010304D01*
X005931Y010462D02*
X006356Y010462D01*
X006346Y009987D02*
X006160Y009987D01*
X006144Y010014D02*
X006144Y010014D01*
X005924Y009353D02*
X005314Y009353D01*
X005449Y009291D02*
X005449Y009291D01*
X005342Y009987D02*
X004959Y009987D01*
X005027Y010145D02*
X005265Y010145D01*
X005269Y010304D02*
X005025Y010304D01*
X005019Y010335D02*
X005034Y010258D01*
X005034Y010248D01*
X004666Y010248D01*
X004666Y010616D01*
X004677Y010616D01*
X004753Y010601D01*
X004825Y010571D01*
X004890Y010527D01*
X004946Y010472D01*
X004989Y010407D01*
X005019Y010335D01*
X004952Y010462D02*
X005352Y010462D01*
X005735Y010938D02*
X008898Y010938D01*
X008705Y011096D02*
X005803Y011096D01*
X005803Y011255D02*
X008512Y011255D01*
X008319Y011413D02*
X005803Y011413D01*
X005803Y011572D02*
X008126Y011572D01*
X007934Y011730D02*
X007034Y011730D01*
X007059Y011889D02*
X007741Y011889D01*
X007548Y012047D02*
X007059Y012047D01*
X007059Y012206D02*
X007355Y012206D01*
X007166Y012364D02*
X007059Y012364D01*
X007059Y012523D02*
X007060Y012523D01*
X006649Y012523D02*
X006509Y012523D01*
X006509Y012551D02*
X006509Y011641D01*
X006255Y011641D01*
X006209Y011653D01*
X006168Y011677D01*
X006135Y011710D01*
X006111Y011751D01*
X006099Y011797D01*
X006099Y012551D01*
X006509Y012551D01*
X006509Y012681D02*
X006039Y012681D01*
X006039Y012840D02*
X006099Y012840D01*
X006099Y012998D02*
X006039Y012998D01*
X006039Y012523D02*
X006099Y012523D01*
X006099Y012364D02*
X006039Y012364D01*
X006039Y012206D02*
X006099Y012206D01*
X006099Y012047D02*
X006039Y012047D01*
X006039Y011889D02*
X006099Y011889D01*
X006123Y011730D02*
X006014Y011730D01*
X005563Y011814D02*
X005563Y011105D01*
X004205Y011105D01*
X004037Y011342D02*
X004037Y011342D01*
X003830Y011255D02*
X002673Y011255D01*
X002489Y011096D02*
X003617Y011096D01*
X003505Y010983D02*
X003505Y010983D01*
X003485Y010938D02*
X002305Y010938D01*
X002857Y011413D02*
X005323Y011413D01*
X005323Y011572D02*
X003041Y011572D01*
X003226Y011730D02*
X004123Y011730D01*
X004099Y011889D02*
X003410Y011889D01*
X003594Y012047D02*
X004099Y012047D01*
X004099Y012206D02*
X003778Y012206D01*
X003962Y012364D02*
X004099Y012364D01*
X003986Y012385D02*
X003986Y012385D01*
X004084Y012523D02*
X004099Y012523D01*
X004509Y012523D02*
X004649Y012523D01*
X004649Y012551D02*
X004649Y011641D01*
X004902Y011641D01*
X004948Y011653D01*
X004989Y011677D01*
X005023Y011710D01*
X005046Y011751D01*
X005059Y011797D01*
X005059Y012551D01*
X004649Y012551D01*
X004649Y012681D02*
X005119Y012681D01*
X005119Y012840D02*
X005059Y012840D01*
X005059Y012998D02*
X005119Y012998D01*
X005119Y012523D02*
X005059Y012523D01*
X005059Y012364D02*
X005119Y012364D01*
X005119Y012206D02*
X005059Y012206D01*
X005059Y012047D02*
X005119Y012047D01*
X005119Y011889D02*
X005059Y011889D01*
X005034Y011730D02*
X005143Y011730D01*
X004649Y011730D02*
X004509Y011730D01*
X004509Y011889D02*
X004649Y011889D01*
X004649Y012047D02*
X004509Y012047D01*
X004509Y012206D02*
X004649Y012206D01*
X004649Y012364D02*
X004509Y012364D01*
X003989Y010779D02*
X009091Y010779D01*
X009670Y010304D02*
X008002Y010304D01*
X008006Y010145D02*
X009863Y010145D01*
X009681Y009987D02*
X007930Y009987D01*
X007536Y009828D02*
X009590Y009828D01*
X009574Y009670D02*
X007377Y009670D01*
X007219Y009511D02*
X008417Y009511D01*
X008890Y009511D02*
X009621Y009511D01*
X009758Y009353D02*
X009004Y009353D01*
X009030Y009194D02*
X009676Y009194D01*
X009588Y009036D02*
X008987Y009036D01*
X008821Y008877D02*
X009574Y008877D01*
X009624Y008719D02*
X007388Y008719D01*
X007384Y008560D02*
X008531Y008560D01*
X008815Y008560D02*
X009770Y008560D01*
X009671Y008402D02*
X009002Y008402D01*
X009050Y008243D02*
X009586Y008243D01*
X009574Y008085D02*
X009028Y008085D01*
X008920Y007926D02*
X009626Y007926D01*
X009782Y007768D02*
X007886Y007768D01*
X007877Y007609D02*
X009665Y007609D01*
X009584Y007451D02*
X008962Y007451D01*
X009046Y007292D02*
X009574Y007292D01*
X009628Y007134D02*
X009050Y007134D01*
X008384Y007451D02*
X007764Y007451D01*
X007969Y007182D02*
X007969Y007182D01*
X007947Y007134D02*
X004735Y007134D01*
X004811Y006975D02*
X007877Y006975D01*
X007876Y006973D02*
X007876Y006973D01*
X007840Y006817D02*
X004859Y006817D01*
X004834Y006928D02*
X004834Y006928D01*
X004895Y006658D02*
X007783Y006658D01*
X007816Y006500D02*
X004932Y006500D01*
X004946Y005707D02*
X009574Y005707D01*
X009580Y005866D02*
X008841Y005866D01*
X008862Y005549D02*
X009632Y005549D01*
X009819Y005390D02*
X009044Y005390D01*
X009179Y005303D02*
X009179Y005303D01*
X009179Y005303D01*
X009216Y005232D02*
X009650Y005232D01*
X009577Y005073D02*
X009280Y005073D01*
X009345Y004915D02*
X009574Y004915D01*
X009634Y004756D02*
X009366Y004756D01*
X009281Y004598D02*
X009832Y004598D01*
X009645Y004439D02*
X008982Y004439D01*
X009050Y004281D02*
X009575Y004281D01*
X009574Y004122D02*
X009042Y004122D01*
X008954Y003964D02*
X009636Y003964D01*
X009802Y003805D02*
X009844Y003805D01*
X009655Y006024D02*
X009547Y006024D01*
X009602Y006183D02*
X009807Y006183D01*
X009630Y006341D02*
X009570Y006341D01*
X008348Y007421D02*
X008348Y007421D01*
X008426Y007926D02*
X007910Y007926D01*
X007625Y008243D02*
X007297Y008243D01*
X007490Y008109D02*
X007490Y008109D01*
X007490Y008109D01*
X007480Y008085D02*
X003914Y008085D01*
X003906Y008091D02*
X003906Y008091D01*
X002462Y008877D02*
X002298Y008877D01*
X002253Y009194D02*
X002228Y009194D01*
X002279Y009353D02*
X001525Y009353D01*
X001608Y009194D02*
X001693Y009194D01*
X001662Y009511D02*
X002393Y009511D01*
X003934Y009987D02*
X004316Y009987D01*
X004248Y010145D02*
X004010Y010145D01*
X004006Y010304D02*
X004250Y010304D01*
X004609Y010304D02*
X004666Y010304D01*
X004666Y010145D02*
X004609Y010145D01*
X004609Y009987D02*
X004666Y009987D01*
X004666Y010462D02*
X004609Y010462D01*
X006509Y011730D02*
X006649Y011730D01*
X006649Y011889D02*
X006509Y011889D01*
X006509Y012047D02*
X006649Y012047D01*
X006649Y012206D02*
X006509Y012206D01*
X006509Y012364D02*
X006649Y012364D01*
X003614Y010514D02*
X003619Y010416D01*
X003625Y010317D01*
X003634Y010219D01*
X005821Y008243D02*
X005935Y008243D01*
X006332Y008243D02*
X006407Y008243D01*
X006805Y008243D02*
X006900Y008243D01*
X007395Y008402D02*
X007911Y008402D01*
X007524Y008877D02*
X008486Y008877D01*
X007495Y009353D02*
X007064Y009353D01*
X006922Y009194D02*
X007232Y009194D01*
X007333Y009291D02*
X007333Y009291D01*
X007065Y009036D02*
X006846Y009036D01*
X006816Y008877D02*
X006987Y008877D01*
X007051Y009023D02*
X007051Y009023D01*
X006916Y008719D02*
X006816Y008719D01*
D19*
X005563Y011814D02*
X005579Y012330D01*
X005579Y012621D01*
X004913Y012621D02*
X004047Y012621D01*
X004027Y012227D01*
X006606Y012621D02*
X007118Y012621D01*
X007118Y012326D01*
D20*
X006035Y011479D03*
X006055Y011086D03*
X006055Y010711D03*
X005642Y010711D03*
X005248Y010711D03*
X004854Y010711D03*
X004460Y010711D03*
X004106Y010613D03*
X003496Y011223D03*
X003279Y010889D03*
X003102Y010515D03*
X003161Y009826D03*
X003614Y009668D03*
X004086Y009806D03*
X005622Y008467D03*
X006134Y008467D03*
X006606Y008467D03*
X007098Y008467D03*
X007590Y007700D03*
X008083Y006637D03*
X009303Y006204D03*
X009067Y004806D03*
X005268Y004235D03*
X003437Y005003D03*
X001960Y007188D03*
X003850Y011440D03*
X004283Y011479D03*
X004697Y011479D03*
X005110Y011479D03*
X002079Y002404D03*
X003693Y001105D03*
D21*
X003240Y001105D01*
X001665Y003408D02*
X001291Y003408D01*
X001665Y003408D02*
X001865Y003608D01*
X001980Y003886D02*
X001980Y004643D01*
X002095Y004921D02*
X002374Y005200D01*
X002630Y005200D01*
X002095Y004922D02*
X002069Y004893D01*
X002046Y004862D01*
X002027Y004829D01*
X002010Y004794D01*
X001997Y004757D01*
X001988Y004720D01*
X001982Y004682D01*
X001980Y004643D01*
X001980Y003886D02*
X001978Y003847D01*
X001972Y003809D01*
X001963Y003772D01*
X001950Y003735D01*
X001933Y003700D01*
X001914Y003667D01*
X001891Y003636D01*
X001865Y003607D01*
X004737Y006184D02*
X004735Y006272D01*
X004729Y006361D01*
X004720Y006449D01*
X004706Y006536D01*
X004689Y006623D01*
X004668Y006709D01*
X004643Y006794D01*
X004615Y006878D01*
X004583Y006960D01*
X004547Y007041D01*
X004508Y007120D01*
X004465Y007198D01*
X004419Y007274D01*
X004370Y007347D01*
X004318Y007419D01*
X004263Y007488D01*
X004204Y007554D01*
X004143Y007618D01*
X004079Y007679D01*
X004013Y007738D01*
X003944Y007793D01*
X003872Y007845D01*
X003799Y007894D01*
X003723Y007940D01*
X003645Y007983D01*
X003566Y008022D01*
X003485Y008058D01*
X003403Y008090D01*
X003319Y008118D01*
X003234Y008143D01*
X003148Y008164D01*
X003061Y008181D01*
X002974Y008195D01*
X002886Y008204D01*
X002797Y008210D01*
X002709Y008212D01*
X002709Y008211D02*
X002630Y008211D01*
X001961Y008000D02*
X001964Y007965D01*
X001971Y007931D01*
X001981Y007897D01*
X001993Y007864D01*
X002009Y007832D01*
X002027Y007802D01*
X002047Y007773D01*
X002070Y007747D01*
X002096Y007722D01*
X002095Y007722D02*
X002630Y007208D01*
X001980Y006735D02*
X001960Y006755D01*
X001960Y007188D01*
X001960Y008001D02*
X001960Y008408D01*
X001960Y008920D02*
X001291Y008920D01*
X002630Y009215D02*
X005031Y009215D01*
X006133Y009401D02*
X006131Y009452D01*
X006126Y009504D01*
X006118Y009555D01*
X006106Y009605D01*
X006091Y009654D01*
X006073Y009702D01*
X006052Y009749D01*
X006028Y009795D01*
X006000Y009838D01*
X005970Y009880D01*
X005938Y009920D01*
X005902Y009957D01*
X005903Y009958D02*
X005642Y010219D01*
X006134Y009401D02*
X006134Y008467D01*
X006606Y008467D02*
X006606Y008889D01*
X006856Y009446D02*
X007630Y010219D01*
X007886Y009215D02*
X008653Y009215D01*
X007886Y009216D02*
X007831Y009215D01*
X007776Y009211D01*
X007722Y009202D01*
X007669Y009190D01*
X007616Y009174D01*
X007565Y009155D01*
X007515Y009131D01*
X007467Y009105D01*
X007422Y009074D01*
X007378Y009041D01*
X007337Y009005D01*
X007299Y008966D01*
X007263Y008924D01*
X007231Y008880D01*
X007202Y008833D01*
X007176Y008785D01*
X007154Y008735D01*
X007135Y008683D01*
X007120Y008630D01*
X007109Y008577D01*
X007102Y008522D01*
X007098Y008468D01*
X006605Y008890D02*
X006609Y008942D01*
X006615Y008994D01*
X006625Y009045D01*
X006639Y009095D01*
X006655Y009145D01*
X006675Y009193D01*
X006698Y009240D01*
X006724Y009285D01*
X006753Y009329D01*
X006785Y009370D01*
X006819Y009410D01*
X006856Y009447D01*
X008102Y008211D02*
X008673Y008211D01*
X008102Y008212D02*
X008060Y008210D01*
X008018Y008205D01*
X007976Y008196D01*
X007936Y008184D01*
X007896Y008169D01*
X007858Y008150D01*
X007822Y008129D01*
X007788Y008104D01*
X007755Y008077D01*
X007725Y008047D01*
X007698Y008014D01*
X007673Y007980D01*
X007652Y007944D01*
X007633Y007906D01*
X007618Y007866D01*
X007606Y007826D01*
X007597Y007784D01*
X007592Y007742D01*
X007590Y007700D01*
X008083Y006853D02*
X008083Y006637D01*
X008083Y006853D02*
X008086Y006891D01*
X008093Y006928D01*
X008104Y006965D01*
X008119Y007000D01*
X008137Y007033D01*
X008158Y007065D01*
X008183Y007094D01*
X008211Y007120D01*
X008241Y007143D01*
X008274Y007163D01*
X008308Y007179D01*
X008344Y007192D01*
X008381Y007201D01*
X008419Y007206D01*
X008457Y007207D01*
X008457Y007208D02*
X008673Y007208D01*
X008673Y006204D02*
X009303Y006204D01*
X008870Y005219D02*
X008673Y005219D01*
X008870Y005220D02*
X008897Y005217D01*
X008923Y005210D01*
X008948Y005200D01*
X008972Y005187D01*
X008994Y005171D01*
X009013Y005152D01*
X009030Y005131D01*
X009044Y005108D01*
X009055Y005083D01*
X009062Y005057D01*
X009066Y005030D01*
X009067Y005003D01*
X009067Y004806D01*
X008626Y004235D02*
X005268Y004235D01*
X005236Y003704D02*
X005192Y003706D01*
X005149Y003712D01*
X005107Y003721D01*
X005065Y003734D01*
X005025Y003751D01*
X004986Y003771D01*
X004949Y003794D01*
X004915Y003821D01*
X004882Y003850D01*
X004853Y003883D01*
X004826Y003917D01*
X004803Y003954D01*
X004783Y003993D01*
X004766Y004033D01*
X004753Y004075D01*
X004744Y004117D01*
X004738Y004160D01*
X004736Y004204D01*
X004736Y006184D01*
X002630Y006223D02*
X001980Y006223D01*
X005032Y009215D02*
X005082Y009208D01*
X005131Y009196D01*
X005179Y009181D01*
X005226Y009162D01*
X005271Y009140D01*
X005314Y009115D01*
X005356Y009086D01*
X005395Y009055D01*
X005432Y009020D01*
X005466Y008983D01*
X005497Y008944D01*
X005525Y008902D01*
X005550Y008858D01*
X005572Y008812D01*
X005590Y008765D01*
X005605Y008717D01*
X005616Y008668D01*
X005623Y008618D01*
X005627Y008568D01*
X005626Y008517D01*
X005622Y008467D01*
X008626Y004235D02*
X008639Y004234D01*
X008652Y004230D01*
X008663Y004224D01*
X008673Y004215D01*
X009302Y003704D02*
X005236Y003704D01*
X009266Y002599D02*
X009308Y002555D01*
X009346Y002509D01*
X009382Y002460D01*
X009415Y002409D01*
X009444Y002357D01*
X009471Y002302D01*
X009494Y002247D01*
X009514Y002190D01*
X009530Y002131D01*
X009543Y002072D01*
X009552Y002013D01*
X009557Y001952D01*
X009559Y001892D01*
X009559Y001341D01*
X009266Y002599D02*
X008673Y003211D01*
X009302Y003704D02*
X009359Y003703D01*
X009416Y003698D01*
X009472Y003689D01*
X009528Y003678D01*
X009583Y003663D01*
X009637Y003644D01*
X009689Y003623D01*
X009741Y003598D01*
X009790Y003570D01*
X009838Y003539D01*
X009884Y003506D01*
X009928Y003470D01*
X009970Y003431D01*
X009970Y003430D02*
X009992Y003408D01*
D22*
X009559Y001105D03*
X009067Y001105D03*
X008575Y001105D03*
X008083Y001105D03*
X007590Y001105D03*
X007098Y001105D03*
X006606Y001105D03*
X006114Y001105D03*
X005622Y001105D03*
M02*
