%
M48
M72
T01C0.0118
T02C0.0236
T03C0.0315
%
T01
X2079Y2404
X3693Y1105
X5268Y4235
X3437Y5003
X1960Y7188
X3614Y9668
X3161Y9826
X3102Y10515
X3279Y10889
X3496Y11223
X3850Y11440
X4283Y11479
X4697Y11479
X5110Y11479
X5248Y10711
X5642Y10711
X6055Y10711
X6055Y11086
X6035Y11479
X4854Y10711
X4460Y10711
X4106Y10613
X4086Y9806
X5622Y8467
X6134Y8467
X6606Y8467
X7098Y8467
X7590Y7700
X8083Y6637
X9303Y6204
X9067Y4806
T02
X9067Y1105
X9559Y1105
X8575Y1105
X8083Y1105
X7590Y1105
X7098Y1105
X6606Y1105
X6114Y1105
X5622Y1105
T03
X9992Y2621
X9992Y3408
X9992Y4196
X9992Y4983
X9992Y5771
X9992Y6558
X9992Y7345
X9992Y8133
X9992Y8920
X9992Y9708
X1291Y9708
X1291Y8920
X1291Y8133
X1291Y7345
X1291Y6558
X1291Y5771
X1291Y4983
X1291Y4196
X1291Y3408
X1291Y2621
M30
