G75*
%MOIN*%
%OFA0B0*%
%FSLAX24Y24*%
%IPPOS*%
%LPD*%
%AMOC8*
5,1,8,0,0,1.08239X$1,22.5*
%
%ADD10C,0.0080*%
%ADD11R,0.0600X0.1600*%
%ADD12R,0.0515X0.0515*%
%ADD13C,0.0515*%
%ADD14C,0.0236*%
%ADD15C,0.0100*%
%ADD16C,0.0278*%
%ADD17C,0.0160*%
%ADD18C,0.0396*%
D10*
X008686Y007385D02*
X008966Y007385D01*
X009106Y007525D01*
X008966Y007665D01*
X008686Y007665D01*
X008896Y007665D02*
X008896Y007385D01*
X008826Y007845D02*
X008826Y008055D01*
X008896Y008126D01*
X009036Y008126D01*
X009106Y008055D01*
X009106Y007845D01*
X008686Y007845D01*
X008686Y008306D02*
X009106Y008306D01*
X009106Y008516D01*
X009036Y008586D01*
X008896Y008586D01*
X008826Y008516D01*
X008826Y008306D01*
X008826Y008446D02*
X008686Y008586D01*
X008686Y008766D02*
X008756Y008766D01*
X008756Y008836D01*
X008686Y008836D01*
X008686Y008766D01*
X008896Y008766D02*
X008896Y008836D01*
X008966Y008836D01*
X008966Y008766D01*
X008896Y008766D01*
X009036Y008996D02*
X008756Y008996D01*
X008686Y009066D01*
X008686Y009206D01*
X008756Y009277D01*
X008756Y009457D02*
X009036Y009737D01*
X008756Y009737D01*
X008686Y009667D01*
X008686Y009527D01*
X008756Y009457D01*
X009036Y009457D01*
X009106Y009527D01*
X009106Y009667D01*
X009036Y009737D01*
X009106Y009917D02*
X008896Y009917D01*
X008966Y010057D01*
X008966Y010127D01*
X008896Y010197D01*
X008756Y010197D01*
X008686Y010127D01*
X008686Y009987D01*
X008756Y009917D01*
X009106Y009917D02*
X009106Y010197D01*
X009036Y009277D02*
X009106Y009206D01*
X009106Y009066D01*
X009036Y008996D01*
D11*
X006618Y012818D03*
X004618Y012818D03*
D12*
X001272Y002621D03*
X009992Y002621D03*
D13*
X009992Y003408D03*
X009992Y004196D03*
X009992Y004983D03*
X009992Y005771D03*
X009992Y006558D03*
X009992Y007345D03*
X009992Y008133D03*
X009992Y008920D03*
X009992Y009708D03*
X001272Y009708D03*
X001272Y008920D03*
X001272Y008133D03*
X001272Y007345D03*
X001272Y006558D03*
X001272Y005771D03*
X001272Y004983D03*
X001272Y004196D03*
X001272Y003408D03*
D14*
X005622Y001341D03*
X006114Y001341D03*
X006606Y001341D03*
X007098Y001341D03*
X007590Y001341D03*
X008083Y001341D03*
X008575Y001341D03*
X009067Y001341D03*
D15*
X001239Y000851D02*
X001214Y000927D01*
X001211Y000967D01*
X001211Y002213D01*
X001243Y002213D01*
X001243Y002592D01*
X001300Y002592D01*
X001300Y002213D01*
X001549Y002213D01*
X001587Y002224D01*
X001621Y002243D01*
X001649Y002271D01*
X001669Y002306D01*
X001679Y002344D01*
X001679Y002592D01*
X001300Y002592D01*
X001300Y002650D01*
X001679Y002650D01*
X001679Y002898D01*
X001669Y002936D01*
X001649Y002971D01*
X001621Y002998D01*
X001587Y003018D01*
X001549Y003028D01*
X001367Y003028D01*
X001491Y003080D01*
X001600Y003189D01*
X001659Y003331D01*
X001659Y003485D01*
X001600Y003628D01*
X001491Y003737D01*
X001349Y003796D01*
X001211Y003796D01*
X001211Y003808D01*
X001349Y003808D01*
X001491Y003867D01*
X001600Y003976D01*
X001659Y004119D01*
X001659Y004273D01*
X001600Y004415D01*
X001491Y004524D01*
X001349Y004583D01*
X001211Y004583D01*
X001211Y004596D01*
X001349Y004596D01*
X001491Y004655D01*
X001600Y004764D01*
X001659Y004906D01*
X001659Y005060D01*
X001600Y005203D01*
X001491Y005312D01*
X001349Y005371D01*
X001211Y005371D01*
X001211Y005383D01*
X001349Y005383D01*
X001491Y005442D01*
X001600Y005551D01*
X001659Y005693D01*
X001659Y005848D01*
X001600Y005990D01*
X001491Y006099D01*
X001349Y006158D01*
X001211Y006158D01*
X001211Y006170D01*
X001349Y006170D01*
X001491Y006229D01*
X001600Y006338D01*
X001659Y006481D01*
X001659Y006635D01*
X001600Y006777D01*
X001491Y006886D01*
X001349Y006945D01*
X001211Y006945D01*
X001211Y006958D01*
X001349Y006958D01*
X001491Y007017D01*
X001600Y007126D01*
X001659Y007268D01*
X001659Y007422D01*
X001600Y007565D01*
X001586Y007578D01*
X001718Y007451D01*
X001744Y007419D01*
X001764Y007372D01*
X001732Y007340D01*
X001691Y007241D01*
X001691Y007134D01*
X001732Y007035D01*
X001808Y006960D01*
X001907Y006919D01*
X002014Y006919D01*
X002113Y006960D01*
X002189Y007035D01*
X002230Y007134D01*
X002230Y007241D01*
X002189Y007340D01*
X002140Y007388D01*
X002140Y007415D01*
X002053Y007625D01*
X002053Y007625D01*
X002024Y007655D01*
X002024Y007656D01*
X001971Y007707D01*
X001920Y007759D01*
X001918Y007759D01*
X001645Y008022D01*
X001659Y008056D01*
X001659Y008210D01*
X001600Y008352D01*
X001491Y008461D01*
X001349Y008520D01*
X001211Y008520D01*
X001211Y008533D01*
X001349Y008533D01*
X001491Y008592D01*
X001600Y008701D01*
X001659Y008843D01*
X001659Y008997D01*
X001600Y009140D01*
X001491Y009249D01*
X001349Y009308D01*
X001211Y009308D01*
X001211Y009320D01*
X001349Y009320D01*
X001491Y009379D01*
X001580Y009468D01*
X001914Y009395D01*
X002306Y009210D01*
X002647Y008943D01*
X002921Y008607D01*
X003112Y008218D01*
X003213Y007796D01*
X003227Y007580D01*
X003227Y005173D01*
X003209Y005155D01*
X003168Y005056D01*
X003168Y004949D01*
X003209Y004850D01*
X003227Y004832D01*
X003227Y003626D01*
X003217Y003493D01*
X003146Y003237D01*
X003011Y003007D01*
X002821Y002820D01*
X002589Y002689D01*
X002332Y002622D01*
X002246Y002617D01*
X002231Y002633D01*
X002132Y002673D01*
X002025Y002673D01*
X001926Y002633D01*
X001850Y002557D01*
X001810Y002458D01*
X001810Y002351D01*
X001850Y002252D01*
X001926Y002176D01*
X002025Y002135D01*
X002132Y002135D01*
X002231Y002176D01*
X002249Y002194D01*
X002385Y002193D01*
X002752Y002288D01*
X003082Y002475D01*
X003352Y002741D01*
X003352Y002741D01*
X003544Y003068D01*
X003544Y003068D01*
X003645Y003434D01*
X003646Y003537D01*
X003647Y003538D01*
X003647Y003624D01*
X003648Y003710D01*
X003647Y003711D01*
X003647Y004832D01*
X003665Y004850D01*
X003706Y004949D01*
X003706Y005056D01*
X003665Y005155D01*
X003647Y005173D01*
X003647Y007496D01*
X003648Y007497D01*
X003647Y007583D01*
X003647Y007669D01*
X003646Y007669D01*
X003644Y007849D01*
X003522Y008365D01*
X003522Y008365D01*
X003287Y008842D01*
X002952Y009254D01*
X002534Y009581D01*
X002054Y009807D01*
X001610Y009904D01*
X001600Y009927D01*
X001491Y010036D01*
X001349Y010095D01*
X001211Y010095D01*
X001211Y010186D01*
X001213Y010220D01*
X001231Y010284D01*
X001264Y010343D01*
X001286Y010368D01*
X003876Y012960D01*
X003902Y012983D01*
X003960Y013016D01*
X004025Y013034D01*
X004058Y013036D01*
X004168Y013036D01*
X004168Y012868D01*
X004568Y012868D01*
X004568Y012768D01*
X004168Y012768D01*
X004168Y011998D01*
X004178Y011960D01*
X004198Y011926D01*
X004226Y011898D01*
X004260Y011878D01*
X004298Y011868D01*
X004568Y011868D01*
X004568Y012768D01*
X004668Y012768D01*
X004668Y012868D01*
X005068Y012868D01*
X005068Y013036D01*
X006168Y013036D01*
X006168Y012868D01*
X006568Y012868D01*
X006568Y012768D01*
X006168Y012768D01*
X006168Y011998D01*
X006178Y011960D01*
X006198Y011926D01*
X006226Y011898D01*
X006260Y011878D01*
X006298Y011868D01*
X006568Y011868D01*
X006568Y012768D01*
X006668Y012768D01*
X006668Y012868D01*
X007068Y012868D01*
X007068Y013036D01*
X007205Y013036D01*
X007239Y013034D01*
X007304Y013016D01*
X007362Y012983D01*
X007387Y012960D01*
X009903Y010445D01*
X009938Y010409D01*
X009977Y010371D01*
X009999Y010345D01*
X010033Y010287D01*
X010050Y010222D01*
X010053Y010188D01*
X010053Y010095D01*
X009915Y010095D01*
X009772Y010036D01*
X009663Y009927D01*
X009604Y009785D01*
X009604Y009630D01*
X009663Y009488D01*
X009772Y009379D01*
X009915Y009320D01*
X010053Y009320D01*
X010053Y009308D01*
X009915Y009308D01*
X009772Y009249D01*
X009663Y009140D01*
X009604Y008997D01*
X009604Y008843D01*
X009663Y008701D01*
X009772Y008592D01*
X009915Y008533D01*
X010053Y008533D01*
X010053Y008520D01*
X009915Y008520D01*
X009772Y008461D01*
X009663Y008352D01*
X009604Y008210D01*
X009604Y008056D01*
X009663Y007913D01*
X009772Y007804D01*
X009915Y007745D01*
X010053Y007745D01*
X010053Y007733D01*
X009915Y007733D01*
X009772Y007674D01*
X009663Y007565D01*
X009604Y007422D01*
X009604Y007268D01*
X009663Y007126D01*
X009772Y007017D01*
X009915Y006958D01*
X010053Y006958D01*
X010053Y006945D01*
X009915Y006945D01*
X009772Y006886D01*
X009663Y006777D01*
X009604Y006635D01*
X009604Y006481D01*
X009663Y006338D01*
X009772Y006229D01*
X009915Y006170D01*
X010053Y006170D01*
X010053Y006158D01*
X009915Y006158D01*
X009772Y006099D01*
X009663Y005990D01*
X009604Y005848D01*
X009604Y005693D01*
X009663Y005551D01*
X009772Y005442D01*
X009915Y005383D01*
X010053Y005383D01*
X010053Y005371D01*
X009915Y005371D01*
X009772Y005312D01*
X009663Y005203D01*
X009604Y005060D01*
X009604Y004906D01*
X009663Y004764D01*
X009772Y004655D01*
X009915Y004596D01*
X010053Y004596D01*
X010053Y004583D01*
X009915Y004583D01*
X009772Y004524D01*
X009663Y004415D01*
X009604Y004273D01*
X009604Y004119D01*
X009663Y003976D01*
X009772Y003867D01*
X009915Y003808D01*
X010053Y003808D01*
X010053Y003796D01*
X009915Y003796D01*
X009772Y003737D01*
X009663Y003628D01*
X009604Y003485D01*
X009604Y003331D01*
X009663Y003189D01*
X009772Y003080D01*
X009915Y003021D01*
X010053Y003021D01*
X010053Y003008D01*
X009681Y003008D01*
X009604Y002932D01*
X009604Y002310D01*
X009681Y002233D01*
X010053Y002233D01*
X010053Y000967D01*
X010049Y000927D01*
X010024Y000851D01*
X009977Y000785D01*
X009912Y000738D01*
X009835Y000713D01*
X009795Y000710D01*
X001468Y000710D01*
X001428Y000713D01*
X001351Y000738D01*
X001286Y000785D01*
X001239Y000851D01*
X001251Y000835D02*
X005428Y000835D01*
X005436Y000827D02*
X005557Y000777D01*
X005687Y000777D01*
X005808Y000827D01*
X005868Y000887D01*
X005928Y000827D01*
X006049Y000777D01*
X006179Y000777D01*
X006300Y000827D01*
X006360Y000887D01*
X006420Y000827D01*
X006541Y000777D01*
X006671Y000777D01*
X006792Y000827D01*
X006852Y000887D01*
X006912Y000827D01*
X007033Y000777D01*
X007164Y000777D01*
X007284Y000827D01*
X007344Y000887D01*
X007405Y000827D01*
X007525Y000777D01*
X007656Y000777D01*
X007776Y000827D01*
X007836Y000887D01*
X007897Y000827D01*
X008017Y000777D01*
X008148Y000777D01*
X008268Y000827D01*
X008329Y000887D01*
X008389Y000827D01*
X008509Y000777D01*
X008640Y000777D01*
X008761Y000827D01*
X008821Y000887D01*
X008881Y000827D01*
X009002Y000777D01*
X009132Y000777D01*
X009253Y000827D01*
X009313Y000887D01*
X009373Y000827D01*
X009494Y000777D01*
X009624Y000777D01*
X009745Y000827D01*
X009837Y000919D01*
X009887Y001040D01*
X009887Y001170D01*
X009837Y001291D01*
X009745Y001383D01*
X009624Y001433D01*
X009494Y001433D01*
X009373Y001383D01*
X009315Y001325D01*
X009315Y001391D01*
X009277Y001482D01*
X009247Y001512D01*
X009247Y004605D01*
X009295Y004654D01*
X009336Y004752D01*
X009336Y004860D01*
X009295Y004958D01*
X009219Y005034D01*
X009120Y005075D01*
X009013Y005075D01*
X008914Y005034D01*
X008839Y004958D01*
X008798Y004860D01*
X008798Y004752D01*
X008839Y004654D01*
X008887Y004605D01*
X008887Y001512D01*
X008856Y001482D01*
X008821Y001396D01*
X008785Y001482D01*
X008755Y001512D01*
X008755Y005159D01*
X008762Y005267D01*
X009728Y005267D01*
X009649Y005169D02*
X008755Y005169D01*
X008762Y005267D02*
X008817Y005473D01*
X008924Y005659D01*
X008995Y005739D01*
X009048Y005792D01*
X009207Y005952D01*
X009249Y005935D01*
X009357Y005935D01*
X009455Y005976D01*
X009531Y006051D01*
X009572Y006150D01*
X009572Y006257D01*
X009531Y006356D01*
X009455Y006432D01*
X009357Y006473D01*
X009249Y006473D01*
X009151Y006432D01*
X009075Y006356D01*
X009055Y006309D01*
X009025Y006278D01*
X008793Y006047D01*
X008793Y006047D01*
X008740Y005994D01*
X008630Y005884D01*
X008475Y005615D01*
X008475Y005615D01*
X008395Y005315D01*
X008395Y001512D01*
X008364Y001482D01*
X008329Y001396D01*
X008293Y001482D01*
X008263Y001512D01*
X008263Y006436D01*
X008311Y006484D01*
X008352Y006583D01*
X008352Y006690D01*
X008311Y006789D01*
X008235Y006865D01*
X008136Y006906D01*
X008029Y006906D01*
X007930Y006865D01*
X007854Y006789D01*
X007813Y006690D01*
X007813Y006583D01*
X007854Y006484D01*
X007903Y006436D01*
X007903Y001512D01*
X007872Y001482D01*
X007836Y001396D01*
X007801Y001482D01*
X007770Y001512D01*
X007770Y007499D01*
X007818Y007547D01*
X007859Y007646D01*
X007859Y007753D01*
X007818Y007852D01*
X007743Y007928D01*
X007644Y007969D01*
X007537Y007969D01*
X007438Y007928D01*
X007362Y007852D01*
X007321Y007753D01*
X007321Y007646D01*
X007362Y007547D01*
X007410Y007499D01*
X007410Y001512D01*
X007380Y001482D01*
X007344Y001396D01*
X007309Y001482D01*
X007278Y001512D01*
X007278Y008267D01*
X007326Y008315D01*
X007367Y008414D01*
X007367Y008521D01*
X007326Y008620D01*
X007251Y008695D01*
X007152Y008736D01*
X007045Y008736D01*
X006946Y008695D01*
X006870Y008620D01*
X006852Y008576D01*
X006834Y008620D01*
X006759Y008695D01*
X006660Y008736D01*
X006553Y008736D01*
X006454Y008695D01*
X006378Y008620D01*
X006370Y008600D01*
X006362Y008620D01*
X006286Y008695D01*
X006187Y008736D01*
X006080Y008736D01*
X005981Y008695D01*
X005906Y008620D01*
X005878Y008553D01*
X005850Y008620D01*
X005774Y008695D01*
X005675Y008736D01*
X005568Y008736D01*
X005469Y008695D01*
X005394Y008620D01*
X005353Y008521D01*
X005353Y008414D01*
X005394Y008315D01*
X005442Y008267D01*
X005442Y004441D01*
X005420Y004463D01*
X005321Y004504D01*
X005214Y004504D01*
X005115Y004463D01*
X005041Y004389D01*
X004841Y004324D01*
X004603Y004151D01*
X004430Y003914D01*
X004430Y003914D01*
X004340Y003634D01*
X004340Y003488D01*
X004320Y001769D01*
X004305Y001689D01*
X004234Y001531D01*
X004118Y001403D01*
X003968Y001317D01*
X003880Y001299D01*
X003845Y001333D01*
X003746Y001374D01*
X003639Y001374D01*
X003540Y001333D01*
X003465Y001258D01*
X003424Y001159D01*
X003424Y001052D01*
X003465Y000953D01*
X003540Y000877D01*
X003639Y000836D01*
X003746Y000836D01*
X003845Y000877D01*
X003895Y000927D01*
X004100Y000970D01*
X004351Y001114D01*
X004545Y001328D01*
X004663Y001592D01*
X004672Y001671D01*
X004679Y001678D01*
X004680Y001744D01*
X004687Y001810D01*
X004681Y001817D01*
X004699Y003412D01*
X004700Y003413D01*
X004700Y003486D01*
X004700Y003487D01*
X004707Y003576D01*
X004761Y003745D01*
X004866Y003889D01*
X005010Y003993D01*
X005100Y004022D01*
X005115Y004007D01*
X005214Y003966D01*
X005321Y003966D01*
X005420Y004007D01*
X005442Y004029D01*
X005442Y001512D01*
X005412Y001482D01*
X005374Y001391D01*
X005374Y001321D01*
X005344Y001291D01*
X005294Y001170D01*
X005294Y001040D01*
X005344Y000919D01*
X005436Y000827D01*
X005338Y000933D02*
X003925Y000933D01*
X004208Y001032D02*
X005297Y001032D01*
X005294Y001130D02*
X004366Y001130D01*
X004351Y001114D02*
X004351Y001114D01*
X004455Y001229D02*
X005318Y001229D01*
X005374Y001327D02*
X004544Y001327D01*
X004545Y001328D02*
X004545Y001328D01*
X004589Y001426D02*
X005388Y001426D01*
X005442Y001524D02*
X004633Y001524D01*
X004663Y001592D02*
X004663Y001592D01*
X004667Y001623D02*
X005442Y001623D01*
X005442Y001721D02*
X004679Y001721D01*
X004681Y001820D02*
X005442Y001820D01*
X005442Y001918D02*
X004682Y001918D01*
X004683Y002017D02*
X005442Y002017D01*
X005442Y002115D02*
X004684Y002115D01*
X004685Y002214D02*
X005442Y002214D01*
X005442Y002312D02*
X004686Y002312D01*
X004687Y002411D02*
X005442Y002411D01*
X005442Y002509D02*
X004688Y002509D01*
X004690Y002608D02*
X005442Y002608D01*
X005442Y002706D02*
X004691Y002706D01*
X004692Y002805D02*
X005442Y002805D01*
X005442Y002903D02*
X004693Y002903D01*
X004694Y003002D02*
X005442Y003002D01*
X005442Y003100D02*
X004695Y003100D01*
X004696Y003199D02*
X005442Y003199D01*
X005442Y003297D02*
X004697Y003297D01*
X004699Y003396D02*
X005442Y003396D01*
X005442Y003494D02*
X004700Y003494D01*
X004712Y003593D02*
X005442Y003593D01*
X005442Y003691D02*
X004744Y003691D01*
X004794Y003790D02*
X005442Y003790D01*
X005442Y003888D02*
X004866Y003888D01*
X005001Y003987D02*
X005164Y003987D01*
X005371Y003987D02*
X005442Y003987D01*
X005268Y004235D02*
X005215Y004233D01*
X005162Y004227D01*
X005109Y004218D01*
X005057Y004205D01*
X005007Y004188D01*
X004957Y004167D01*
X004910Y004144D01*
X004864Y004116D01*
X004820Y004086D01*
X004778Y004052D01*
X004739Y004016D01*
X004703Y003977D01*
X004669Y003935D01*
X004639Y003891D01*
X004611Y003845D01*
X004588Y003798D01*
X004567Y003748D01*
X004550Y003698D01*
X004537Y003646D01*
X004528Y003593D01*
X004522Y003540D01*
X004520Y003487D01*
X004500Y001755D01*
X004321Y001820D02*
X001211Y001820D01*
X001211Y001918D02*
X004322Y001918D01*
X004323Y002017D02*
X001211Y002017D01*
X001211Y002115D02*
X004324Y002115D01*
X004325Y002214D02*
X002465Y002214D01*
X002385Y002193D02*
X002385Y002193D01*
X002752Y002288D02*
X002752Y002288D01*
X002794Y002312D02*
X004326Y002312D01*
X004327Y002411D02*
X002968Y002411D01*
X003082Y002475D02*
X003082Y002475D01*
X003116Y002509D02*
X004328Y002509D01*
X004330Y002608D02*
X003216Y002608D01*
X003317Y002706D02*
X004331Y002706D01*
X004332Y002805D02*
X003389Y002805D01*
X003447Y002903D02*
X004333Y002903D01*
X004334Y003002D02*
X003505Y003002D01*
X003553Y003100D02*
X004335Y003100D01*
X004336Y003199D02*
X003580Y003199D01*
X003608Y003297D02*
X004337Y003297D01*
X004338Y003396D02*
X003635Y003396D01*
X003645Y003434D02*
X003645Y003434D01*
X003646Y003494D02*
X004340Y003494D01*
X004340Y003593D02*
X003647Y003593D01*
X003647Y003691D02*
X004358Y003691D01*
X004390Y003790D02*
X003647Y003790D01*
X003647Y003888D02*
X004422Y003888D01*
X004483Y003987D02*
X003647Y003987D01*
X003647Y004085D02*
X004555Y004085D01*
X004603Y004151D02*
X004603Y004151D01*
X004603Y004151D01*
X004648Y004184D02*
X003647Y004184D01*
X003647Y004282D02*
X004783Y004282D01*
X004841Y004324D02*
X004841Y004324D01*
X005015Y004381D02*
X003647Y004381D01*
X003647Y004479D02*
X005154Y004479D01*
X005381Y004479D02*
X005442Y004479D01*
X005442Y004578D02*
X003647Y004578D01*
X003647Y004676D02*
X005442Y004676D01*
X005442Y004775D02*
X003647Y004775D01*
X003674Y004873D02*
X005442Y004873D01*
X005442Y004972D02*
X003706Y004972D01*
X003700Y005070D02*
X005442Y005070D01*
X005442Y005169D02*
X003651Y005169D01*
X003647Y005267D02*
X005442Y005267D01*
X005442Y005366D02*
X003647Y005366D01*
X003647Y005464D02*
X005442Y005464D01*
X005442Y005563D02*
X003647Y005563D01*
X003647Y005661D02*
X005442Y005661D01*
X005442Y005760D02*
X003647Y005760D01*
X003647Y005858D02*
X005442Y005858D01*
X005442Y005957D02*
X003647Y005957D01*
X003647Y006055D02*
X005442Y006055D01*
X005442Y006154D02*
X003647Y006154D01*
X003647Y006252D02*
X005442Y006252D01*
X005442Y006351D02*
X003647Y006351D01*
X003647Y006449D02*
X005442Y006449D01*
X005442Y006548D02*
X003647Y006548D01*
X003647Y006646D02*
X005442Y006646D01*
X005442Y006745D02*
X003647Y006745D01*
X003647Y006843D02*
X005442Y006843D01*
X005442Y006942D02*
X003647Y006942D01*
X003647Y007040D02*
X005442Y007040D01*
X005442Y007139D02*
X003647Y007139D01*
X003647Y007237D02*
X005442Y007237D01*
X005442Y007336D02*
X003647Y007336D01*
X003647Y007434D02*
X005442Y007434D01*
X005442Y007533D02*
X003647Y007533D01*
X003647Y007631D02*
X005442Y007631D01*
X005442Y007730D02*
X003646Y007730D01*
X003645Y007828D02*
X005442Y007828D01*
X005442Y007927D02*
X003626Y007927D01*
X003602Y008025D02*
X005442Y008025D01*
X005442Y008124D02*
X003579Y008124D01*
X003556Y008222D02*
X005442Y008222D01*
X005391Y008321D02*
X003532Y008321D01*
X003495Y008419D02*
X005353Y008419D01*
X005353Y008518D02*
X003446Y008518D01*
X003398Y008616D02*
X005392Y008616D01*
X005516Y008715D02*
X003349Y008715D01*
X003301Y008813D02*
X008516Y008813D01*
X008516Y008907D02*
X008516Y008696D01*
X008535Y008676D01*
X008516Y008656D01*
X008516Y008516D01*
X008585Y008446D01*
X008516Y008376D01*
X008516Y008235D01*
X008615Y008136D01*
X008665Y008136D01*
X008656Y008126D01*
X008656Y008015D01*
X008615Y008015D01*
X008516Y007916D01*
X008516Y007775D01*
X008535Y007755D01*
X008516Y007736D01*
X008516Y007595D01*
X008585Y007525D01*
X008516Y007455D01*
X008516Y007315D01*
X008615Y007215D01*
X009036Y007215D01*
X009115Y007294D01*
X009176Y007355D01*
X009176Y007355D01*
X009215Y007394D01*
X009276Y007455D01*
X009276Y007595D01*
X009214Y007657D01*
X009186Y007685D01*
X009276Y007775D01*
X009276Y007985D01*
X009276Y008056D01*
X009276Y008126D01*
X009273Y008128D01*
X009221Y008181D01*
X009276Y008235D01*
X009276Y008445D01*
X009276Y008445D01*
X009276Y008517D01*
X009276Y008586D01*
X009276Y008586D01*
X009273Y008589D01*
X009176Y008686D01*
X009136Y008726D01*
X009136Y008856D01*
X009176Y008896D01*
X009273Y008993D01*
X009276Y008996D01*
X009276Y009066D01*
X009276Y009136D01*
X009276Y009232D01*
X009276Y009277D01*
X009276Y009277D01*
X009276Y009277D01*
X009190Y009363D01*
X009186Y009367D01*
X009276Y009456D01*
X009276Y009527D01*
X009276Y009596D01*
X009276Y009668D01*
X009276Y009737D01*
X009276Y009737D01*
X009273Y009740D01*
X009221Y009792D01*
X009276Y009847D01*
X009276Y010268D01*
X009176Y010367D01*
X009035Y010367D01*
X009001Y010333D01*
X008966Y010367D01*
X008685Y010367D01*
X008615Y010297D01*
X008516Y010198D01*
X008516Y009917D01*
X008605Y009827D01*
X008516Y009737D01*
X008516Y009456D01*
X008586Y009386D01*
X008605Y009367D01*
X008516Y009277D01*
X008516Y008996D01*
X008560Y008951D01*
X008516Y008907D01*
X008521Y008912D02*
X003230Y008912D01*
X003287Y008842D02*
X003287Y008842D01*
X003150Y009010D02*
X008516Y009010D01*
X008516Y009109D02*
X003070Y009109D01*
X002990Y009207D02*
X008516Y009207D01*
X008544Y009306D02*
X002885Y009306D01*
X002952Y009254D02*
X002952Y009254D01*
X002759Y009404D02*
X008568Y009404D01*
X008516Y009503D02*
X002634Y009503D01*
X002534Y009581D02*
X002534Y009581D01*
X002490Y009601D02*
X008516Y009601D01*
X008516Y009700D02*
X002281Y009700D01*
X002071Y009798D02*
X008576Y009798D01*
X008536Y009897D02*
X001641Y009897D01*
X001532Y009995D02*
X008516Y009995D01*
X008516Y010094D02*
X001352Y010094D01*
X001211Y010192D02*
X008516Y010192D01*
X008609Y010291D02*
X001234Y010291D01*
X001308Y010389D02*
X009958Y010389D01*
X010031Y010291D02*
X009253Y010291D01*
X009276Y010192D02*
X010052Y010192D01*
X009912Y010094D02*
X009276Y010094D01*
X009276Y009995D02*
X009732Y009995D01*
X009651Y009897D02*
X009276Y009897D01*
X009227Y009798D02*
X009610Y009798D01*
X009604Y009700D02*
X009276Y009700D01*
X009276Y009601D02*
X009617Y009601D01*
X009657Y009503D02*
X009276Y009503D01*
X009224Y009404D02*
X009747Y009404D01*
X009910Y009306D02*
X009247Y009306D01*
X009276Y009207D02*
X009731Y009207D01*
X009651Y009109D02*
X009276Y009109D01*
X009276Y009010D02*
X009610Y009010D01*
X009604Y008912D02*
X009192Y008912D01*
X009176Y008896D02*
X009176Y008896D01*
X009136Y008813D02*
X009617Y008813D01*
X009658Y008715D02*
X009147Y008715D01*
X009176Y008686D02*
X009176Y008686D01*
X009246Y008616D02*
X009748Y008616D01*
X009909Y008518D02*
X009276Y008518D01*
X009276Y008419D02*
X009730Y008419D01*
X009650Y008321D02*
X009276Y008321D01*
X009263Y008222D02*
X009610Y008222D01*
X009604Y008124D02*
X009276Y008124D01*
X009276Y008126D02*
X009276Y008126D01*
X009276Y008025D02*
X009617Y008025D01*
X009658Y007927D02*
X009276Y007927D01*
X009276Y007985D02*
X009276Y007985D01*
X009276Y007828D02*
X009749Y007828D01*
X009907Y007730D02*
X009231Y007730D01*
X009240Y007631D02*
X009730Y007631D01*
X009650Y007533D02*
X009276Y007533D01*
X009255Y007434D02*
X009609Y007434D01*
X009604Y007336D02*
X009157Y007336D01*
X009058Y007237D02*
X009617Y007237D01*
X009658Y007139D02*
X007770Y007139D01*
X007770Y007237D02*
X008593Y007237D01*
X008516Y007336D02*
X007770Y007336D01*
X007770Y007434D02*
X008516Y007434D01*
X008578Y007533D02*
X007804Y007533D01*
X007853Y007631D02*
X008516Y007631D01*
X008516Y007730D02*
X007859Y007730D01*
X007828Y007828D02*
X008516Y007828D01*
X008527Y007927D02*
X007744Y007927D01*
X007590Y007700D02*
X007590Y001341D01*
X007357Y001426D02*
X007332Y001426D01*
X007278Y001524D02*
X007410Y001524D01*
X007410Y001623D02*
X007278Y001623D01*
X007278Y001721D02*
X007410Y001721D01*
X007410Y001820D02*
X007278Y001820D01*
X007278Y001918D02*
X007410Y001918D01*
X007410Y002017D02*
X007278Y002017D01*
X007278Y002115D02*
X007410Y002115D01*
X007410Y002214D02*
X007278Y002214D01*
X007278Y002312D02*
X007410Y002312D01*
X007410Y002411D02*
X007278Y002411D01*
X007278Y002509D02*
X007410Y002509D01*
X007410Y002608D02*
X007278Y002608D01*
X007278Y002706D02*
X007410Y002706D01*
X007410Y002805D02*
X007278Y002805D01*
X007278Y002903D02*
X007410Y002903D01*
X007410Y003002D02*
X007278Y003002D01*
X007278Y003100D02*
X007410Y003100D01*
X007410Y003199D02*
X007278Y003199D01*
X007278Y003297D02*
X007410Y003297D01*
X007410Y003396D02*
X007278Y003396D01*
X007278Y003494D02*
X007410Y003494D01*
X007410Y003593D02*
X007278Y003593D01*
X007278Y003691D02*
X007410Y003691D01*
X007410Y003790D02*
X007278Y003790D01*
X007278Y003888D02*
X007410Y003888D01*
X007410Y003987D02*
X007278Y003987D01*
X007278Y004085D02*
X007410Y004085D01*
X007410Y004184D02*
X007278Y004184D01*
X007278Y004282D02*
X007410Y004282D01*
X007410Y004381D02*
X007278Y004381D01*
X007278Y004479D02*
X007410Y004479D01*
X007410Y004578D02*
X007278Y004578D01*
X007278Y004676D02*
X007410Y004676D01*
X007410Y004775D02*
X007278Y004775D01*
X007278Y004873D02*
X007410Y004873D01*
X007410Y004972D02*
X007278Y004972D01*
X007278Y005070D02*
X007410Y005070D01*
X007410Y005169D02*
X007278Y005169D01*
X007278Y005267D02*
X007410Y005267D01*
X007410Y005366D02*
X007278Y005366D01*
X007278Y005464D02*
X007410Y005464D01*
X007410Y005563D02*
X007278Y005563D01*
X007278Y005661D02*
X007410Y005661D01*
X007410Y005760D02*
X007278Y005760D01*
X007278Y005858D02*
X007410Y005858D01*
X007410Y005957D02*
X007278Y005957D01*
X007278Y006055D02*
X007410Y006055D01*
X007410Y006154D02*
X007278Y006154D01*
X007278Y006252D02*
X007410Y006252D01*
X007410Y006351D02*
X007278Y006351D01*
X007278Y006449D02*
X007410Y006449D01*
X007410Y006548D02*
X007278Y006548D01*
X007278Y006646D02*
X007410Y006646D01*
X007410Y006745D02*
X007278Y006745D01*
X007278Y006843D02*
X007410Y006843D01*
X007410Y006942D02*
X007278Y006942D01*
X007278Y007040D02*
X007410Y007040D01*
X007410Y007139D02*
X007278Y007139D01*
X007278Y007237D02*
X007410Y007237D01*
X007410Y007336D02*
X007278Y007336D01*
X007278Y007434D02*
X007410Y007434D01*
X007377Y007533D02*
X007278Y007533D01*
X007278Y007631D02*
X007328Y007631D01*
X007321Y007730D02*
X007278Y007730D01*
X007278Y007828D02*
X007352Y007828D01*
X007278Y007927D02*
X007437Y007927D01*
X007278Y008025D02*
X008656Y008025D01*
X008656Y008124D02*
X007278Y008124D01*
X007278Y008222D02*
X008529Y008222D01*
X008516Y008321D02*
X007329Y008321D01*
X007367Y008419D02*
X008559Y008419D01*
X008516Y008518D02*
X007367Y008518D01*
X007328Y008616D02*
X008516Y008616D01*
X008516Y008715D02*
X007204Y008715D01*
X006992Y008715D02*
X006712Y008715D01*
X006836Y008616D02*
X006869Y008616D01*
X007098Y008467D02*
X007098Y001341D01*
X006606Y001341D02*
X006606Y008467D01*
X006377Y008616D02*
X006363Y008616D01*
X006240Y008715D02*
X006500Y008715D01*
X006134Y008467D02*
X006114Y001341D01*
X005622Y001341D02*
X005622Y008467D01*
X005851Y008616D02*
X005904Y008616D01*
X006028Y008715D02*
X005728Y008715D01*
X007770Y007040D02*
X009749Y007040D01*
X009906Y006942D02*
X007770Y006942D01*
X007770Y006843D02*
X007909Y006843D01*
X007836Y006745D02*
X007770Y006745D01*
X007770Y006646D02*
X007813Y006646D01*
X007828Y006548D02*
X007770Y006548D01*
X007770Y006449D02*
X007889Y006449D01*
X007903Y006351D02*
X007770Y006351D01*
X007770Y006252D02*
X007903Y006252D01*
X007903Y006154D02*
X007770Y006154D01*
X007770Y006055D02*
X007903Y006055D01*
X007903Y005957D02*
X007770Y005957D01*
X007770Y005858D02*
X007903Y005858D01*
X007903Y005760D02*
X007770Y005760D01*
X007770Y005661D02*
X007903Y005661D01*
X007903Y005563D02*
X007770Y005563D01*
X007770Y005464D02*
X007903Y005464D01*
X007903Y005366D02*
X007770Y005366D01*
X007770Y005267D02*
X007903Y005267D01*
X007903Y005169D02*
X007770Y005169D01*
X007770Y005070D02*
X007903Y005070D01*
X007903Y004972D02*
X007770Y004972D01*
X007770Y004873D02*
X007903Y004873D01*
X007903Y004775D02*
X007770Y004775D01*
X007770Y004676D02*
X007903Y004676D01*
X007903Y004578D02*
X007770Y004578D01*
X007770Y004479D02*
X007903Y004479D01*
X007903Y004381D02*
X007770Y004381D01*
X007770Y004282D02*
X007903Y004282D01*
X007903Y004184D02*
X007770Y004184D01*
X007770Y004085D02*
X007903Y004085D01*
X007903Y003987D02*
X007770Y003987D01*
X007770Y003888D02*
X007903Y003888D01*
X007903Y003790D02*
X007770Y003790D01*
X007770Y003691D02*
X007903Y003691D01*
X007903Y003593D02*
X007770Y003593D01*
X007770Y003494D02*
X007903Y003494D01*
X007903Y003396D02*
X007770Y003396D01*
X007770Y003297D02*
X007903Y003297D01*
X007903Y003199D02*
X007770Y003199D01*
X007770Y003100D02*
X007903Y003100D01*
X007903Y003002D02*
X007770Y003002D01*
X007770Y002903D02*
X007903Y002903D01*
X007903Y002805D02*
X007770Y002805D01*
X007770Y002706D02*
X007903Y002706D01*
X007903Y002608D02*
X007770Y002608D01*
X007770Y002509D02*
X007903Y002509D01*
X007903Y002411D02*
X007770Y002411D01*
X007770Y002312D02*
X007903Y002312D01*
X007903Y002214D02*
X007770Y002214D01*
X007770Y002115D02*
X007903Y002115D01*
X007903Y002017D02*
X007770Y002017D01*
X007770Y001918D02*
X007903Y001918D01*
X007903Y001820D02*
X007770Y001820D01*
X007770Y001721D02*
X007903Y001721D01*
X007903Y001623D02*
X007770Y001623D01*
X007770Y001524D02*
X007903Y001524D01*
X007849Y001426D02*
X007824Y001426D01*
X008083Y001341D02*
X008083Y006637D01*
X008329Y006745D02*
X009650Y006745D01*
X009609Y006646D02*
X008352Y006646D01*
X008337Y006548D02*
X009604Y006548D01*
X009618Y006449D02*
X009413Y006449D01*
X009533Y006351D02*
X009658Y006351D01*
X009572Y006252D02*
X009750Y006252D01*
X009905Y006154D02*
X009572Y006154D01*
X009533Y006055D02*
X009729Y006055D01*
X009650Y005957D02*
X009410Y005957D01*
X009609Y005858D02*
X009114Y005858D01*
X009048Y005792D02*
X009048Y005792D01*
X009015Y005760D02*
X009604Y005760D01*
X009618Y005661D02*
X008926Y005661D01*
X008869Y005563D02*
X009659Y005563D01*
X009750Y005464D02*
X008815Y005464D01*
X008788Y005366D02*
X009903Y005366D01*
X008868Y005866D02*
X008826Y005822D01*
X008788Y005776D01*
X008752Y005727D01*
X008719Y005676D01*
X008690Y005624D01*
X008663Y005569D01*
X008640Y005514D01*
X008620Y005457D01*
X008604Y005398D01*
X008591Y005339D01*
X008582Y005280D01*
X008577Y005219D01*
X008575Y005159D01*
X008575Y001341D01*
X008808Y001426D02*
X008833Y001426D01*
X008887Y001524D02*
X008755Y001524D01*
X008755Y001623D02*
X008887Y001623D01*
X008887Y001721D02*
X008755Y001721D01*
X008755Y001820D02*
X008887Y001820D01*
X008887Y001918D02*
X008755Y001918D01*
X008755Y002017D02*
X008887Y002017D01*
X008887Y002115D02*
X008755Y002115D01*
X008755Y002214D02*
X008887Y002214D01*
X008887Y002312D02*
X008755Y002312D01*
X008755Y002411D02*
X008887Y002411D01*
X008887Y002509D02*
X008755Y002509D01*
X008755Y002608D02*
X008887Y002608D01*
X008887Y002706D02*
X008755Y002706D01*
X008755Y002805D02*
X008887Y002805D01*
X008887Y002903D02*
X008755Y002903D01*
X008755Y003002D02*
X008887Y003002D01*
X008887Y003100D02*
X008755Y003100D01*
X008755Y003199D02*
X008887Y003199D01*
X008887Y003297D02*
X008755Y003297D01*
X008755Y003396D02*
X008887Y003396D01*
X008887Y003494D02*
X008755Y003494D01*
X008755Y003593D02*
X008887Y003593D01*
X008887Y003691D02*
X008755Y003691D01*
X008755Y003790D02*
X008887Y003790D01*
X008887Y003888D02*
X008755Y003888D01*
X008755Y003987D02*
X008887Y003987D01*
X008887Y004085D02*
X008755Y004085D01*
X008755Y004184D02*
X008887Y004184D01*
X008887Y004282D02*
X008755Y004282D01*
X008755Y004381D02*
X008887Y004381D01*
X008887Y004479D02*
X008755Y004479D01*
X008755Y004578D02*
X008887Y004578D01*
X008829Y004676D02*
X008755Y004676D01*
X008755Y004775D02*
X008798Y004775D01*
X008803Y004873D02*
X008755Y004873D01*
X008755Y004972D02*
X008852Y004972D01*
X008755Y005070D02*
X009002Y005070D01*
X009132Y005070D02*
X009609Y005070D01*
X009604Y004972D02*
X009282Y004972D01*
X009330Y004873D02*
X009618Y004873D01*
X009659Y004775D02*
X009336Y004775D01*
X009304Y004676D02*
X009751Y004676D01*
X009902Y004578D02*
X009247Y004578D01*
X009247Y004479D02*
X009727Y004479D01*
X009649Y004381D02*
X009247Y004381D01*
X009247Y004282D02*
X009608Y004282D01*
X009604Y004184D02*
X009247Y004184D01*
X009247Y004085D02*
X009618Y004085D01*
X009659Y003987D02*
X009247Y003987D01*
X009247Y003888D02*
X009752Y003888D01*
X009900Y003790D02*
X009247Y003790D01*
X009247Y003691D02*
X009727Y003691D01*
X009649Y003593D02*
X009247Y003593D01*
X009247Y003494D02*
X009608Y003494D01*
X009604Y003396D02*
X009247Y003396D01*
X009247Y003297D02*
X009619Y003297D01*
X009659Y003199D02*
X009247Y003199D01*
X009247Y003100D02*
X009752Y003100D01*
X009674Y003002D02*
X009247Y003002D01*
X009247Y002903D02*
X009604Y002903D01*
X009604Y002805D02*
X009247Y002805D01*
X009247Y002706D02*
X009604Y002706D01*
X009604Y002608D02*
X009247Y002608D01*
X009247Y002509D02*
X009604Y002509D01*
X009604Y002411D02*
X009247Y002411D01*
X009247Y002312D02*
X009604Y002312D01*
X009247Y002214D02*
X010053Y002214D01*
X010053Y002115D02*
X009247Y002115D01*
X009247Y002017D02*
X010053Y002017D01*
X010053Y001918D02*
X009247Y001918D01*
X009247Y001820D02*
X010053Y001820D01*
X010053Y001721D02*
X009247Y001721D01*
X009247Y001623D02*
X010053Y001623D01*
X010053Y001524D02*
X009247Y001524D01*
X009300Y001426D02*
X009475Y001426D01*
X009643Y001426D02*
X010053Y001426D01*
X010053Y001327D02*
X009801Y001327D01*
X009863Y001229D02*
X010053Y001229D01*
X010053Y001130D02*
X009887Y001130D01*
X009884Y001032D02*
X010053Y001032D01*
X010050Y000933D02*
X009843Y000933D01*
X009752Y000835D02*
X010013Y000835D01*
X009906Y000736D02*
X001357Y000736D01*
X001214Y000933D02*
X003484Y000933D01*
X003432Y001032D02*
X001211Y001032D01*
X001211Y001130D02*
X003424Y001130D01*
X003453Y001229D02*
X001211Y001229D01*
X001211Y001327D02*
X003534Y001327D01*
X003851Y001327D02*
X003986Y001327D01*
X004138Y001426D02*
X001211Y001426D01*
X001211Y001524D02*
X004228Y001524D01*
X004275Y001623D02*
X001211Y001623D01*
X001211Y001721D02*
X004311Y001721D01*
X004501Y001755D02*
X004493Y001703D01*
X004482Y001652D01*
X004467Y001602D01*
X004449Y001553D01*
X004427Y001506D01*
X004402Y001460D01*
X004374Y001416D01*
X004342Y001374D01*
X004308Y001334D01*
X004271Y001297D01*
X004232Y001263D01*
X004190Y001232D01*
X004146Y001203D01*
X004100Y001178D01*
X004052Y001157D01*
X004003Y001138D01*
X003953Y001124D01*
X003902Y001113D01*
X003850Y001105D01*
X003798Y001101D01*
X003745Y001101D01*
X003693Y001105D01*
X002620Y002706D02*
X001679Y002706D01*
X001679Y002805D02*
X002794Y002805D01*
X002905Y002903D02*
X001678Y002903D01*
X001615Y003002D02*
X003006Y003002D01*
X003066Y003100D02*
X001511Y003100D01*
X001604Y003199D02*
X003124Y003199D01*
X003163Y003297D02*
X001645Y003297D01*
X001659Y003396D02*
X003190Y003396D01*
X003217Y003494D02*
X001655Y003494D01*
X001615Y003593D02*
X003224Y003593D01*
X003227Y003691D02*
X001537Y003691D01*
X001512Y003888D02*
X003227Y003888D01*
X003227Y003790D02*
X001363Y003790D01*
X001604Y003987D02*
X003227Y003987D01*
X003227Y004085D02*
X001645Y004085D01*
X001659Y004184D02*
X003227Y004184D01*
X003227Y004282D02*
X001655Y004282D01*
X001614Y004381D02*
X003227Y004381D01*
X003227Y004479D02*
X001536Y004479D01*
X001513Y004676D02*
X003227Y004676D01*
X003227Y004578D02*
X001362Y004578D01*
X001605Y004775D02*
X003227Y004775D01*
X003199Y004873D02*
X001645Y004873D01*
X001659Y004972D02*
X003168Y004972D01*
X003174Y005070D02*
X001655Y005070D01*
X001614Y005169D02*
X003222Y005169D01*
X003227Y005267D02*
X001535Y005267D01*
X001513Y005464D02*
X003227Y005464D01*
X003227Y005366D02*
X001360Y005366D01*
X001605Y005563D02*
X003227Y005563D01*
X003227Y005661D02*
X001646Y005661D01*
X001659Y005760D02*
X003227Y005760D01*
X003227Y005858D02*
X001655Y005858D01*
X001614Y005957D02*
X003227Y005957D01*
X003227Y006055D02*
X001535Y006055D01*
X001514Y006252D02*
X003227Y006252D01*
X003227Y006154D02*
X001359Y006154D01*
X001605Y006351D02*
X003227Y006351D01*
X003227Y006449D02*
X001646Y006449D01*
X001659Y006548D02*
X003227Y006548D01*
X003227Y006646D02*
X001654Y006646D01*
X001614Y006745D02*
X003227Y006745D01*
X003227Y006843D02*
X001534Y006843D01*
X001514Y007040D02*
X001730Y007040D01*
X001691Y007139D02*
X001605Y007139D01*
X001646Y007237D02*
X001691Y007237D01*
X001659Y007336D02*
X001731Y007336D01*
X001732Y007434D02*
X001654Y007434D01*
X001634Y007533D02*
X001613Y007533D01*
X001846Y007579D02*
X001872Y007550D01*
X001895Y007519D01*
X001914Y007486D01*
X001931Y007451D01*
X001944Y007414D01*
X001953Y007377D01*
X001959Y007339D01*
X001961Y007300D01*
X001960Y007300D02*
X001960Y007188D01*
X001852Y006942D02*
X001358Y006942D01*
X002069Y006942D02*
X003227Y006942D01*
X003227Y007040D02*
X002191Y007040D01*
X002230Y007139D02*
X003227Y007139D01*
X003227Y007237D02*
X002230Y007237D01*
X002190Y007336D02*
X003227Y007336D01*
X003227Y007434D02*
X002132Y007434D01*
X002092Y007533D02*
X003227Y007533D01*
X003223Y007631D02*
X002047Y007631D01*
X001949Y007730D02*
X003217Y007730D01*
X003205Y007828D02*
X001846Y007828D01*
X001744Y007927D02*
X003182Y007927D01*
X003158Y008025D02*
X001646Y008025D01*
X001659Y008124D02*
X003135Y008124D01*
X003110Y008222D02*
X001654Y008222D01*
X001613Y008321D02*
X003062Y008321D01*
X003013Y008419D02*
X001533Y008419D01*
X001516Y008616D02*
X002913Y008616D01*
X002965Y008518D02*
X001355Y008518D01*
X001606Y008715D02*
X002833Y008715D01*
X002753Y008813D02*
X001647Y008813D01*
X001659Y008912D02*
X002673Y008912D01*
X002562Y009010D02*
X001654Y009010D01*
X001613Y009109D02*
X002436Y009109D01*
X002310Y009207D02*
X001532Y009207D01*
X001516Y009404D02*
X001871Y009404D01*
X002103Y009306D02*
X001353Y009306D01*
X002054Y009807D02*
X002054Y009807D01*
X001406Y010488D02*
X009860Y010488D01*
X009761Y010586D02*
X001504Y010586D01*
X001603Y010685D02*
X009663Y010685D01*
X009564Y010783D02*
X001701Y010783D01*
X001800Y010882D02*
X009466Y010882D01*
X009367Y010980D02*
X001898Y010980D01*
X001996Y011079D02*
X009269Y011079D01*
X009170Y011177D02*
X002095Y011177D01*
X002193Y011276D02*
X009072Y011276D01*
X008973Y011374D02*
X002292Y011374D01*
X002390Y011473D02*
X008875Y011473D01*
X008776Y011571D02*
X002489Y011571D01*
X002587Y011670D02*
X008678Y011670D01*
X008579Y011768D02*
X002685Y011768D01*
X002784Y011867D02*
X008481Y011867D01*
X008382Y011965D02*
X007059Y011965D01*
X007058Y011960D02*
X007068Y011998D01*
X007068Y012768D01*
X006668Y012768D01*
X006668Y011868D01*
X006938Y011868D01*
X006976Y011878D01*
X007010Y011898D01*
X007038Y011926D01*
X007058Y011960D01*
X007068Y012064D02*
X008284Y012064D01*
X008185Y012162D02*
X007068Y012162D01*
X007068Y012261D02*
X008087Y012261D01*
X007988Y012359D02*
X007068Y012359D01*
X007068Y012458D02*
X007890Y012458D01*
X007791Y012556D02*
X007068Y012556D01*
X007068Y012655D02*
X007693Y012655D01*
X007594Y012753D02*
X007068Y012753D01*
X007068Y012950D02*
X007397Y012950D01*
X007496Y012852D02*
X006668Y012852D01*
X006668Y012753D02*
X006568Y012753D01*
X006568Y012655D02*
X006668Y012655D01*
X006668Y012556D02*
X006568Y012556D01*
X006568Y012458D02*
X006668Y012458D01*
X006668Y012359D02*
X006568Y012359D01*
X006568Y012261D02*
X006668Y012261D01*
X006668Y012162D02*
X006568Y012162D01*
X006568Y012064D02*
X006668Y012064D01*
X006668Y011965D02*
X006568Y011965D01*
X006177Y011965D02*
X005059Y011965D01*
X005058Y011960D02*
X005068Y011998D01*
X005068Y012768D01*
X004668Y012768D01*
X004668Y011868D01*
X004938Y011868D01*
X004976Y011878D01*
X005010Y011898D01*
X005038Y011926D01*
X005058Y011960D01*
X005068Y012064D02*
X006168Y012064D01*
X006168Y012162D02*
X005068Y012162D01*
X005068Y012261D02*
X006168Y012261D01*
X006168Y012359D02*
X005068Y012359D01*
X005068Y012458D02*
X006168Y012458D01*
X006168Y012556D02*
X005068Y012556D01*
X005068Y012655D02*
X006168Y012655D01*
X006168Y012753D02*
X005068Y012753D01*
X005068Y012950D02*
X006168Y012950D01*
X006568Y012852D02*
X004668Y012852D01*
X004668Y012753D02*
X004568Y012753D01*
X004568Y012655D02*
X004668Y012655D01*
X004668Y012556D02*
X004568Y012556D01*
X004568Y012458D02*
X004668Y012458D01*
X004668Y012359D02*
X004568Y012359D01*
X004568Y012261D02*
X004668Y012261D01*
X004668Y012162D02*
X004568Y012162D01*
X004568Y012064D02*
X004668Y012064D01*
X004668Y011965D02*
X004568Y011965D01*
X004177Y011965D02*
X002882Y011965D01*
X002981Y012064D02*
X004168Y012064D01*
X004168Y012162D02*
X003079Y012162D01*
X003177Y012261D02*
X004168Y012261D01*
X004168Y012359D02*
X003276Y012359D01*
X003374Y012458D02*
X004168Y012458D01*
X004168Y012556D02*
X003473Y012556D01*
X003571Y012655D02*
X004168Y012655D01*
X004168Y012753D02*
X003669Y012753D01*
X003768Y012852D02*
X004568Y012852D01*
X004168Y012950D02*
X003866Y012950D01*
X001272Y008133D02*
X001845Y007579D01*
X001901Y002608D02*
X001300Y002608D01*
X001300Y002509D02*
X001243Y002509D01*
X001243Y002411D02*
X001300Y002411D01*
X001300Y002312D02*
X001243Y002312D01*
X001243Y002214D02*
X001300Y002214D01*
X001550Y002214D02*
X001889Y002214D01*
X001826Y002312D02*
X001671Y002312D01*
X001679Y002411D02*
X001810Y002411D01*
X001831Y002509D02*
X001679Y002509D01*
X005815Y000835D02*
X005920Y000835D01*
X006308Y000835D02*
X006413Y000835D01*
X006800Y000835D02*
X006905Y000835D01*
X007292Y000835D02*
X007397Y000835D01*
X007784Y000835D02*
X007889Y000835D01*
X008276Y000835D02*
X008381Y000835D01*
X008768Y000835D02*
X008873Y000835D01*
X009260Y000835D02*
X009365Y000835D01*
X009315Y001327D02*
X009317Y001327D01*
X009067Y001341D02*
X009067Y004806D01*
X008395Y004775D02*
X008263Y004775D01*
X008263Y004873D02*
X008395Y004873D01*
X008395Y004972D02*
X008263Y004972D01*
X008263Y005070D02*
X008395Y005070D01*
X008395Y005169D02*
X008263Y005169D01*
X008263Y005267D02*
X008395Y005267D01*
X008408Y005366D02*
X008263Y005366D01*
X008263Y005464D02*
X008435Y005464D01*
X008461Y005563D02*
X008263Y005563D01*
X008263Y005661D02*
X008502Y005661D01*
X008559Y005760D02*
X008263Y005760D01*
X008263Y005858D02*
X008616Y005858D01*
X008630Y005884D02*
X008630Y005884D01*
X008703Y005957D02*
X008263Y005957D01*
X008263Y006055D02*
X008802Y006055D01*
X008900Y006154D02*
X008263Y006154D01*
X008263Y006252D02*
X008999Y006252D01*
X009025Y006278D02*
X009025Y006278D01*
X009073Y006351D02*
X008263Y006351D01*
X008276Y006449D02*
X009193Y006449D01*
X009205Y006204D02*
X009303Y006204D01*
X009205Y006204D02*
X008868Y005867D01*
X008256Y006843D02*
X009729Y006843D01*
X009276Y008996D02*
X009276Y008996D01*
X009276Y008996D01*
X008395Y004676D02*
X008263Y004676D01*
X008263Y004578D02*
X008395Y004578D01*
X008395Y004479D02*
X008263Y004479D01*
X008263Y004381D02*
X008395Y004381D01*
X008395Y004282D02*
X008263Y004282D01*
X008263Y004184D02*
X008395Y004184D01*
X008395Y004085D02*
X008263Y004085D01*
X008263Y003987D02*
X008395Y003987D01*
X008395Y003888D02*
X008263Y003888D01*
X008263Y003790D02*
X008395Y003790D01*
X008395Y003691D02*
X008263Y003691D01*
X008263Y003593D02*
X008395Y003593D01*
X008395Y003494D02*
X008263Y003494D01*
X008263Y003396D02*
X008395Y003396D01*
X008395Y003297D02*
X008263Y003297D01*
X008263Y003199D02*
X008395Y003199D01*
X008395Y003100D02*
X008263Y003100D01*
X008263Y003002D02*
X008395Y003002D01*
X008395Y002903D02*
X008263Y002903D01*
X008263Y002805D02*
X008395Y002805D01*
X008395Y002706D02*
X008263Y002706D01*
X008263Y002608D02*
X008395Y002608D01*
X008395Y002509D02*
X008263Y002509D01*
X008263Y002411D02*
X008395Y002411D01*
X008395Y002312D02*
X008263Y002312D01*
X008263Y002214D02*
X008395Y002214D01*
X008395Y002115D02*
X008263Y002115D01*
X008263Y002017D02*
X008395Y002017D01*
X008395Y001918D02*
X008263Y001918D01*
X008263Y001820D02*
X008395Y001820D01*
X008395Y001721D02*
X008263Y001721D01*
X008263Y001623D02*
X008395Y001623D01*
X008395Y001524D02*
X008263Y001524D01*
X008316Y001426D02*
X008341Y001426D01*
D16*
X005268Y004235D03*
X003437Y005003D03*
X001960Y007188D03*
X003397Y009688D03*
X003791Y009688D03*
X004106Y009924D03*
X004106Y010337D03*
X004067Y010731D03*
X004441Y010751D03*
X004815Y010751D03*
X005209Y010771D03*
X005622Y010830D03*
X005897Y011125D03*
X005976Y011519D03*
X005169Y011519D03*
X004795Y011519D03*
X004401Y011519D03*
X004008Y011519D03*
X003634Y011400D03*
X003358Y011125D03*
X003220Y010751D03*
X003063Y010397D03*
X003102Y009963D03*
X005622Y008467D03*
X006134Y008467D03*
X006606Y008467D03*
X007098Y008467D03*
X007590Y007700D03*
X008083Y006637D03*
X009303Y006204D03*
X009067Y004806D03*
X003693Y001105D03*
X002079Y002404D03*
D17*
X002197Y002404D01*
X002197Y002405D02*
X002266Y002406D01*
X002335Y002412D01*
X002403Y002421D01*
X002471Y002434D01*
X002538Y002450D01*
X002604Y002471D01*
X002669Y002495D01*
X002732Y002523D01*
X002793Y002554D01*
X002853Y002588D01*
X002911Y002626D01*
X002966Y002667D01*
X003019Y002711D01*
X003070Y002758D01*
X003118Y002808D01*
X003162Y002860D01*
X003204Y002915D01*
X003243Y002972D01*
X003279Y003031D01*
X003311Y003092D01*
X003340Y003155D01*
X003365Y003219D01*
X003386Y003285D01*
X003404Y003352D01*
X003418Y003419D01*
X003428Y003488D01*
X003434Y003556D01*
X003437Y003625D01*
X003437Y005003D01*
X003437Y007582D01*
X003434Y007673D01*
X003428Y007764D01*
X003417Y007854D01*
X003403Y007944D01*
X003385Y008033D01*
X003363Y008122D01*
X003337Y008209D01*
X003308Y008295D01*
X003275Y008380D01*
X003238Y008464D01*
X003198Y008546D01*
X003155Y008626D01*
X003108Y008704D01*
X003058Y008780D01*
X003005Y008854D01*
X002948Y008925D01*
X002889Y008995D01*
X002827Y009061D01*
X002762Y009125D01*
X002694Y009186D01*
X002624Y009244D01*
X002551Y009299D01*
X002476Y009351D01*
X002399Y009400D01*
X002320Y009445D01*
X002240Y009487D01*
X002157Y009526D01*
X002073Y009561D01*
X001987Y009592D01*
X001901Y009620D01*
X001813Y009644D01*
X001724Y009664D01*
X001634Y009680D01*
X001544Y009693D01*
X001453Y009702D01*
X001362Y009707D01*
X001271Y009708D01*
D18*
X005622Y001105D03*
X006114Y001105D03*
X006606Y001105D03*
X007098Y001105D03*
X007590Y001105D03*
X008083Y001105D03*
X008575Y001105D03*
X009067Y001105D03*
X009559Y001105D03*
M02*
