G75*
%MOIN*%
%OFA0B0*%
%FSLAX25Y25*%
%IPPOS*%
%LPD*%
%AMOC8*
5,1,8,0,0,1.08239X$1,22.5*
%
%ADD10C,0.06200*%
%ADD11R,0.06200X0.06200*%
%ADD12C,0.05600*%
%ADD13R,0.03100X0.05600*%
%ADD14R,0.06600X0.16600*%
%ADD15R,0.04143X0.03356*%
%ADD16R,0.04362X0.04362*%
%ADD17C,0.04362*%
%ADD18C,0.03575*%
%ADD19C,0.06506*%
D10*
X0007743Y0037287D03*
X0007743Y0045161D03*
X0007743Y0053035D03*
X0007743Y0060909D03*
X0007743Y0068783D03*
X0007743Y0076657D03*
X0007743Y0084531D03*
X0007743Y0092406D03*
X0007743Y0100280D03*
X0094357Y0100280D03*
X0094357Y0092406D03*
X0094357Y0084531D03*
X0094357Y0076657D03*
X0094357Y0068783D03*
X0094357Y0060909D03*
X0094357Y0053035D03*
X0094357Y0045161D03*
X0094357Y0037287D03*
X0094357Y0108154D03*
D11*
X0007743Y0108154D03*
D12*
X0024300Y0105250D03*
X0024300Y0095250D03*
X0024300Y0085250D03*
X0024300Y0075250D03*
X0024300Y0065250D03*
X0024300Y0055250D03*
X0024300Y0045250D03*
X0034300Y0035250D03*
X0044300Y0035250D03*
X0054300Y0035250D03*
X0064300Y0035250D03*
X0074300Y0035250D03*
X0084300Y0045250D03*
X0084300Y0055250D03*
X0084300Y0065250D03*
X0084300Y0075250D03*
X0084300Y0085250D03*
X0084300Y0095250D03*
X0084300Y0105250D03*
X0074300Y0115250D03*
X0064300Y0115250D03*
X0054300Y0115250D03*
X0044300Y0115250D03*
X0034300Y0115250D03*
D13*
X0090028Y0024000D03*
X0093572Y0024000D03*
D14*
X0044300Y0141250D03*
X0034300Y0141250D03*
X0024300Y0141250D03*
D15*
X0016300Y0100059D03*
X0016300Y0094941D03*
X0016300Y0085309D03*
X0016300Y0080191D03*
X0016300Y0055309D03*
X0016300Y0050191D03*
D16*
X0010050Y0023750D03*
D17*
X0015424Y0023750D03*
X0020798Y0023750D03*
X0026172Y0023750D03*
X0031546Y0023750D03*
X0036920Y0023750D03*
X0042294Y0023750D03*
X0047668Y0023750D03*
X0053042Y0023750D03*
X0058416Y0023750D03*
D18*
X0088800Y0024000D03*
D19*
X0034300Y0141000D03*
M02*
