G75*
%MOIN*%
%OFA0B0*%
%FSLAX24Y24*%
%IPPOS*%
%LPD*%
%AMOC8*
5,1,8,0,0,1.08239X$1,22.5*
%
%ADD10C,0.0160*%
%ADD11C,0.0120*%
%ADD12C,0.0080*%
D10*
X000681Y000967D02*
X000681Y010186D01*
X000911Y010742D02*
X003501Y013335D01*
X004058Y013566D02*
X007205Y013566D01*
X007762Y013335D02*
X010352Y010745D01*
X010583Y010188D02*
X010583Y000967D01*
X010582Y000967D02*
X010580Y000913D01*
X010575Y000860D01*
X010566Y000807D01*
X010553Y000755D01*
X010537Y000703D01*
X010517Y000653D01*
X010494Y000605D01*
X010467Y000558D01*
X010438Y000513D01*
X010405Y000470D01*
X010370Y000430D01*
X010332Y000392D01*
X010292Y000357D01*
X010249Y000324D01*
X010204Y000295D01*
X010157Y000268D01*
X010109Y000245D01*
X010059Y000225D01*
X010007Y000209D01*
X009955Y000196D01*
X009902Y000187D01*
X009849Y000182D01*
X009795Y000180D01*
X001468Y000180D01*
X001414Y000182D01*
X001361Y000187D01*
X001308Y000196D01*
X001256Y000209D01*
X001204Y000225D01*
X001154Y000245D01*
X001106Y000268D01*
X001059Y000295D01*
X001014Y000324D01*
X000971Y000357D01*
X000931Y000392D01*
X000893Y000430D01*
X000858Y000470D01*
X000825Y000513D01*
X000796Y000558D01*
X000769Y000605D01*
X000746Y000653D01*
X000726Y000703D01*
X000710Y000755D01*
X000697Y000807D01*
X000688Y000860D01*
X000683Y000913D01*
X000681Y000967D01*
X002630Y002188D02*
X003201Y002188D01*
X002630Y002208D02*
X002630Y002759D01*
X008063Y002188D02*
X008634Y002188D01*
X008634Y002739D01*
X008673Y009649D02*
X008673Y010200D01*
X008102Y010200D01*
X010351Y010744D02*
X010387Y010707D01*
X010419Y010667D01*
X010449Y010625D01*
X010477Y010582D01*
X010501Y010536D01*
X010522Y010489D01*
X010540Y010441D01*
X010555Y010392D01*
X010567Y010342D01*
X010575Y010291D01*
X010580Y010239D01*
X010582Y010188D01*
X007761Y013334D02*
X007724Y013370D01*
X007684Y013402D01*
X007642Y013432D01*
X007599Y013460D01*
X007553Y013484D01*
X007506Y013505D01*
X007458Y013523D01*
X007409Y013538D01*
X007359Y013550D01*
X007308Y013558D01*
X007256Y013563D01*
X007205Y013565D01*
X004058Y013565D02*
X004006Y013563D01*
X003955Y013558D01*
X003904Y013550D01*
X003854Y013538D01*
X003805Y013523D01*
X003757Y013505D01*
X003710Y013484D01*
X003664Y013459D01*
X003621Y013432D01*
X003579Y013402D01*
X003539Y013369D01*
X003501Y013334D01*
X003201Y010219D02*
X002630Y010219D01*
X002630Y009668D01*
X000681Y010186D02*
X000683Y010237D01*
X000688Y010289D01*
X000696Y010339D01*
X000708Y010390D01*
X000723Y010439D01*
X000741Y010487D01*
X000762Y010534D01*
X000786Y010579D01*
X000813Y010623D01*
X000843Y010665D01*
X000876Y010705D01*
X000911Y010742D01*
D11*
X003405Y008428D02*
X003407Y008473D01*
X003413Y008517D01*
X003423Y008560D01*
X003436Y008603D01*
X003454Y008644D01*
X003474Y008683D01*
X003499Y008721D01*
X003526Y008756D01*
X003557Y008788D01*
X003590Y008818D01*
X003626Y008845D01*
X003663Y008868D01*
X003703Y008888D01*
X003745Y008905D01*
X003788Y008917D01*
X003831Y008926D01*
X003876Y008931D01*
X003920Y008932D01*
X003965Y008929D01*
X004009Y008922D01*
X004052Y008911D01*
X004094Y008897D01*
X004135Y008879D01*
X004174Y008857D01*
X004211Y008832D01*
X004245Y008804D01*
X004277Y008772D01*
X004306Y008738D01*
X004332Y008702D01*
X004354Y008664D01*
X004374Y008623D01*
X004389Y008582D01*
X004401Y008539D01*
X004409Y008495D01*
X004413Y008450D01*
X004413Y008406D01*
X004409Y008361D01*
X004401Y008317D01*
X004389Y008274D01*
X004374Y008233D01*
X004354Y008192D01*
X004332Y008154D01*
X004306Y008118D01*
X004277Y008084D01*
X004245Y008052D01*
X004211Y008024D01*
X004174Y007999D01*
X004135Y007977D01*
X004094Y007959D01*
X004052Y007945D01*
X004009Y007934D01*
X003965Y007927D01*
X003920Y007924D01*
X003876Y007925D01*
X003831Y007930D01*
X003788Y007939D01*
X003745Y007951D01*
X003703Y007968D01*
X003663Y007988D01*
X003626Y008011D01*
X003590Y008038D01*
X003557Y008068D01*
X003526Y008100D01*
X003499Y008135D01*
X003474Y008173D01*
X003454Y008212D01*
X003436Y008253D01*
X003423Y008296D01*
X003413Y008339D01*
X003407Y008383D01*
X003405Y008428D01*
D12*
X003378Y001499D02*
X002748Y001499D01*
X002748Y001498D02*
X002732Y001493D01*
X002716Y001485D01*
X002702Y001475D01*
X002690Y001463D01*
X002680Y001448D01*
X002673Y001432D01*
X002669Y001415D01*
X002668Y001398D01*
X002670Y001380D01*
X002670Y000830D02*
X002668Y000812D01*
X002669Y000795D01*
X002673Y000778D01*
X002680Y000762D01*
X002690Y000747D01*
X002702Y000735D01*
X002716Y000725D01*
X002732Y000717D01*
X002748Y000712D01*
X002748Y000711D02*
X003378Y000711D01*
X003378Y000712D02*
X003394Y000717D01*
X003410Y000725D01*
X003424Y000735D01*
X003436Y000747D01*
X003446Y000762D01*
X003453Y000778D01*
X003457Y000795D01*
X003458Y000812D01*
X003456Y000830D01*
X003848Y000901D02*
X003848Y001321D01*
X004128Y001321D01*
X004308Y001321D02*
X004518Y001321D01*
X004588Y001251D01*
X004588Y001111D01*
X004518Y001041D01*
X004308Y001041D01*
X004308Y000901D02*
X004308Y001321D01*
X004448Y001041D02*
X004588Y000901D01*
X004768Y000971D02*
X004838Y000901D01*
X004979Y000901D01*
X005049Y000971D01*
X005049Y001251D01*
X004979Y001321D01*
X004838Y001321D01*
X004768Y001251D01*
X004768Y000971D01*
X004909Y001041D02*
X005049Y000901D01*
X003988Y001111D02*
X003848Y001111D01*
X003456Y001380D02*
X003458Y001398D01*
X003457Y001415D01*
X003453Y001432D01*
X003446Y001448D01*
X003436Y001463D01*
X003424Y001475D01*
X003410Y001485D01*
X003394Y001493D01*
X003378Y001498D01*
M02*
